<?xml version="1.0" encoding="UTF-8"?>
<svg xmlns="http://www.w3.org/2000/svg" version="1.1" viewBox="0 0 292.5 395.1">
  <defs>
    <style>
      .cls-1 {
        fill: #71b847;
      }

      .cls-2 {
        fill: #f6a251;
      }

      .cls-3 {
        fill: #5894b7;
      }

      .cls-4 {
        fill: #5faada;
      }

      .cls-5 {
        fill: #30a44a;
      }

      .cls-6 {
        fill: #4a85ae;
      }

      .cls-7 {
        fill: #5eb148;
      }

      .cls-8 {
        fill: #f59049;
      }

      .cls-9 {
        fill: #256496;
      }

      .cls-10 {
        fill: #f2753f;
      }

      .cls-11 {
        fill: #f2703d;
      }

      .cls-12 {
        fill: #3b78a3;
      }

      .cls-13 {
        fill: #67c1e8;
      }

      .cls-14 {
        fill: #54ad48;
      }

      .cls-15 {
        fill: #f58243;
      }

      .cls-16 {
        fill: #f68744;
      }

      .cls-17 {
        fill: #286999;
      }

      .cls-18 {
        fill: #77bb47;
      }

      .cls-19 {
        fill: #236293;
      }

      .cls-20 {
        fill: #a6cf76;
      }

      .cls-21 {
        fill: #47aadc;
      }

      .cls-22 {
        fill: #7fa7c5;
      }

      .cls-23 {
        fill: #3aa64a;
      }

      .cls-24 {
        fill: #f2773f;
      }

      .cls-25 {
        fill: #165b8e;
      }

      .cls-26 {
        fill: #195c8f;
      }

      .cls-27 {
        fill: #5bb148;
      }

      .cls-28 {
        fill: #f5924a;
      }

      .cls-29 {
        fill: #28a24a;
      }

      .cls-30 {
        fill: #f6a552;
      }

      .cls-31 {
        fill: #83c14a;
      }

      .cls-32 {
        fill: #60bbe4;
      }

      .cls-33 {
        fill: #2c6d9c;
      }

      .cls-34 {
        fill: #3ea6d8;
      }

      .cls-35 {
        fill: #fdcd8b;
      }

      .cls-36 {
        fill: #fedba9;
      }

      .cls-37, .cls-38 {
        isolation: isolate;
      }

      .cls-39 {
        fill: #32709e;
      }

      .cls-40 {
        fill: #60b348;
      }

      .cls-41 {
        fill: #3472a0;
      }

      .cls-42 {
        fill: #205e91;
      }

      .cls-43 {
        fill: #42a9da;
      }

      .cls-44 {
        fill: #3e7aa7;
      }

      .cls-45 {
        fill: #f7af59;
      }

      .cls-46 {
        fill: #467fa9;
      }

      .cls-47 {
        fill: #4aa949;
      }

      .cls-48 {
        fill: #f59e4f;
      }

      .cls-49 {
        fill: #3876a3;
      }

      .cls-50 {
        fill: #5ab6e2;
      }

      .cls-51 {
        fill: #fff;
      }

      .cls-52 {
        fill: #f06c3f;
      }

      .cls-53 {
        fill: #79c9eb;
      }

      .cls-54 {
        fill: #f16e3e;
      }

      .cls-55 {
        fill: #3ba1d6;
      }

      .cls-56 {
        fill: #52b1df;
      }

      .cls-57 {
        fill: #f57f41;
      }

      .cls-38 {
        font-family: ArialMT, Arial;
        font-size: 64.6px;
      }

      .cls-58 {
        fill: #f5974c;
      }

      .cls-59 {
        fill: #c0db9a;
      }

      .cls-60 {
        fill: #f6a956;
      }

      .cls-61 {
        fill: #f69650;
      }

      .cls-62 {
        fill: #739dbf;
      }

      .cls-63 {
        fill: #f47a40;
      }

      .cls-64 {
        fill: #4e86af;
      }

      .cls-65 {
        fill: #a3bcd3;
      }

      .cls-66 {
        fill: #5b8fb5;
      }

      .cls-67 {
        fill: #175b8e;
      }

      .cls-68 {
        fill: #69b64a;
      }

      .cls-69 {
        fill: #f8b45e;
      }

      .cls-70 {
        fill: #266798;
      }

      .cls-71 {
        fill: #4bacdc;
      }

      .cls-72 {
        fill: #2b6b9a;
      }

      .cls-73 {
        fill: #246395;
      }

      .cls-74 {
        fill: #528db4;
      }

      .cls-75 {
        fill: #4f8ab1;
      }

      .cls-76 {
        fill: #206193;
      }

      .cls-77 {
        fill: #ffedd0;
      }

      .cls-78 {
        fill: #f58e48;
      }

      .cls-79 {
        fill: #ced9e7;
      }

      .cls-80 {
        fill: #1a5d91;
      }

      .cls-81 {
        fill: #d0dce9;
      }

      .cls-82 {
        fill: #57ae48;
      }

      .cls-83 {
        fill: #417ba6;
      }

      .cls-84 {
        fill: #f69c4d;
      }

      .cls-85 {
        fill: #deecca;
      }

      .cls-86 {
        fill: #6ec4ea;
      }

      .cls-87 {
        fill: #a7c0d6;
      }

      .cls-88 {
        fill: #39a3d6;
      }

      .cls-89 {
        fill: #7dbe48;
      }

      .cls-90 {
        fill: #f5954b;
      }

      .cls-91 {
        fill: #1ea04a;
      }

      .cls-92 {
        fill: #f6ab56;
      }

      .cls-93 {
        fill: #6cb648;
      }

      .cls-94 {
        fill: #f47d40;
      }

      .cls-95 {
        fill: #f68a46;
      }

      .cls-96 {
        fill: #64bfe7;
      }

      .cls-97 {
        fill: #2e6e9d;
      }

      .cls-98 {
        fill: #4eaede;
      }

      .cls-99 {
        fill: #296a9a;
      }

      .cls-100 {
        fill: #f5994c;
      }

      .cls-101 {
        fill: #66b548;
      }
    </style>
  </defs>
  <!-- Generator: Adobe Illustrator 28.7.1, SVG Export Plug-In . SVG Version: 1.2.0 Build 142)  -->
  <g>
    <g id="Layer_1">
      <g id="Layer_1_copy">
        <g>
          <g id="Layer_2">
            <g id="Layer_3">
              <g>
                <path class="cls-51" d="M106.7,219.3h171.4v37.8h-5.2c-4.3,9.3-8.6,18.6-13.1,28.1-4.5-9.5-8.9-18.8-13.2-28h-5.1c5.3,11.3,10.4,22.4,15.6,33.6-3.3,7.7-6.6,15.3-9.9,23.1h5.2c.2-.4.4-.7.5-.9,6.4-14.2,12.9-28.5,19.2-42.6,2-4.3,4-8.6,6-13v57.2H11.9v-93.9c0-.5-.4-1,.3-1.4v43.8c0,.4,0,.8.2,1,.3-.3,0-.7.2-1v-1.6c.3-2.1.7-4.1,1.2-6.2,1.1-4.5,3.1-8.7,5.3-12.9h0s.2-.3.3-.4h0s.2-.2.2-.3,0-.2.2-.3c0,0,.2-.3.3-.4.4-.7.8-1.3,1.3-1.9.8-.9,1.5-1.9,2.2-2.9,1.8-1.8,3.5-3.6,5.3-5.4,4.8-3.9,10-7,15.8-9.2,2.1-.6,4.2-1.1,6.4-1.7.4,0,.8,0,.9-.3.3,0,.7,0,.9,0,.4,0,.8,0,.9-.2h3.1c.5,0,.9.2,1.3-.3h7.6c.2.3.4.3.7.3h3.4c.4.3.8.3,1.3.3h.8c.3,0,.5.2.8.2s.7,0,.8,0c.3,0,.5.2.8.2s.4,0,.7,0c.2,0,.4.2.7.2.8.2,1.7.5,2.5.7.9.3,1.9.7,2.9.9h0s.4.3.7.3c1.3.6,2.5,1.1,3.8,1.7h0s.3,0,.4.2c2.1,1.3,4.2,2.6,6.4,3.9,4.1,3.2,7.8,6.9,10.8,11,0,.2.2.3.3.4,0,0,0,.2.2.3,0,0,.2.2.2.3h0s.2.3.3.4c0,0,0,.2.2.3,0,0,.2.2.2.3h0s.2.3.3.4c0,0,0,.2,0,.2,0,0,.2.2.3.4,0,0,0,.2.2.3s.2.2.2.3h0s.2.3.3.5c0,0,0,.2,0,.2,0,0,.2.3.3.4,0,0,0,.2,0,.3,0,0,.2.2.2.3h0c0,.4.2.8.6,1,.2-.3.2-.5,0-.8v-25.8l-.2.2v.4ZM87,313.1s-.3.2-.4.3h0c-.7,0-1.1.4-1.8.9h21.9c.4-.3.3-.7.3-1v-18.6c0-.6,0-1.2-.5-1.8-2.3,4.5-5.3,8.5-8.6,12,0,0-.2.2-.3.3h0s-.2.2-.3.3h0c-1.5,1.3-3,2.5-4.5,3.8,0,0-.2.2-.3.3h0c-.9.7-1.9,1.3-2.9,2,0,0-.2.2-.3.3h0c-.3,0-.5,0-.7.4h0s-.3.2-.4.3h-.3c0,0-.2.2-.3.3,0,0-.2,0-.3,0,0,0-.2.2-.3.3h-.2ZM37,313.1h0s-.2-.2-.3-.2-.2,0-.3-.2-.2-.2-.3-.2c0,0-.2,0-.3,0-.2,0-.3-.2-.4-.3h0s-.4-.3-.7-.4h0s-.2-.2-.3-.3c0,0-.2,0-.3,0-.2,0-.3-.2-.4-.3h0s-.2-.2-.3-.3c0,0-.2,0-.3,0-.2,0-.3-.2-.4-.3h0s-.2-.2-.3-.3c-.2-.2-.4-.3-.6-.4,0,0-.3-.2-.4-.3h0s-.2-.2-.3-.3c-.2-.2-.4-.3-.6-.4,0,0-.3-.2-.4-.3-.3-.5-.8-.8-1.2-1-1.7-1.7-3.4-3.4-5.1-5.1,0,0-.3-.3-.4-.4h0s-.2-.2-.3-.4h0c-.8-.9-1.4-1.9-2.2-2.8-.5-.8-.9-1.4-1.5-2.2-.6-.9-1.2-2-1.8-2.9,0-.5-.3-.9-.7-1.2-.2-.8-.6-1.5-1-2.2,0-.3,0-.5-.3-.7h0c-.2-.8-.5-1.5-.8-2.3s-.3-.8-.4-1.3c0-.3,0-.5-.3-.7v-.3c0-.3,0-.5-.3-.8,0-.2,0-.4,0-.6,0-.4-.2-.8-.3-1.3,0-.2-.2-.4-.2-.7s0-.4,0-.7c0-.3-.2-.5-.2-.8v-.8c0-.3-.2-.5-.2-.8s0-.6,0-.8v-.3c0-.8-.2-1.7-.3-2.5v-.9c0-.2,0-.4-.2-.4v38.6c0,.4-.2.8.3,1.2.3,0,.5.2.8.2h25.2c.2,0,.3,0,.3-.3,0,0-.3,0-.4-.2,0,0,0,0-.2,0-.2,0-.3-.2-.4-.3,0,0,0,0-.2,0-.2,0-.3-.2-.5-.3l-.3.2h-.4ZM72.1,288.9c8.5,9,21.8,7.8,28.6.8,6.9-7.1,7.2-19,.8-26.6-6.6-7.8-20.9-9.7-29.6-.4v-5.6h-4.6v54.6h4.6v-22.9h0v.2ZM25.4,280.8c1.1,3.9,2.8,7.2,5.6,9.9,5.2,4.7,11.4,5.2,17.9,4.5,3.2-.3,6.2-1.4,8.7-3.5,7.2-5.4,8.2-17.9,2.2-25.4-2.9-3.6-6.8-5.7-10.8-7.6-3.7-1.8-7.5-3.3-10.9-5.5-5.4-3.7-6-11-1.2-15.4,4.7-4.4,14.4-4.1,18.8.6.8.8,1.4,1.8,2.2,2.7,1.4-.7,2.8-1.2,4.2-1.9-.8-1.5-1.6-2.7-2.6-3.8-6.3-6.5-18-7.2-25.2-1.5-6.5,5.3-7.3,15.2-1.6,21.3,2,2.2,4.6,3.6,7.2,4.9,3.9,2,8.1,3.6,11.8,5.8,5.1,3,7.5,7.3,7.2,13.3-.3,5.4-3.3,9.3-8.5,10.9-2.7.8-5.4.9-8.4.7-5.3-.7-9-3.2-11.1-8.1-.4-1-.8-2.1-1.2-3.2-1.5.5-2.9.9-4.5,1.5h0v-.3ZM151.5,275.7c.9-8.7-5.7-17.2-14.6-18.9-11.1-2.1-20.7,3.4-23.5,13.1-2.9,10.2,2.1,20.8,11.5,24.1,9.5,3.4,20.5.2,24.9-9.3-1.4-.7-2.8-1.2-4.1-1.9-5.4,7.4-12.2,9.7-19.8,6.8-5.4-2.2-9.1-8.2-8.5-14.1h34.2ZM226.5,257.1v-20.1c0-3.3,2-4.9,5.2-4.4,1.4.2,2.9.5,4.4.7v-4.5c-1.5-.8-2.4-1-4.9-1-6.2-.2-9.4,3-9.4,9.1v18.4c0,.6.2,1.2-.3,1.9h-4.7v4.6h5.1v33c1.6,0,3.1.2,4.7,0v-32.9h8.5v-4.6h-8.5,0ZM190.8,286c-.7.5-1,.8-1.5,1.2-5.2,4.2-12.9,4.8-18.3,1.4s-8-9.9-6.4-16.6c2.4-10.3,13.2-13.1,21.2-9.6,1.7.8,3.3,1.9,5,2.9v-5.4c-6.8-5.6-19.3-4.4-26.1,2.4-6.7,6.9-6.9,19.1-.8,26.3,7.2,8.5,20.2,8.1,26.8,3.1v-5.8h0ZM205.4,294.6v-37.5c-1.5,0-3-.2-4.4,0-.3,2.6-.2,36.2.2,37.4h4.2ZM203.4,251.5c2,0,3.2-1.2,3.3-3.1,0-1.9-1.6-3.8-3.4-3.8s-3.6,1.6-3.6,3.4,1.5,3.6,3.7,3.5h0Z"/>
                <path class="cls-25" d="M278.1,257.4c-2,4.3-4,8.5-6,13-6.4,14.2-12.9,28.5-19.2,42.6-.2.3-.3.6-.5.9h-5.2c3.4-7.8,6.6-15.4,9.9-23.1-5.2-11.2-10.3-22.3-15.6-33.6h5.1c4.3,9.2,8.7,18.5,13.2,28,4.4-9.5,8.7-18.7,13.1-28.1h5.2v.3h0Z"/>
                <path class="cls-46" d="M44.3,221.8c-5.8,2.2-11.1,5.3-15.8,9.2-.4,0-.7.2-1,.4-5.1,2.9-10.2,5.9-15.3,8.8v-2.2c6.8-3.8,13.5-7.8,20.3-11.6,4-2.3,8.1-4.7,12.1-7.1h3.5c-1,1.2-2.6,1.5-3.8,2.5h0Z"/>
                <path class="cls-47" d="M106.7,230.1v4.1c-2.1-2-4.1-3.9-6.1-5.9-3-3-5.9-6-8.9-9h4.1c3.5,3.8,7,7.3,10.8,10.8h0Z"/>
                <path class="cls-40" d="M105,242.8s0-.2-.2-.3-.2-.2-.3-.4c0,0,0-.2,0-.2,0-.2-.2-.3-.3-.4h0s-.2-.2-.2-.3c0,0-.2-.2-.2-.3,0-.2-.2-.3-.3-.4h0s-.2-.2-.2-.3c0,0-.2-.2-.2-.3,0-.2-.2-.3-.3-.4-3.1-4.1-6.8-7.9-10.8-11-.2-.7-.8-.9-1.2-1.4-2.5-2.6-5.2-5.3-7.7-7.9h1.9c.4.4.8.8,1.1,1.3,5.3,5.3,10.6,10.6,16,15.9,1.5,1.5,3,2.9,4.6,4.4v4.1c-.2,0-.4-.2-.7-.3h0c0,0-.2-.2-.2-.3,0,0,0-.2,0-.3,0,0-.2-.3-.3-.4,0,0,0,0,0-.2,0-.2-.2-.3-.3-.4h0s-.2-.2-.2-.3h0v-.3Z"/>
                <path class="cls-41" d="M12.2,233.9v-1.9c5.5-3.2,11.1-6.3,16.5-9.6,1.7-1,3.6-1.7,5.1-3.1h3.5c-4.5,2.6-8.9,5.2-13.3,7.8-3.9,2.3-7.9,4.6-11.7,6.9h0Z"/>
                <path class="cls-14" d="M91.8,219.3c2.9,3,5.9,6,8.9,9,2,2,4,3.9,6.1,5.9v2.5c-3.8-3.7-7.5-7.4-11.3-11.2s-4.1-4.2-6.2-6.4h2.5,0Z"/>
                <path class="cls-83" d="M44.7,219.3c-4,2.3-8.1,4.8-12.1,7.1-6.8,3.9-13.5,7.8-20.3,11.6v-1.3l2.8-1.4c7.3-4.2,14.6-8.5,21.9-12.7,1.9-1,3.9-1.9,5.4-3.4h2.3Z"/>
                <path class="cls-23" d="M106.7,230.1c-3.8-3.5-7.3-7-10.8-10.8h3.8c2.2,2.4,4.6,4.8,6.9,6.9v3.8h0Z"/>
                <path class="cls-7" d="M106.7,240.9c-1.5-1.5-3.1-2.9-4.6-4.4-5.4-5.3-10.6-10.6-16-15.9-.4-.4-.8-.8-1.1-1.3h1.6c3.3,3.3,6.5,6.6,9.8,9.9,3.4,3.4,6.9,6.8,10.2,10.1v1.6h0Z"/>
                <path class="cls-49" d="M12.2,233.9c3.9-2.3,7.9-4.6,11.7-6.9,4.5-2.6,8.9-5.2,13.3-7.8h1.9c-.7.4-1.2.8-1.9,1.2-5.9,3.4-11.8,6.8-17.7,10.2-2.4,1.4-4.8,3-7.4,4.1v-.9h0Z"/>
                <path class="cls-44" d="M42.4,219.3c-1.6,1.5-3.7,2.3-5.4,3.4-7.3,4.2-14.6,8.5-21.9,12.7l-2.8,1.4v-.9c5.4-3.1,10.9-6.2,16.3-9.3,4.1-2.3,8.2-4.8,12.3-7.2h1.6,0Z"/>
                <path class="cls-82" d="M89.3,219.3c2.1,2.1,4.1,4.2,6.2,6.4,3.8,3.8,7.5,7.4,11.3,11.2v1.6c-4.9-4.8-9.8-9.7-14.6-14.6-1.5-1.5-2.9-3-4.4-4.6h1.6Z"/>
                <path class="cls-12" d="M40.8,219.3c-4.1,2.4-8.2,4.8-12.3,7.2-5.4,3.1-10.9,6.2-16.3,9.3v-.9c2.6-1.2,5-2.7,7.4-4.1,5.9-3.4,11.8-6.8,17.7-10.2.7-.4,1.2-.8,1.9-1.2h1.6Z"/>
                <path class="cls-97" d="M12.2,231.1v-1.3c2.7-1.5,5.5-3,8.2-4.6,3.3-2,6.8-3.7,9.9-5.8h2.2c-6.8,3.9-13.5,7.9-20.3,11.7h0Z"/>
                <path class="cls-101" d="M83.2,219.3c2.5,2.6,5.2,5.3,7.7,7.9.4.5,1,.8,1.2,1.4-2.1-1.3-4.2-2.6-6.4-3.9,0,0-.3-.2-.4-.3h0c-1.3-2-3.4-3.3-4.7-5.2h2.5Z"/>
                <path class="cls-27" d="M87.7,219.3c1.5,1.5,2.9,3.1,4.4,4.6,4.9,4.8,9.8,9.7,14.6,14.6v.9c-3.5-3.4-6.9-6.8-10.2-10.1-3.3-3.3-6.5-6.6-9.8-9.9h.9Z"/>
                <path class="cls-39" d="M12.2,231.1c6.8-3.9,13.5-7.9,20.3-11.7h1.3c-1.4,1.4-3.4,2.1-5.1,3.1-5.4,3.2-11,6.4-16.5,9.6v-.9h0Z"/>
                <path class="cls-17" d="M12.2,227.9v-.9c.9-.5,2-1,2.9-1.6,3.4-2,6.9-3.8,10.1-6h1.9c-2.9,1.7-5.7,3.5-8.5,5.1-2.1,1.2-4.1,2.6-6.4,3.6h0Z"/>
                <path class="cls-5" d="M106.7,226.3c-2.4-2.2-4.8-4.5-6.9-6.9h2.5c1.3,1.6,2.8,3.1,4.5,4.5v2.5h0Z"/>
                <path class="cls-70" d="M25.2,219.3c-3.2,2.2-6.8,4-10.1,6-.9.6-1.9,1-2.9,1.6v-.9c1.8-1,3.7-2.1,5.4-3.2,1.9-1.2,3.9-2,5.6-3.5h2Z"/>
                <path class="cls-9" d="M23.3,219.3c-1.6,1.5-3.8,2.3-5.6,3.5-1.8,1.1-3.7,2.2-5.4,3.2v-1.3c3.1-1.8,6.3-3.4,9.2-5.4h1.9Z"/>
                <path class="cls-33" d="M30.3,219.3c-3.1,2.2-6.6,3.9-9.9,5.8-2.7,1.6-5.4,3.1-8.2,4.6v-.7c4.2-2.3,8.5-4.7,12.6-7.2,1.4-.8,3.1-1.4,4.2-2.6h1.3,0Z"/>
                <path class="cls-72" d="M29.1,219.3c-1.1,1.3-2.8,1.9-4.2,2.6-4.1,2.4-8.5,4.8-12.6,7.2v-.7c2-1.1,4.1-2.2,6-3.4,3.2-2,6.8-3.6,9.8-5.8h1Z"/>
                <path class="cls-93" d="M80.6,219.3c1.4,1.9,3.5,3.2,4.7,5.2-1.3-.6-2.5-1.1-3.8-1.7-.2-.3-.4-.3-.7-.3h0c-.2-1.4-1.5-2.1-2.2-3.2h2,0Z"/>
                <path class="cls-99" d="M28.1,219.3c-3.1,2.3-6.6,3.8-9.8,5.8-2,1.2-4,2.3-6,3.4v-.7c2.3-.9,4.2-2.3,6.4-3.6,2.9-1.6,5.7-3.4,8.5-5.1h.9,0Z"/>
                <path class="cls-64" d="M44.3,221.8c1.1-1,2.8-1.3,3.8-2.5h6.7v.3h-1.2c-.4,0-.8,0-.9.2-.3,0-.7,0-.9,0-.4,0-.8,0-.9.3-2.1.6-4.2,1.1-6.4,1.7h0Z"/>
                <path class="cls-29" d="M106.7,223.7c-1.6-1.4-3.1-2.8-4.5-4.5h2.2c.7.8,1.3,1.6,2.2,2.2v2.2h0l.2.2Z"/>
                <path class="cls-1" d="M78.8,219.3c.7,1.1,2.1,1.8,2.2,3.2-.9-.3-1.9-.7-2.9-.9-.7-.8-1.3-1.5-1.9-2.2h2.6Z"/>
                <path class="cls-18" d="M76.2,219.3c.7.8,1.3,1.5,1.9,2.2-.8-.2-1.7-.5-2.5-.7-.2,0-.4-.2-.7-.2s-.4,0-.7,0c-.2-.3-.5-.3-.8-.2-.3,0-.7,0-.8,0-.2-.3-.5-.3-.8-.2h-.2c0-.2-.2-.4-.3-.7h4.8Z"/>
                <path class="cls-73" d="M21.4,219.3c-2.9,2-6.1,3.7-9.2,5.4v-.7c2.5-1.7,5.4-2.9,7.9-4.8h1.3Z"/>
                <path class="cls-76" d="M12.2,223.4v-.9c1.8-1,3.6-2.1,5.4-3.2h1.6c-2.3,1.4-4.6,2.8-6.9,4.1h0Z"/>
                <path class="cls-19" d="M12.2,223.4c2.3-1.4,4.6-2.8,6.9-4.1h.9c-2.4,1.9-5.4,3.1-7.9,4.8v-.7h0Z"/>
                <path class="cls-80" d="M12.2,221.8v-.9c.9-.5,2-.9,2.8-1.6h1.3c-1.2,1.2-2.7,1.7-4.1,2.5Z"/>
                <path class="cls-42" d="M12.2,221.8c1.3-.8,2.9-1.4,4.1-2.5h1.3c-1.8,1-3.6,2.1-5.4,3.2v-.7h0Z"/>
                <path class="cls-91" d="M106.7,221.5c-.8-.7-1.6-1.3-2.2-2.2h2.2v2.2Z"/>
                <path class="cls-26" d="M15,219.3c-.8.7-1.9,1.1-2.8,1.6v-1.6h2.9,0Z"/>
                <path class="cls-89" d="M71.3,219.3s.2.4.3.7h-.7c-.4-.4-.8-.3-1.3-.3h-1.2v-.3h2.9Z"/>
                <path class="cls-79" d="M58,219.3c-.4.5-.8.3-1.3.3v-.3h1.3Z"/>
                <path class="cls-62" d="M54.9,219.6v-.3h.9v.3h-.9Z"/>
                <path class="cls-65" d="M55.7,219.6v-.3h.9v.3h-.9Z"/>
                <path class="cls-59" d="M67.3,219.6h-.9v-.3h.9v.3h0Z"/>
                <path class="cls-20" d="M67.3,219.6v-.3h.9v.3h-.9Z"/>
                <path class="cls-85" d="M66.3,219.3v.3c-.3,0-.5,0-.7-.3h.7Z"/>
                <path class="cls-31" d="M68.2,219.6v-.3h.3v.3h-.3Z"/>
                <path class="cls-25" d="M72.1,288.8v22.9h-4.6v-54.6h4.6v5.6c8.6-9.3,23-7.4,29.6.4,6.4,7.5,6,19.4-.8,26.6-6.9,7-20.1,8.3-28.6-.8h0v-.2ZM86.7,261.1c-8.5,0-14.8,6.4-14.8,14.6s6.8,15,14.9,14.9c8.1,0,14.7-6.8,14.7-14.7s-6.7-14.8-14.8-14.8h0Z"/>
                <path class="cls-25" d="M25.4,280.8c1.6-.5,3-1,4.5-1.5.4,1.1.8,2.2,1.2,3.2,2.1,4.9,5.8,7.5,11.1,8.1,2.8.4,5.6.2,8.4-.7,5.2-1.5,8.2-5.4,8.5-10.9.3-5.9-2.2-10.3-7.2-13.3-3.8-2.3-7.9-3.8-11.8-5.8-2.6-1.3-5.2-2.7-7.2-4.9-5.7-6.1-4.9-16.2,1.6-21.3,7.1-5.7,19-5,25.2,1.5,1,1,1.9,2.3,2.6,3.8-1.4.7-2.8,1.2-4.2,1.9-.8-.9-1.4-1.9-2.2-2.7-4.4-4.7-14.1-5-18.8-.6-4.8,4.5-4.2,11.8,1.2,15.4,3.4,2.3,7.2,3.8,10.9,5.5,4,2,7.9,4.1,10.8,7.6,6,7.4,5.1,19.8-2.2,25.4-2.5,2-5.5,3.1-8.7,3.5-6.5.7-12.8.2-17.9-4.5-2.9-2.6-4.5-5.9-5.6-9.9h0v.3Z"/>
                <path class="cls-25" d="M151.5,275.7h-34.1c-.7,5.8,3,11.9,8.5,14.1,7.6,3,14.3.8,19.8-6.8,1.3.7,2.7,1.2,4.1,1.9-4.4,9.5-15.4,12.6-24.9,9.3-9.4-3.4-14.3-13.9-11.5-24.1,2.8-9.9,12.4-15.2,23.5-13.1,8.9,1.7,15.6,10.1,14.6,18.9h0ZM146.2,271.1c-1-5.6-6.9-10-13.8-10.1-7-.2-12.9,3.9-14.3,10.1h28.1Z"/>
                <path class="cls-25" d="M226.5,257.1h8.5v4.6h-8.5v32.9c-1.6.3-3.1.2-4.7,0v-33h-5.1v-4.6h4.7c.5-.7.3-1.3.3-1.9v-18.4c0-6.2,3.2-9.3,9.4-9.1,2.4,0,3.4.3,4.9,1v4.5c-1.5-.3-3-.5-4.4-.7-3.2-.5-5.1,1-5.2,4.4,0,4.6,0,9.2,0,13.8v6.3h0Z"/>
                <path class="cls-25" d="M190.8,286v5.8c-6.5,5-19.5,5.4-26.8-3.1-6.2-7.3-5.9-19.5.8-26.3,6.8-6.9,19.2-8.1,26.1-2.4v5.4c-1.8-1-3.3-2.1-5-2.9-8-3.6-18.7-.8-21.2,9.6-1.6,6.8.9,13.3,6.4,16.6,5.4,3.4,13.1,2.8,18.3-1.4.5-.4.8-.8,1.5-1.2h0Z"/>
                <path class="cls-67" d="M205.3,294.6h-4.2c-.4-1.1-.5-34.7-.2-37.4,1.4-.2,2.9,0,4.4,0v37.5h0Z"/>
                <path class="cls-3" d="M18.8,242.5c-2.2,4.1-4.1,8.3-5.3,12.9-.5,2.1-.8,4.1-1.2,6.2h-.3v-15.2c2.2-1.3,4.3-2.6,6.7-3.8h0Z"/>
                <path class="cls-67" d="M203.4,251.4c-2.2,0-3.7-1.4-3.7-3.5s1.7-3.4,3.6-3.4,3.4,1.9,3.4,3.8-1.3,3.1-3.3,3.1h0Z"/>
                <path class="cls-6" d="M12.2,240.3c5.1-2.9,10.2-5.8,15.3-8.8.3-.2.7-.4,1-.4-1.8,1.8-3.5,3.6-5.3,5.4-1.4.4-2.5,1.3-3.8,2-2.4,1.3-4.8,2.9-7.3,4v-2.3h0Z"/>
                <path class="cls-96" d="M97.8,304.9c3.4-3.6,6.4-7.5,8.6-12,.5.7.5,1.2.5,1.8v18.6c0,.4,0,.8-.3,1v-16.8c0-.5.2-.9-.2-1.4-.7.2-.9.8-1.3,1.1-3.1,3.7-6.3,7.4-9.3,11.2-1.5,1.9-3.3,3.6-4.6,5.6h-.9c.5-1.3,1.6-2.1,2.4-3.2,1.3-1.9,3.1-3.4,4.2-5.4h0c0,0,.2-.2.3-.3h0c0,0,.2-.2.3-.3h.3Z"/>
                <path class="cls-8" d="M38.1,313.7h.2c-1.1.6-2.3.2-3.5.2-7.4-6.2-14.8-12.5-22.3-18.7v-.9c4.3,3.6,8.5,7.2,13,10.8,1.1.9,2,2.4,3.7,2.5.5.3.9.6,1.2,1,0,0,.3.2.4.3.2.2.4.3.6.4,0,0,.2.2.3.3h0s.3.2.4.3c.2.2.4.3.6.4,0,0,.2.2.3.3h0s.3.2.4.3c0,0,.2,0,.3,0s.2.2.3.3h0s.3.2.4.3c0,0,.2,0,.3,0s.2.2.3.3h0c0,.3.4.4.7.4h0s.3.2.4.3c0,0,.2,0,.3,0,0,0,.2.2.3.2s.2,0,.3.2.2.2.3.2h0s.3.2.5.3c0,0,.2,0,.2,0,.2,0,.3.2.4.3h.2Z"/>
                <path class="cls-28" d="M29.1,307.6c-1.8,0-2.5-1.6-3.7-2.5-4.3-3.5-8.6-7.2-13-10.8v-1.3c1.6,1.4,3.2,2.8,4.9,4.1,2.1,1.5,3.8,3.5,5.9,4.8h0c0,0,.2.3.3.4h0c0,0,.3.3.4.4,1.7,1.7,3.4,3.4,5.1,5.1h0Z"/>
                <path class="cls-74" d="M18.8,242.5c-2.3,1.1-4.5,2.4-6.7,3.8v-2.2c.3,0,.5-.2.8-.3,2.7-1.5,5.3-3.3,8.1-4.5-.4.7-.8,1.3-1.3,1.9,0,0-.2.3-.3.4,0,0,0,.2-.2.3s-.2.2-.2.3h0s-.2.3-.3.4h0Z"/>
                <path class="cls-75" d="M21,239.3c-2.9,1.2-5.4,3-8.1,4.5-.2,0-.5.2-.8.3v-1.6c2.5-1.1,4.9-2.7,7.3-4,1.2-.7,2.3-1.6,3.8-2-.8.9-1.5,1.9-2.2,2.9h0Z"/>
                <path class="cls-90" d="M23.4,301.8c-2.3-1.3-3.9-3.2-5.9-4.8-1.7-1.3-3.3-2.7-4.9-4.1v-.9c1.6,1.4,3.2,2.9,5,4.1,1.3.9,2.1,2.4,3.8,2.8.8.9,1.4,1.9,2.2,2.9h0Z"/>
                <path class="cls-13" d="M97.2,305.4c-1.2,2-2.9,3.5-4.2,5.4-.8,1-2,1.9-2.4,3.2h-1.9c.2-.5.7-.7.9-.9,1-1,2.1-2.2,2.8-3.5h0c0,0,.2-.2.3-.3,1.5-1.3,3-2.5,4.5-3.8h0Z"/>
                <path class="cls-58" d="M21.2,299c-1.6-.5-2.4-2-3.8-2.8-1.8-1.2-3.4-2.7-5-4.1v-.9c.8.5,1.4,1,2.2,1.6,1.8,1.3,3.2,3.1,5.2,4.1.5.8.9,1.4,1.5,2.2h0Z"/>
                <path class="cls-100" d="M19.8,296.9c-2-1-3.4-2.8-5.2-4.1-.8-.6-1.4-1.1-2.2-1.6v-1.3c.8.5,1.6,1.2,2.3,1.9,1,.8,1.8,2,3.1,2.3.6.9,1.2,2,1.8,2.9h0Z"/>
                <path class="cls-61" d="M34.7,314c1.2,0,2.3.4,3.5-.2.2,0,.3,0,.4.2,0,.3,0,.3-.3.3H13.1c-.3,0-.5,0-.8-.2h0c1,0,2.1,0,3.1,0h19.2Z"/>
                <path class="cls-48" d="M16.3,290.5c.5.8.8,1.4,1,2.2-1.6-1.3-3.2-2.5-4.8-3.8v-1.6c1.3.8,2.1,2.1,3.5,2.5h0s0,.5.3.7h0Z"/>
                <path class="cls-86" d="M92.5,309.5c-.8,1.3-1.8,2.4-2.8,3.5-.4.3-.8.6-.9.9h-2c0-.3,0-.5,0-.7h0c0,0,.3-.2.4-.3h0c0,0,.2-.2.3-.3,0,0,.2,0,.3,0,0,0,.2-.2.3-.3h.3c0,0,.3-.2.4-.3h0c.3,0,.5,0,.7-.4h0c0,0,.2-.2.3-.3.9-.7,1.9-1.3,2.9-2h0Z"/>
                <path class="cls-35" d="M12.5,287.3v7.7h-.3v-19.4h.3c0,.8.2,1.7.3,2.5,0,0-.2.2-.3.3v8.9-.2.2Z"/>
                <path class="cls-28" d="M12.2,294.9h.3v19.2h0c-.4-.2-.3-.7-.3-1v-17.9h0v-.2Z"/>
                <path class="cls-30" d="M12.5,286v-2.9c.8,0,.9.7,1.5.9,0,.2,0,.4,0,.6,0,.3,0,.5.3.8,0,0,0,.2,0,.3,0,.3,0,.5.3.7.2.4.3.8.4,1.3-1.2,0-1.4-1.5-2.6-1.6h0Z"/>
                <path class="cls-53" d="M86.6,313.3s0,.4,0,.7h13.7v.3h-15.5c.7-.6,1.2-.8,1.8-.9h0Z"/>
                <path class="cls-84" d="M12.5,289.8v-.9c1.6,1.3,3.2,2.5,4.8,3.8.4.4.6.8.7,1.2-1.4-.3-2.1-1.5-3.1-2.3-.8-.6-1.5-1.3-2.3-1.9h0Z"/>
                <path class="cls-2" d="M12.5,286c1.2,0,1.4,1.6,2.6,1.6.5.7.8,1.4.8,2.3-1.4-.5-2.3-1.9-3.5-2.5,0,0,0-1.3,0-1.3Z"/>
                <path class="cls-92" d="M14.1,284.1c-.5-.3-.8-.9-1.5-.9v-3.2h.3s.2.2.3.3v.6c0,.3,0,.5.2.8,0,.2,0,.4,0,.7,0,.2.2.4.2.7,0,.4.2.8.3,1.3h.2Z"/>
                <path class="cls-4" d="M100.4,314.2v-.3h6.4v.3h-6.4Z"/>
                <path class="cls-45" d="M12.8,280h-.3v-1.6h.3c0,.3,0,.6,0,.8v.8h0Z"/>
                <path class="cls-68" d="M106.1,244.7s.4.2.7.3c0,.3,0,.5,0,.8-.3-.3-.5-.7-.6-1h0Z"/>
                <path class="cls-81" d="M12.5,263.2c0,.4,0,.8-.2,1-.3-.3,0-.7-.2-1h.4Z"/>
                <path class="cls-31" d="M69.7,219.6c.5,0,.9-.2,1.3.3-.5,0-.9,0-1.3-.3Z"/>
                <path class="cls-36" d="M12.5,275.6h-.3v-.9h.3v.9Z"/>
                <path class="cls-66" d="M52.7,219.8c.3-.3.7-.3.9-.2-.3.3-.7.3-.9.2Z"/>
                <path class="cls-66" d="M50.7,220.2c.3-.3.7-.3.9-.3-.3.3-.7.3-.9.3Z"/>
                <path class="cls-22" d="M12.2,261.6h.3v.9h-.2v-.9h0Z"/>
                <path class="cls-89" d="M73.5,220.3c.3,0,.5,0,.8.2-.3,0-.5-.2-.8-.2Z"/>
                <path class="cls-87" d="M12.2,262.4h.2v.7h-.3v-.7h0Z"/>
                <path class="cls-45" d="M13.7,282.8s-.2-.4-.2-.7c0,.2.2.4.2.7Z"/>
                <path class="cls-53" d="M89.3,311.8c0,.3-.4.3-.7.4.2-.3.4-.3.7-.4Z"/>
                <path class="cls-61" d="M35.4,312.1c-.3,0-.5,0-.7-.4.2,0,.4.3.7.4Z"/>
                <path class="cls-69" d="M12.8,280v-.8c0,.3.2.5.2.8h-.3,0Z"/>
                <path class="cls-60" d="M14.3,285.4c-.3-.2-.3-.4-.3-.8.2.2.3.4.3.8Z"/>
                <path class="cls-60" d="M14.7,286.4s-.3-.4-.3-.7c.2.2.3.4.3.7Z"/>
                <path class="cls-77" d="M12.5,274.6h-.3v-.4c.3,0,.2.3.2.4h0Z"/>
                <path class="cls-2" d="M16.3,290.5s-.3-.4-.3-.7c.2.2.3.4.3.7Z"/>
                <path class="cls-69" d="M13.4,281.6s-.3-.4-.2-.8c0,.3.2.5.2.8Z"/>
                <path class="cls-31" d="M71.9,220c.3,0,.5,0,.8.2-.3,0-.5-.2-.8-.2Z"/>
                <path class="cls-89" d="M74.9,220.5s.4.2.7.2c-.2,0-.4-.2-.7-.2Z"/>
                <path class="cls-1" d="M80.9,222.5c.3,0,.5,0,.7.3-.3,0-.5,0-.7-.3Z"/>
                <path class="cls-93" d="M85.3,224.5s.3.2.4.3c0,0-.3-.2-.4-.3Z"/>
                <path class="cls-68" d="M103,239.6s.2.3.3.4c0-.2-.2-.3-.3-.4Z"/>
                <path class="cls-13" d="M97.8,304.9s-.2.2-.3.3c0,0,.2-.2.3-.3Z"/>
                <path class="cls-68" d="M103.4,240.3s.2.2.2.3c0,0-.2-.2-.2-.3Z"/>
                <path class="cls-13" d="M97.5,305.1s-.2.2-.3.3c0,0,.2-.2.3-.3Z"/>
                <path class="cls-68" d="M105.9,244.4s.2.2.2.3c0,0-.2-.2-.2-.3Z"/>
                <path class="cls-68" d="M103.6,240.5s.2.3.3.4c0-.2-.2-.3-.3-.4Z"/>
                <path class="cls-90" d="M24,302.5s-.3-.3-.4-.4c0,0,.3.3.4.4Z"/>
                <path class="cls-3" d="M19.5,241.6s.2-.3.3-.4c0,0-.2.3-.3.4Z"/>
                <path class="cls-90" d="M23.6,302.2s-.2-.3-.3-.4c0,0,.2.3.3.4Z"/>
                <path class="cls-69" d="M12.7,278.4h-.3c0,0,.2-.2.3-.3v.3Z"/>
                <path class="cls-61" d="M30.7,308.9s-.3-.2-.4-.3c0,0,.3.2.4.3Z"/>
                <path class="cls-68" d="M105.5,243.8s.2.3.3.4c0,0-.2-.3-.3-.4Z"/>
                <path class="cls-86" d="M92.7,309.3s-.2.2-.3.3c0,0,.2-.2.3-.3Z"/>
                <path class="cls-68" d="M104,241.2s.2.2.2.3c0,0-.2-.2-.2-.3Z"/>
                <path class="cls-61" d="M32,309.8s-.3-.2-.4-.3c0,0,.3.2.4.3Z"/>
                <path class="cls-68" d="M104.2,241.6s.2.3.3.4c0-.2-.2-.3-.3-.4Z"/>
                <path class="cls-61" d="M32.9,310.5s-.2-.2-.3-.3c0,0,.2.2.3.3Z"/>
                <path class="cls-3" d="M19.2,242.1s.2-.2.2-.3c0,0-.2.2-.2.3Z"/>
                <path class="cls-61" d="M33.3,310.8s-.3-.2-.4-.3c.2,0,.3.2.4.3Z"/>
                <path class="cls-61" d="M33.8,311.1s-.2-.2-.3-.3c0,0,.2.2.3.3Z"/>
                <path class="cls-3" d="M18.8,242.5s.2-.3.3-.4c0,0-.2.3-.3.4Z"/>
                <path class="cls-61" d="M34.2,311.4s-.3-.2-.4-.3c.2,0,.3.2.4.3Z"/>
                <path class="cls-61" d="M34.8,311.8s-.2-.2-.3-.3c0,0,.2.2.3.3Z"/>
                <path class="cls-53" d="M89.6,311.5s-.2.2-.3.3c0,0,.2-.2.3-.3Z"/>
                <path class="cls-68" d="M104.6,242.2s.2.2.3.4c0,0-.2-.2-.3-.4Z"/>
                <path class="cls-68" d="M105,242.8s.2.2.2.3c0,0-.2-.2-.2-.3Z"/>
                <path class="cls-61" d="M35.8,312.4s-.3-.2-.4-.3c.2,0,.3.2.4.3Z"/>
                <path class="cls-53" d="M88.6,312.1s-.3.2-.4.3c0,0,.3-.2.4-.3Z"/>
                <path class="cls-61" d="M36.4,312.7s-.2-.2-.3-.2c0,0,.2.2.3.2Z"/>
                <path class="cls-53" d="M88,312.5s-.2.2-.3.3c0,0,.2-.2.3-.3Z"/>
                <path class="cls-61" d="M37,313s-.2-.2-.3-.2c0,0,.2.2.3.2Z"/>
                <path class="cls-53" d="M87.3,312.8s-.2.2-.3.3c0,0,.2-.2.3-.3Z"/>
                <path class="cls-61" d="M37.4,313.3s-.3-.2-.5-.3c.2,0,.3.2.5.3Z"/>
                <path class="cls-53" d="M87,313s-.3.2-.4.3c0,0,.3-.2.4-.3Z"/>
                <path class="cls-61" d="M38.1,313.7s-.3-.2-.4-.3c.2,0,.3.2.4.3Z"/>
                <path class="cls-45" d="M12.8,280h.3v.3c0,0-.2-.2-.3-.3Z"/>
                <path class="cls-68" d="M105.2,243.1s.2.3.3.4c0-.2-.2-.3-.3-.4Z"/>
                <path class="cls-61" d="M31.5,309.5s-.2-.2-.3-.3c0,0,.2.2.3.3Z"/>
                <path class="cls-51" d="M86.7,261.1c8.2,0,14.8,6.8,14.8,14.8s-6.7,14.7-14.7,14.7-14.9-6.8-14.9-14.9,6.5-14.6,14.8-14.6h0Z"/>
                <path class="cls-51" d="M146.2,271.1h-28.1c1.4-6.2,7.2-10.2,14.3-10.1,6.9.2,12.8,4.5,13.8,10.1Z"/>
                <path class="cls-50" d="M95,314h-2.2c1.1-1.2,2.3-2.4,3.2-3.7,1.9-2.4,4-4.7,5.9-7.2,1.5-2,3.2-3.8,4.8-5.6v2.5c-3.9,4.7-7.9,9.3-11.7,14h0Z"/>
                <path class="cls-32" d="M106.7,297.5c-1.6,1.9-3.3,3.7-4.8,5.6-1.9,2.4-4,4.7-5.9,7.2-.9,1.3-2.1,2.5-3.2,3.7h-1.3c1.2-2.1,3-3.8,4.6-5.6,3-3.8,6.2-7.4,9.3-11.2.4-.4.7-.9,1.3-1.1.3.5,0,.9.2,1.4h-.2Z"/>
                <path class="cls-56" d="M95,314c3.9-4.7,7.9-9.3,11.7-14v2.2c-.8.4-1.2,1.3-1.8,2-2.7,3.2-5.6,6.4-8.1,9.8h-2,0Z"/>
                <path class="cls-71" d="M98.8,314h-1.3c1-1.3,2.1-2.6,3.2-3.9,2.1-2.3,3.8-4.8,5.9-6.9v1.3c-1.8,1.6-3.2,3.5-4.7,5.4-1.1,1.4-2.5,2.5-3.2,4.2h0Z"/>
                <path class="cls-34" d="M101.9,314h-1.6c2.1-2.4,3.9-5.1,6.3-7.3v1.6c-1.7,1.8-3.4,3.7-4.7,5.7h0Z"/>
                <path class="cls-98" d="M106.7,303.2c-2.2,2.1-3.9,4.6-5.9,6.9-1.1,1.2-2.2,2.5-3.2,3.9h-.7c2.4-3.5,5.4-6.5,8.1-9.8.6-.7.8-1.5,1.8-2v.9h0Z"/>
                <path class="cls-21" d="M98.8,314c.8-1.6,2.2-2.8,3.2-4.2,1.5-1.9,2.9-3.8,4.7-5.4v1.3c-1,0-1.3,1-1.5,1.7-1.4,1.1-2.3,2.5-3.5,4.1-.2,0-.5.4-1,.7.2.9-.7,1.2-1.2,1.8h-.7Z"/>
                <path class="cls-88" d="M101.9,314c1.4-2.1,3-3.9,4.7-5.7v1.9c-1.4,1-2.3,2.5-3.5,3.8h-1.3,0Z"/>
                <path class="cls-55" d="M103.3,314c1.2-1.2,2.1-2.8,3.5-3.8v3.8h-3.5Z"/>
                <path class="cls-43" d="M99.4,314c.6-.5,1.4-.8,1.2-1.8.5-.3.8-.7,1-.7,1.2-1.5,2.1-3,3.5-4.1.3-.7.5-1.6,1.5-1.7v.9c-2.3,2.2-4.2,4.8-6.3,7.3h-.9Z"/>
                <path class="cls-78" d="M12.6,296.9v-1.6c7.4,6.2,14.8,12.5,22.3,18.7h-1.6c-.7-.6-1.2-1.1-1.9-1.7-4.5-3.8-9-7.6-13.5-11.4-1.7-1.4-3.2-3-5.2-4.1h0Z"/>
                <path class="cls-16" d="M12.6,300.3v-2.2c1.5.8,2.7,2.1,4,3.2,5,4.2,10,8.4,15,12.6h-2.5c-3.8-3.1-7.4-6.3-11.3-9.4-1.8-1.4-3.3-3.1-5.3-4.2h0Z"/>
                <path class="cls-15" d="M12.6,300.3c2,1,3.6,2.8,5.3,4.2,3.8,3.1,7.5,6.3,11.3,9.4h-2.5c0,0-.2-.3-.3-.4-4.6-3.8-9.1-7.5-13.7-11.3v-1.9h0Z"/>
                <path class="cls-95" d="M31.5,314c-5-4.2-10-8.4-15-12.6-1.3-1.1-2.5-2.4-4-3.2v-1.3c2,1,3.5,2.7,5.2,4.1,4.6,3.8,9,7.5,13.5,11.4.7.6,1.3,1.1,1.9,1.7h-1.6,0Z"/>
                <path class="cls-57" d="M12.6,302.2c4.6,3.8,9.1,7.5,13.7,11.3,0,0,.2.3.3.4h-1.3c-.3-.4-.6-.8-.9-1-3.9-3.2-7.8-6.5-11.7-9.7v-.9h0Z"/>
                <path class="cls-24" d="M12.6,306.4v-1.3c1,.8,2.2,1.6,3.2,2.5,2.4,2.1,5.1,3.9,7.3,6.3h-1.3c-3.1-2.4-5.9-5.3-9.2-7.5h0Z"/>
                <path class="cls-11" d="M12.6,309.5v-1.9c2.4,2.1,5.1,4,7.3,6.3h-2.2c-1.5-1.6-3.4-2.9-5.1-4.3h0Z"/>
                <path class="cls-10" d="M19.8,314c-2.3-2.3-4.9-4.1-7.3-6.3v-1.3c3.2,2.3,6,5.1,9.2,7.5h-1.9Z"/>
                <path class="cls-94" d="M12.6,303.2c3.9,3.2,7.9,6.5,11.7,9.7.4.3.7.8.9,1h-.9c-3.9-3.3-7.8-6.5-11.7-9.8v-.9h0Z"/>
                <path class="cls-63" d="M12.6,304.2c3.9,3.3,7.8,6.5,11.7,9.8h-1.3c-2.2-2.3-4.9-4.1-7.3-6.3-1-.9-2.1-1.7-3.2-2.5v-.9h0Z"/>
                <path class="cls-54" d="M12.6,309.5c1.6,1.5,3.6,2.7,5.1,4.3h-1.9c-.8-1.2-2.1-1.9-3.1-2.8v-1.6h0Z"/>
                <path class="cls-52" d="M12.6,311.1c1,.9,2.3,1.6,3.1,2.8h-3.1v-2.8h0Z"/>
              </g>
            </g>
          </g>
          <g>
            <path class="cls-25" d="M7.8,206.5h3.4v-16.7h-3.4v-2.4h10c6.8,0,9.3,2.9,9.3,6.4s-2.3,6.6-9,6.6h-2.6v6.2h3.7v2.4H7.8v-2.4h0ZM17.7,198c3.8,0,4.7-1.6,4.7-4.2s-1-4-4.7-4h-2.3v8.2h2.3Z"/>
            <path class="cls-25" d="M28.1,201.5c0-4.7,3.2-8,7.9-8s7.9,3.2,7.9,7.9-3.2,8-7.9,8-7.9-3.2-7.9-7.9h0ZM39.6,201.5c0-4.1-1.4-5.9-3.8-5.9s-3.6,1.8-3.6,5.9,1.3,5.9,3.8,5.9,3.6-1.8,3.6-5.9Z"/>
            <path class="cls-25" d="M60.2,196.2l3.1,9.8h.2l2.9-9.8h-2v-2.4h6.5v2.4h-2l-4.3,13h-3.8l-2.8-8.3-3.2,8.3h-3.8l-4.2-13h-2.1v-2.4h8.3v2.4h-2.3l3,9.8h.2l3.1-8.2-.5-1.6h-2v-2.4h8.2v2.4h-2.5Z"/>
            <path class="cls-25" d="M75.6,201.8c.2,3.7,1.7,5.3,4.4,5.3s3.1-.8,3.9-2.7h2c-.8,3.2-3,5.1-6.8,5.1s-7.6-3.3-7.6-7.8,3.2-8.1,7.7-8.1,6.9,3.8,6.9,8.3h-10.5ZM75.6,200.1h6.6c-.2-3-1.1-4.6-3.2-4.6s-3.1,1.2-3.4,4.6Z"/>
            <path class="cls-25" d="M88.2,206.5h2.3v-10.3h-2.3v-2.4h6v3.7c.8-2.6,2.7-3.9,4.6-3.9s2.8,1.3,2.8,2.8-.9,2.4-2.3,2.4-2.3-.8-2.3-2.1,0-.3,0-.4c-1.2,0-2.3,1.4-2.8,3.3v7h2.9v2.4h-9v-2.4h0Z"/>
            <path class="cls-25" d="M106.5,201.8c.2,3.7,1.7,5.3,4.4,5.3s3.1-.8,3.9-2.7h2c-.8,3.2-3,5.1-6.8,5.1s-7.6-3.3-7.6-7.8,3.2-8.1,7.7-8.1,6.9,3.8,6.9,8.3h-10.5ZM106.5,200.1h6.6c-.2-3-1.1-4.6-3.2-4.6s-3.1,1.2-3.4,4.6Z"/>
            <path class="cls-25" d="M121.4,207.8c-1.4-1.4-2.2-3.7-2.2-6.2s.8-5,2.3-6.4c1-1,2.4-1.6,4-1.6s3.7,1,4.6,2.6v-7.2h-2.4v-2.5h6.3v20.2h2.2v2.4h-5.8v-3.2c-1,2.3-2.8,3.5-5.1,3.5s-3-.7-3.9-1.6h0ZM130.4,201.4c0-2.9-1-5.4-3.6-5.4s-3.5,2-3.5,5.5,1.4,5.4,3.5,5.4,3.6-2.2,3.6-5.5Z"/>
            <path class="cls-25" d="M145.1,188.9h-2.3v-2.5h6.2v10.4c1-2.1,2.8-3.4,5-3.4s3,.6,3.9,1.5c1.4,1.4,2.1,3.6,2.1,6.4s-.8,4.9-2.2,6.3-2.5,1.7-4,1.7c-2.5,0-4.1-1.3-5.2-3.2l-1.2,3.1h-2.1v-20.3h-.2ZM155.7,201.5c0-3.5-1-5.4-3.2-5.4s-3.8,2.4-3.8,5.7,1.7,5.3,3.8,5.3,3.1-2,3.1-5.5h0Z"/>
            <path class="cls-25" d="M165.9,211.4c0,.4-.2.8-.3,1.1,1.3-.2,2.2-.8,3.2-3.5l-5.6-12.9h-2.1v-2.4h8.6v2.4h-2.4l3.5,8.8,3.5-8.8h-2.1v-2.4h6.5v2.4h-1.9l-5.3,12.4c-1.8,4.2-3.7,6-6.5,6s-3.7-1.2-3.7-3,.9-2.4,2.3-2.4,2.2,1.1,2.2,2.2h0Z"/>
            <path class="cls-25" d="M180.2,197.5c0-1.3,1-2.4,2.5-2.4s2.4,1,2.4,2.4-1,2.4-2.5,2.4-2.5-1-2.5-2.4h0ZM180.2,207.1c0-1.3,1-2.4,2.5-2.4s2.4,1,2.4,2.4-1,2.4-2.5,2.4-2.5-1-2.5-2.4h0Z"/>
          </g>
        </g>
        <g class="cls-37">
          <text class="cls-38" transform="translate(7.8 118.8)"><tspan x="0" y="0">Collection</tspan></text>
        </g>
      </g>
    </g>
  </g>
</svg>