<?xml version="1.0" encoding="utf-8"?>
<!-- Generator: Adobe Illustrator 26.3.1, SVG Export Plug-In . SVG Version: 6.00 Build 0)  -->
<svg version="1.1" id="Layer_1_copy" xmlns="http://www.w3.org/2000/svg" xmlns:xlink="http://www.w3.org/1999/xlink" x="0px"
	 y="0px" viewBox="0 0 250 125" style="enable-background:new 0 0 250 125;" xml:space="preserve">
<style type="text/css">
	.st0{fill:url(#SVGID_1_);}
	.st1{fill:url(#SVGID_00000110430876092998961100000006648389944901052061_);}
	.st2{fill:#10294B;}
	.st3{font-family:'Sentinel-Semibold';}
	.st4{font-size:30.3165px;}
</style>
<g>
	<g>
		<g>
			
				<linearGradient id="SVGID_1_" gradientUnits="userSpaceOnUse" x1="195.9649" y1="115.7854" x2="168.9282" y2="41.5026" gradientTransform="matrix(0.9846 -0.175 0.175 0.9846 5.5013 3.7809)">
				<stop  offset="0" style="stop-color:#A7DCE0"/>
				<stop  offset="1" style="stop-color:#5598B0"/>
			</linearGradient>
			<path class="st0" d="M192.39,85.13c-0.36,0.34-0.67,0.64-0.98,0.94c-0.49,0.47-0.89,1-1.21,1.59c-0.25,0.47-0.49,0.95-0.68,1.45
				c-0.36,0.92-0.74,1.84-1.02,2.79c-0.23,0.81-0.34,1.66-0.48,2.49c-0.1,0.57-0.18,1.14-0.24,1.71c-0.1,1-0.2,1.99-0.27,2.99
				c-0.04,0.6,0.01,1.2-0.04,1.8c-0.02,0.2-0.04,0.38,0.02,0.57c0.01,0.04-0.08,0.17-0.1,0.16c-0.09-0.01-0.21-0.05-0.25-0.11
				c-0.53-0.74-1.05-1.49-1.57-2.25c-0.47-0.69-0.94-1.38-1.39-2.07c-0.46-0.71-0.9-1.43-1.36-2.14c-0.42-0.66-0.87-1.3-1.27-1.97
				c-0.42-0.71-0.81-1.44-1.2-2.16c-0.22-0.4-0.43-0.8-0.63-1.22c-0.36-0.77-0.69-1.56-1.05-2.33c-0.15-0.31-0.33-0.6-0.51-0.9
				c-0.42-0.71-0.87-1.37-1.45-1.97c-0.84-0.88-1.55-1.89-2.31-2.86c-0.48-0.62-0.97-1.25-1.41-1.91c-0.65-0.98-1.27-1.99-1.89-3
				c-0.64-1.05-1.29-2.1-1.89-3.18c-0.58-1.03-1.13-2.07-1.65-3.13c-0.45-0.92-0.86-1.85-1.26-2.79c-0.3-0.71-0.57-1.43-0.84-2.15
				c-0.28-0.76-0.57-1.52-0.82-2.29c-0.14-0.43-0.2-0.89-0.31-1.33c-0.13-0.5-0.3-1-0.43-1.51c-0.32-1.28-0.55-2.57-0.6-3.89
				c-0.02-0.66-0.15-1.32-0.2-1.98c-0.04-0.52-0.04-1.04-0.06-1.56c-0.02-0.48-0.05-0.96-0.04-1.44c0.01-0.59,0.06-1.18,0.09-1.77
				c0.02-0.44,0.01-0.89,0.06-1.33c0.06-0.63,0.13-1.25,0.24-1.87c0.16-0.9,0.32-1.79,0.54-2.68c0.22-0.86,0.51-1.71,0.76-2.56
				c0.18-0.58,0.33-1.16,0.53-1.72c0.43-1.23,0.86-2.46,1.34-3.67c0.4-1.02,0.87-2.01,1.32-3c0.18-0.39,0.4-0.77,0.61-1.15
				c0.29-0.52,0.56-1.04,0.88-1.54c0.52-0.83,1.07-1.64,1.61-2.45c0.38-0.58,0.76-1.16,1.17-1.71c0.39-0.53,0.82-1.03,1.23-1.54
				c0.31-0.37,0.62-0.74,0.94-1.09c0.18-0.19,0.39-0.34,0.64-0.56c-0.3-0.11-0.51-0.21-0.73-0.27c-0.93-0.27-1.86-0.53-2.79-0.79
				c-0.49-0.14-0.99-0.25-1.47-0.44c-0.18-0.07-0.34-0.28-0.42-0.46c-0.03-0.07,0.18-0.27,0.31-0.37c1.21-0.96,2.64-1.5,4.08-2.01
				c1.15-0.41,2.31-0.79,3.48-1.11c0.82-0.22,1.67-0.32,2.51-0.48c0.7-0.13,1.41-0.23,2.09-0.43c0.39-0.12,0.74-0.4,1.1-0.62
				c0.41-0.25,0.81-0.54,1.23-0.78c0.54-0.31,1.09-0.61,1.64-0.89c0.94-0.48,1.87-0.99,2.84-1.43c1.26-0.57,2.53-1.1,3.82-1.59
				c1.14-0.43,2.3-0.83,3.47-1.16c1.26-0.36,2.54-0.66,3.82-0.94c1.04-0.23,2.09-0.44,3.14-0.6c0.87-0.14,1.74-0.2,2.62-0.29
				c0.85-0.1,1.7-0.22,2.55-0.29c0.9-0.07,1.8-0.1,2.71-0.12c0.98-0.03,1.97-0.07,2.95-0.03c1.12,0.04,2.24,0.13,3.36,0.27
				c0.5,0.06,0.99,0.28,1.45,0.48c0.49,0.21,0.69,0.7,0.86,1.15c0.37,0.98,0.11,1.88-0.48,2.7c-0.52,0.73-1.05,1.47-1.61,2.17
				c-0.47,0.58-1,1.11-1.51,1.66c-0.72,0.78-1.4,1.6-2.17,2.33c-0.92,0.87-1.9,1.69-2.88,2.5c-0.94,0.78-1.92,1.51-2.88,2.27
				c-0.98,0.78-1.95,1.59-2.94,2.36c-0.65,0.51-1.33,0.96-1.99,1.46c-0.46,0.35-0.9,0.74-1.33,1.12c-0.37,0.33-0.74,0.68-1.09,1.04
				c-0.34,0.34-0.66,0.7-0.98,1.06c-0.04,0.05-0.08,0.12-0.08,0.18c-0.04,0.65-0.07,1.3-0.1,1.96c-0.02,0.53-0.03,1.07-0.03,1.6
				c0,0.75,0.02,1.49,0.01,2.24c-0.01,0.75-0.04,1.49-0.07,2.24c-0.02,0.53-0.06,1.07-0.08,1.6c-0.03,0.59-0.06,1.18-0.07,1.77
				c-0.01,0.48,0.03,0.96,0.02,1.43c-0.02,0.78-0.06,1.55-0.1,2.33c0,0.06-0.02,0.11-0.02,0.17c-0.03,0.54-0.4,0.71-0.88,0.44
				c-0.9-0.51-1.54-1.28-2.17-2.06c-0.54-0.65-1.06-1.32-1.56-2c-0.2-0.27-0.32-0.61-0.48-0.91c-0.32-0.62-0.65-1.24-0.94-1.87
				c-0.19-0.42-0.32-0.87-0.49-1.31c-0.21-0.53-0.44-1.06-0.71-1.7c-0.35,0.29-0.67,0.5-0.94,0.77c-0.88,0.9-1.76,1.81-2.61,2.74
				c-0.61,0.67-1.21,1.35-1.75,2.07c-1,1.33-1.95,2.69-2.92,4.04c-0.32,0.44-0.65,0.88-0.94,1.35c-0.27,0.42-0.49,0.87-0.74,1.31
				c-0.3,0.55-0.62,1.08-0.9,1.64c-0.37,0.74-0.72,1.48-1.05,2.24c-0.38,0.86-0.79,1.72-1.1,2.61c-0.31,0.89-0.55,1.81-0.78,2.73
				c-0.25,1.02-0.48,2.04-0.67,3.07c-0.15,0.82-0.23,1.66-0.32,2.49c-0.05,0.5-0.11,1-0.1,1.5c0,0.73,0.05,1.46,0.09,2.19
				c0.03,0.48,0.03,0.96,0.12,1.43c0.21,1.1,0.25,2.23,0.61,3.31c0.26,0.79,0.41,1.61,0.62,2.41c0.15,0.54,0.32,1.07,0.5,1.6
				c0.29,0.85,0.57,1.71,0.91,2.53c0.25,0.6,0.61,1.16,0.9,1.75c0.17,0.34,0.33,0.68,0.44,1.04c0.11,0.36,0.4,0.49,0.69,0.64
				c0.51,0.26,1.02,0.5,1.54,0.73c0.28,0.13,0.57,0.23,0.86,0.32c0.64,0.2,1.29,0.38,1.94,0.57c0.55,0.16,1.09,0.33,1.64,0.48
				c0.68,0.17,1.36,0.31,2.04,0.49C190.86,84.66,191.6,84.9,192.39,85.13z"/>
		</g>
		<g>
			
				<linearGradient id="SVGID_00000022546878807782396780000012556352087091509678_" gradientUnits="userSpaceOnUse" x1="161.5113" y1="147.9918" x2="141.9378" y2="94.2142" gradientTransform="matrix(1 -9.392570e-03 9.392570e-03 1 58.0614 -37.4299)">
				<stop  offset="6.035907e-03" style="stop-color:#BEE5E7"/>
				<stop  offset="1" style="stop-color:#7AB4CD"/>
			</linearGradient>
			<path style="fill:url(#SVGID_00000022546878807782396780000012556352087091509678_);" d="M198.28,106.95
				c0.06,0.36,0.12,0.67,0.18,0.98c0.09,0.49,0.1,0.98,0.03,1.47c-0.05,0.39-0.12,0.77-0.22,1.15c-0.18,0.7-0.35,1.41-0.6,2.09
				c-0.21,0.58-0.51,1.13-0.79,1.69c-0.19,0.38-0.38,0.75-0.59,1.12c-0.37,0.64-0.74,1.27-1.13,1.89c-0.23,0.37-0.53,0.71-0.75,1.09
				c-0.08,0.13-0.14,0.24-0.26,0.33c-0.03,0.02-0.03,0.13-0.01,0.14c0.06,0.03,0.14,0.06,0.2,0.04c0.63-0.21,1.27-0.43,1.9-0.66
				c0.57-0.21,1.15-0.41,1.72-0.63c0.58-0.22,1.15-0.46,1.73-0.69c0.53-0.21,1.07-0.4,1.6-0.62c0.55-0.24,1.1-0.5,1.64-0.76
				c0.3-0.14,0.6-0.29,0.9-0.45c0.55-0.3,1.08-0.63,1.63-0.93c0.22-0.12,0.46-0.21,0.69-0.32c0.55-0.24,1.11-0.44,1.71-0.55
				c0.88-0.16,1.74-0.46,2.6-0.71c0.56-0.16,1.11-0.32,1.66-0.53c0.81-0.3,1.61-0.63,2.41-0.97c0.83-0.35,1.67-0.69,2.49-1.07
				c0.79-0.36,1.56-0.74,2.33-1.15c0.66-0.35,1.31-0.73,1.95-1.11c0.48-0.29,0.95-0.6,1.42-0.91c0.5-0.33,0.99-0.66,1.47-1.01
				c0.27-0.2,0.5-0.44,0.76-0.65c0.3-0.24,0.61-0.47,0.9-0.71c0.74-0.62,1.43-1.29,2.03-2.05c0.3-0.38,0.66-0.72,0.97-1.09
				c0.25-0.29,0.47-0.6,0.71-0.9c0.22-0.28,0.44-0.55,0.64-0.84c0.25-0.35,0.47-0.73,0.71-1.09c0.18-0.27,0.38-0.53,0.54-0.82
				c0.23-0.4,0.46-0.8,0.66-1.21c0.29-0.6,0.58-1.2,0.83-1.82c0.24-0.6,0.43-1.23,0.65-1.85c0.14-0.42,0.3-0.83,0.43-1.25
				c0.27-0.92,0.55-1.83,0.78-2.76c0.2-0.78,0.35-1.57,0.51-2.35c0.06-0.31,0.1-0.63,0.13-0.95c0.05-0.43,0.12-0.86,0.14-1.29
				c0.05-0.71,0.07-1.43,0.1-2.15c0.02-0.51,0.04-1.01,0.04-1.52c0-0.48-0.04-0.96-0.07-1.45c-0.02-0.35-0.05-0.7-0.09-1.05
				c-0.02-0.19-0.08-0.37-0.14-0.61c0.23,0.06,0.95,0.38,1.11,0.44c0.67,0.24,1.33,0.49,2,0.73c0.35,0.13,0.7,0.28,1.06,0.37
				c0.13,0.04,0.32-0.02,0.45-0.09c0.05-0.03,0.01-0.24-0.02-0.35c-0.3-1.09-0.92-2.03-1.56-2.95c-0.51-0.74-1.03-1.46-1.59-2.16
				c-0.39-0.48-0.85-0.91-1.28-1.36c-0.36-0.38-1.32-1.19-1.64-1.6c-0.18-0.24-1.15-2.5-1.35-2.91c-0.35-0.69-0.68-1.39-1.07-2.07
				c-0.5-0.88-1.03-1.74-1.58-2.59c-0.49-0.75-2.79-3.67-3.42-4.39c-0.52-0.59-3.95-3.87-4.42-4.28c-0.5-0.43-2.37-1.98-2.97-2.38
				c-0.68-0.46-1.71-1.03-2.43-1.43c-0.32-0.18-1.49-0.56-2.14-0.1c-0.64,0.42-0.99,1.35-0.99,2.09c0.02,1.82,0.53,4.96,0.67,5.73
				c0.17,0.91,1.12,4.45,1.36,5.31c0.25,0.89,1.73,6.35,1.79,6.71c0.05,0.35,0.22,0.76,0.26,1.11c0,0.05,0.24,0.87,0.21,0.91
				c-0.26,0.4-1.43,1.86-2.23,3.04c-0.72,1.07-1.55,2.5-1.97,3.21c-0.99,2.11-0.66,2.46-0.26,2.51c0.75,0.08,1.77-0.17,2.48-0.35
				c0.6-0.16,1.15-0.38,1.74-0.57c0.24-0.08,0.81-0.3,1.03-0.42c0.46-0.23,0.5-0.2,0.93-0.46c0.09,0.32,0.19,0.6,0.23,0.87
				c0.13,0.92,0.15,0.85,0.26,1.77c0.07,0.66,0.13,1.32,0.14,1.98c0.02,1.22,0,2.43-0.01,3.65c0,0.4,0,0.8-0.02,1.2
				c-0.02,0.37-0.08,0.73-0.13,1.1c-0.06,0.45-0.1,0.91-0.17,1.36c-0.1,0.6-0.21,1.19-0.34,1.78c-0.14,0.68-0.27,1.36-0.47,2.03
				c-0.2,0.66-0.45,1.31-0.71,1.96c-0.29,0.71-0.59,1.42-0.93,2.11c-0.27,0.55-0.58,1.08-0.88,1.61c-0.18,0.32-0.37,0.64-0.58,0.93
				c-0.32,0.43-0.66,0.85-1,1.26c-0.22,0.27-0.43,0.56-0.68,0.8c-0.6,0.57-1.11,1.22-1.79,1.7c-0.49,0.36-0.94,0.78-1.41,1.16
				c-0.32,0.26-0.65,0.5-0.98,0.73c-0.54,0.38-1.07,0.77-1.63,1.11c-0.41,0.25-0.86,0.43-1.29,0.65c-0.24,0.13-0.49,0.26-0.71,0.43
				c-0.22,0.16-0.45,0.12-0.68,0.08c-0.41-0.07-0.82-0.14-1.23-0.23c-0.22-0.05-0.44-0.11-0.65-0.18c-0.47-0.16-0.93-0.33-1.4-0.49
				c-0.39-0.14-0.79-0.27-1.18-0.42c-0.48-0.19-0.94-0.41-1.42-0.59C199.39,107.33,198.85,107.15,198.28,106.95z"/>
		</g>
	</g>
	<text transform="matrix(1 0 0 1 10.3833 42.3857)"><tspan x="0" y="0" class="st2 st3 st4">Division </tspan><tspan x="44.9" y="25.26" class="st2 st3 st4">of </tspan><tspan x="15.75" y="50.53" class="st2 st3 st4">Fishes</tspan></text>
</g>
</svg>
