<?xml version="1.0" encoding="UTF-8"?>
<svg id="Layer_1_copy" data-name="Layer 1 copy" xmlns="http://www.w3.org/2000/svg" viewBox="0 0 160.6 68.02">
  <defs>
    <style>
      .cls-1 {
        fill: #10294b;
        stroke-width: 0px;
      }
    </style>
  </defs>
  <path class="cls-1" d="m53.21,11.31h1.41V3.69h-1.41v-1.12h4.36l2.34,6.78h.06l2.31-6.78h4.29v1.12h-1.48v7.62h1.48v1.12h-4.69v-1.12h1.28V3.89h-.14l-3.04,8.55h-.88l-3.12-8.55h-.13v7.42h1.33v1.12h-3.96v-1.12Z"/>
  <path class="cls-1" d="m67.84,8.03h3.85v1.29h-3.85v-1.29Z"/>
  <path class="cls-1" d="m72.89,11.31h1.53V3.69h-1.53v-1.12h4.57c3.09,0,4.23,1.32,4.23,2.91,0,1.5-1.02,3.02-4.12,3.02h-1.21v2.82h1.68v1.12h-5.15v-1.12Zm4.53-3.88c1.74,0,2.15-.75,2.15-1.94,0-1.06-.46-1.81-2.15-1.81h-1.06v3.75h1.06Z"/>
  <path class="cls-1" d="m87.77,9.1h-3.48l-.78,2.21h1.25v1.12h-3.61v-1.12h1.08l3.31-8.8h1.92l3.19,8.8h1.29v1.12h-4.88v-1.12h1.47l-.77-2.21Zm-3.12-1h2.77l-1.32-3.88h-.06l-1.4,3.88Z"/>
  <path class="cls-1" d="m92.17,11.31h1.53V3.69h-1.53v-1.12h4.74c3.08,0,3.81,1.17,3.81,2.38,0,.89-.6,1.94-2.6,2.27v.07c2.06.18,3.02,1.12,3.02,2.37,0,1.46-.93,2.77-4.19,2.77h-4.78v-1.12Zm4.59-4.56c1.5,0,1.96-.66,1.96-1.64s-.38-1.42-1.95-1.42h-1.14v3.06h1.12Zm0,4.56c1.77,0,2.37-.51,2.37-1.83,0-1-.65-1.68-2.4-1.68h-1.1v3.51h1.12Z"/>
  <path class="cls-1" d="m102.17,11.31h1.54V3.69h-1.54v-1.12h5.02v1.12h-1.54v7.62h1.54v1.12h-5.02v-1.12Z"/>
  <path class="cls-1" d="m3.74,34.53v-5.58h-1.38v-1.12h4.74v1.12h-1.42v5.16c0,1.88.88,2.56,2.58,2.56.77,0,1.29-.24,1.7-.65.48-.48.61-1.15.61-2.25v-4.83h-1.46v-1.12h4.02v1.12h-1.33v5.55c0,1.83-1.33,3.44-3.99,3.44s-4.06-1.35-4.06-3.41Z"/>
  <path class="cls-1" d="m13.76,36.59h1.05v-4.73h-1.05v-1.11h2.73v1.79c.66-1.23,1.44-1.89,2.56-1.89,1.28,0,1.97.9,1.97,2.28v3.66h1.06v1.11h-3.73v-1.11h.93v-3.24c0-.5-.12-.89-.36-1.12-.18-.2-.44-.29-.77-.29-.78,0-1.59.77-1.59,2v2.65h.92v1.11h-3.72v-1.11Z"/>
  <path class="cls-1" d="m22.85,36.59h1.2v-4.73h-1.2v-1.11h2.95v5.83h1.2v1.11h-4.15v-1.11Zm.84-8.17c0-.66.46-1.14,1.14-1.14s1.12.44,1.12,1.1-.45,1.14-1.12,1.14-1.14-.45-1.14-1.1Z"/>
  <path class="cls-1" d="m28.19,31.86h-.94v-1.11h3.96v1.11h-1.12l1.54,4.44h.06l1.59-4.44h-.93v-1.11h2.97v1.11h-.87l-2.33,5.91h-1.68l-2.25-5.91Z"/>
  <path class="cls-1" d="m37.51,34.4c.06,1.69.76,2.38,2.01,2.38.83,0,1.42-.36,1.8-1.25h.9c-.35,1.47-1.38,2.31-3.09,2.31-2.19,0-3.48-1.5-3.48-3.54s1.48-3.68,3.51-3.68c2.19,0,3.18,1.76,3.1,3.77h-4.75Zm.02-.79h3c-.09-1.35-.51-2.08-1.45-2.08-.85,0-1.43.55-1.54,2.08Z"/>
  <path class="cls-1" d="m43.25,36.59h1.05v-4.73h-1.05v-1.11h2.73v1.69c.38-1.21,1.24-1.8,2.1-1.8.81,0,1.29.58,1.29,1.26,0,.61-.44,1.11-1.02,1.11s-1.03-.35-1.03-.96c0-.06.01-.14.03-.2-.56,0-1.04.63-1.29,1.5v3.23h1.31v1.11h-4.11v-1.11Z"/>
  <path class="cls-1" d="m50,35.24h1.02c.47,1.04,1.33,1.74,2.23,1.74.74,0,1.05-.35,1.05-.84,0-.57-.42-.84-1.8-1.2-1.67-.45-2.4-1.02-2.4-2.17s.98-2.13,2.46-2.13c.78,0,1.44.29,1.81.81l.18-.81h1v2.39h-1c-.51-.95-1.05-1.54-1.92-1.54-.54,0-.98.28-.98.79,0,.55.48.82,1.74,1.15,1.57.42,2.44.93,2.44,2.19,0,1.11-.93,2.23-2.55,2.23-.95,0-1.67-.4-2.12-.94l-.19.93h-.99v-2.59Z"/>
  <path class="cls-1" d="m56.83,36.59h1.2v-4.73h-1.2v-1.11h2.95v5.83h1.2v1.11h-4.15v-1.11Zm.84-8.17c0-.66.46-1.14,1.14-1.14s1.12.44,1.12,1.1-.45,1.14-1.12,1.14-1.14-.45-1.14-1.1Z"/>
  <path class="cls-1" d="m64.34,28.95v1.88h2.25v1.03h-2.25v3.84c0,.66.2,1.01.78,1.01.43,0,.72-.39,1-1.25l.76.27c-.36,1.48-1.14,2.11-2.28,2.11-1.35,0-2.02-.75-2.02-2.08v-3.9h-1.3v-1.03h1.33v-1.68l1.72-.19Z"/>
  <path class="cls-1" d="m69.1,38.81c0,.18-.06.39-.12.51.6-.1.98-.41,1.44-1.59l-2.58-5.86h-.94v-1.11h3.96v1.11h-1.12l1.59,4.04,1.59-4.04h-.93v-1.11h2.95v1.11h-.87l-2.39,5.65c-.82,1.94-1.67,2.73-2.97,2.73-1.04,0-1.65-.54-1.65-1.35,0-.6.44-1.1,1.05-1.1s.99.51.99,1Z"/>
  <path class="cls-1" d="m78.04,34.26c0-2.13,1.48-3.63,3.58-3.63s3.58,1.44,3.58,3.57-1.48,3.64-3.58,3.64-3.58-1.46-3.58-3.58Zm5.25-.03c0-1.9-.63-2.7-1.72-2.7s-1.6.81-1.6,2.7.61,2.71,1.72,2.71,1.6-.82,1.6-2.71Z"/>
  <path class="cls-1" d="m86.18,36.59h1.06v-4.73h-1.32v-1.03h1.32v-.3c0-2.28,1.53-3.25,3.07-3.25,1.35,0,2.06.62,2.06,1.4,0,.54-.39,1-.95,1-.6,0-.99-.31-.99-.96,0-.16.06-.4.15-.55-.1-.06-.24-.09-.45-.09-.7,0-1.2.46-1.2,2.19v.57h2.04v1.03h-2v4.73h1.53v1.11h-4.33v-1.11Z"/>
  <path class="cls-1" d="m94.24,36.57h1.41v-7.62h-1.41v-1.12h4.36l2.34,6.78h.06l2.31-6.78h4.29v1.12h-1.48v7.62h1.48v1.12h-4.69v-1.12h1.28v-7.42h-.14l-3.04,8.55h-.88l-3.12-8.55h-.13v7.42h1.33v1.12h-3.96v-1.12Z"/>
  <path class="cls-1" d="m108.62,36.59h1.2v-4.73h-1.2v-1.11h2.95v5.83h1.2v1.11h-4.15v-1.11Zm.84-8.17c0-.66.46-1.14,1.14-1.14s1.12.44,1.12,1.1-.45,1.14-1.12,1.14-1.14-.45-1.14-1.1Z"/>
  <path class="cls-1" d="m113.5,34.34c0-2.17,1.54-3.71,3.69-3.71,1.72,0,2.8,1.11,2.8,2.07,0,.73-.38,1.26-1.06,1.26-.65,0-1.02-.45-1.02-.99,0-.44.33-.79.62-.92-.21-.31-.63-.56-1.29-.56-1.02,0-1.85.94-1.85,2.67,0,1.6.68,2.58,1.98,2.58.83,0,1.46-.48,1.77-1.4h.92c-.33,1.53-1.41,2.49-3.04,2.49-2.22,0-3.51-1.47-3.51-3.51Z"/>
  <path class="cls-1" d="m120.77,36.59h1.06v-8.05h-1.06v-1.17h2.8v5.05c.67-1.2,1.44-1.77,2.49-1.77,1.27,0,1.96.9,1.96,2.28v3.66h1.06v1.11h-3.73v-1.11h.93v-3.24c0-.5-.12-.89-.36-1.12-.18-.2-.44-.29-.75-.29-.79,0-1.6.77-1.6,2v2.65h.92v1.11h-3.72v-1.11Z"/>
  <path class="cls-1" d="m129.86,36.59h1.2v-4.73h-1.2v-1.11h2.95v5.83h1.2v1.11h-4.15v-1.11Zm.84-8.17c0-.66.46-1.14,1.14-1.14s1.12.44,1.12,1.1-.45,1.14-1.12,1.14-1.14-.45-1.14-1.1Z"/>
  <path class="cls-1" d="m137.89,35.09c-.31,0-.65-.04-.92-.04-.48,0-.72.28-.72.57,0,.33.26.56,1.04.56h1.86c1.69,0,2.35.72,2.35,1.74,0,1.31-1.2,2.34-3.88,2.34-2.02,0-3.15-.61-3.15-1.54,0-.65.6-1.2,1.53-1.33v-.07c-.82-.23-1.17-.71-1.17-1.25,0-.6.65-1.19,1.5-1.32-.85-.31-1.4-.9-1.4-1.86,0-1.38,1.15-2.24,2.91-2.24.42,0,.82.06,1.17.17.4-.85,1.09-1.45,1.95-1.45.72,0,1.11.42,1.11.94,0,.45-.33.82-.81.82-.45,0-.72-.28-.72-.7,0-.04,0-.1.02-.17-.3-.02-.66.3-.9.81.69.39,1.12,1,1.12,1.77,0,1.46-1.15,2.27-2.89,2.27Zm2.08,3.24c0-.42-.29-.72-1.11-.72h-1.74c-.87,0-1.26.31-1.26.85,0,.48.39.91,1.9.91,1.41,0,2.21-.4,2.21-1.05Zm-.93-5.46c0-.9-.44-1.5-1.23-1.5s-1.15.46-1.15,1.51.45,1.48,1.24,1.48,1.14-.49,1.14-1.5Z"/>
  <path class="cls-1" d="m142.19,35.99c0-.48.16-.9.51-1.25.51-.51,1.25-.73,2.71-.94.85-.12.98-.13.98-.36v-.67c0-.89-.42-1.23-1.32-1.23-.41,0-.74.07-1.05.25.24.13.41.42.41.75,0,.48-.38.87-.96.87-.66,0-1-.46-1-.96,0-1.17,1.41-1.81,3.03-1.81,1.8,0,2.64.8,2.64,2.25v3.36c0,.33.12.47.42.47.2,0,.38-.2.51-.62l.61.29c-.33.99-.85,1.4-1.68,1.4-.72,0-1.35-.39-1.4-1.32h-.08c-.42.89-1.32,1.35-2.26,1.35-1.26,0-2.07-.73-2.07-1.81Zm4.2-.73v-.98c-.14.06-.3.09-.67.15-1.29.21-1.68.45-1.68,1.25,0,.6.31,1.04,1.04,1.04.66,0,1.32-.6,1.32-1.46Z"/>
  <path class="cls-1" d="m149.87,36.59h1.05v-4.73h-1.05v-1.11h2.73v1.79c.66-1.23,1.44-1.89,2.56-1.89,1.28,0,1.97.9,1.97,2.28v3.66h1.06v1.11h-3.73v-1.11h.93v-3.24c0-.5-.12-.89-.36-1.12-.18-.2-.44-.29-.77-.29-.78,0-1.59.77-1.59,2v2.65h.92v1.11h-3.72v-1.11Z"/>
  <path class="cls-1" d="m.42,61.84h1.53v-7.62H.42v-1.12h4.57c3.09,0,4.23,1.32,4.23,2.91,0,1.5-1.02,3.02-4.12,3.02h-1.21v2.82h1.68v1.12H.42v-1.12Zm4.53-3.88c1.74,0,2.15-.75,2.15-1.94,0-1.06-.46-1.81-2.15-1.81h-1.06v3.75h1.06Z"/>
  <path class="cls-1" d="m9.72,61.25c0-.48.17-.9.51-1.25.51-.51,1.25-.73,2.71-.94.85-.12.98-.13.98-.36v-.67c0-.89-.42-1.23-1.32-1.23-.41,0-.74.07-1.05.25.24.13.41.42.41.75,0,.48-.38.87-.96.87-.66,0-1-.46-1-.96,0-1.17,1.41-1.81,3.03-1.81,1.8,0,2.64.8,2.64,2.25v3.36c0,.33.12.47.42.47.2,0,.38-.2.51-.62l.61.29c-.33.99-.85,1.4-1.68,1.4-.72,0-1.35-.39-1.4-1.32h-.08c-.42.89-1.32,1.35-2.26,1.35-1.26,0-2.07-.73-2.07-1.81Zm4.2-.73v-.98c-.14.06-.3.09-.68.15-1.29.21-1.68.45-1.68,1.25,0,.6.31,1.04,1.04,1.04.66,0,1.32-.6,1.32-1.46Z"/>
  <path class="cls-1" d="m19.99,54.22v1.88h2.25v1.03h-2.25v3.84c0,.66.2,1.01.78,1.01.43,0,.72-.39,1-1.25l.76.27c-.36,1.48-1.14,2.11-2.28,2.11-1.35,0-2.02-.75-2.02-2.08v-3.9h-1.3v-1.03h1.33v-1.68l1.72-.19Z"/>
  <path class="cls-1" d="m22.96,61.85h1.06v-8.05h-1.06v-1.17h2.8v5.05c.67-1.2,1.44-1.77,2.49-1.77,1.27,0,1.96.9,1.96,2.28v3.66h1.06v1.11h-3.73v-1.11h.93v-3.24c0-.5-.12-.89-.36-1.12-.18-.2-.44-.29-.75-.29-.79,0-1.6.77-1.6,2v2.65h.92v1.11h-3.72v-1.11Z"/>
  <path class="cls-1" d="m32.01,59.53c0-2.13,1.48-3.63,3.58-3.63s3.58,1.44,3.58,3.57-1.48,3.64-3.58,3.64-3.58-1.46-3.58-3.58Zm5.25-.03c0-1.9-.63-2.7-1.72-2.7s-1.6.81-1.6,2.7.61,2.71,1.72,2.71,1.6-.82,1.6-2.71Z"/>
  <path class="cls-1" d="m43.3,60.35c-.31,0-.65-.04-.92-.04-.48,0-.72.28-.72.57,0,.33.26.56,1.04.56h1.86c1.69,0,2.35.72,2.35,1.74,0,1.31-1.2,2.34-3.88,2.34-2.02,0-3.15-.61-3.15-1.54,0-.65.6-1.2,1.53-1.33v-.07c-.82-.23-1.17-.71-1.17-1.25,0-.6.65-1.19,1.5-1.32-.85-.31-1.4-.9-1.4-1.86,0-1.38,1.15-2.24,2.91-2.24.42,0,.83.06,1.17.17.4-.85,1.09-1.45,1.95-1.45.72,0,1.11.42,1.11.94,0,.45-.33.82-.81.82-.45,0-.72-.28-.72-.7,0-.04,0-.1.02-.17-.3-.02-.66.3-.9.81.69.39,1.12,1,1.12,1.77,0,1.46-1.15,2.27-2.89,2.27Zm2.08,3.24c0-.42-.29-.72-1.11-.72h-1.74c-.87,0-1.26.31-1.26.85,0,.48.39.91,1.9.91,1.41,0,2.21-.4,2.21-1.05Zm-.93-5.46c0-.9-.44-1.5-1.23-1.5s-1.15.46-1.15,1.51.45,1.48,1.24,1.48,1.14-.49,1.14-1.5Z"/>
  <path class="cls-1" d="m49.36,59.66c.06,1.69.77,2.38,2.01,2.38.83,0,1.42-.36,1.8-1.25h.9c-.35,1.47-1.38,2.31-3.09,2.31-2.19,0-3.48-1.5-3.48-3.54s1.48-3.68,3.51-3.68c2.19,0,3.18,1.76,3.1,3.77h-4.75Zm.02-.79h3c-.09-1.35-.51-2.08-1.45-2.08-.85,0-1.43.55-1.54,2.08Z"/>
  <path class="cls-1" d="m55.11,61.85h1.05v-4.73h-1.05v-1.11h2.73v1.79c.66-1.23,1.44-1.89,2.56-1.89,1.28,0,1.97.9,1.97,2.28v3.66h1.06v1.11h-3.73v-1.11h.93v-3.24c0-.5-.12-.89-.36-1.12-.18-.2-.44-.29-.77-.29-.78,0-1.59.77-1.59,2v2.65h.92v1.11h-3.72v-1.11Z"/>
  <path class="cls-1" d="m66.78,61.84h1.53v-7.62h-1.53v-1.12h4.74c3.08,0,3.81,1.17,3.81,2.38,0,.89-.6,1.94-2.6,2.27v.07c2.06.18,3.02,1.12,3.02,2.37,0,1.46-.93,2.77-4.19,2.77h-4.78v-1.12Zm4.59-4.56c1.5,0,1.96-.66,1.96-1.64s-.38-1.42-1.95-1.42h-1.14v3.06h1.12Zm0,4.56c1.77,0,2.37-.51,2.37-1.83,0-1-.65-1.68-2.4-1.68h-1.1v3.51h1.12Z"/>
  <path class="cls-1" d="m76.74,61.85h1.2v-4.73h-1.2v-1.11h2.95v5.83h1.2v1.11h-4.15v-1.11Zm.84-8.17c0-.66.46-1.14,1.14-1.14s1.12.44,1.12,1.1-.45,1.14-1.12,1.14-1.14-.45-1.14-1.1Z"/>
  <path class="cls-1" d="m81.61,59.53c0-2.13,1.48-3.63,3.58-3.63s3.58,1.44,3.58,3.57-1.48,3.64-3.58,3.64-3.58-1.46-3.58-3.58Zm5.25-.03c0-1.9-.63-2.7-1.72-2.7s-1.6.81-1.6,2.7.61,2.71,1.72,2.71,1.6-.82,1.6-2.71Z"/>
  <path class="cls-1" d="m89.76,61.85h1.05v-4.73h-1.05v-1.11h2.73v1.69c.38-1.21,1.24-1.8,2.1-1.8.81,0,1.29.58,1.29,1.26,0,.61-.44,1.11-1.02,1.11s-1.03-.35-1.03-.96c0-.06.01-.14.03-.2-.56,0-1.04.63-1.29,1.5v3.23h1.31v1.11h-4.11v-1.11Z"/>
  <path class="cls-1" d="m98.14,59.66c.06,1.69.77,2.38,2.01,2.38.83,0,1.42-.36,1.8-1.25h.9c-.35,1.47-1.38,2.31-3.09,2.31-2.19,0-3.48-1.5-3.48-3.54s1.48-3.68,3.51-3.68c2.19,0,3.18,1.76,3.1,3.77h-4.75Zm.02-.79h3c-.09-1.35-.51-2.08-1.45-2.08-.85,0-1.43.55-1.54,2.08Z"/>
  <path class="cls-1" d="m103.69,64.21h1.06v-7.08h-1.06v-1.11h2.73v1.62c.48-1.17,1.31-1.74,2.33-1.74.73,0,1.32.27,1.77.72.63.63.92,1.62.92,2.76s-.36,2.19-.99,2.82c-.48.48-1.1.77-1.77.77-1.04,0-1.77-.52-2.17-1.23v2.48h1.38v1.11h-4.19v-1.11Zm5.85-4.84c0-1.58-.58-2.34-1.47-2.34s-1.65,1.06-1.65,2.52c0,1.32.54,2.35,1.65,2.35.96,0,1.47-.88,1.47-2.53Z"/>
  <path class="cls-1" d="m112.48,59.53c0-2.13,1.48-3.63,3.58-3.63s3.58,1.44,3.58,3.57-1.48,3.64-3.58,3.64-3.58-1.46-3.58-3.58Zm5.25-.03c0-1.9-.63-2.7-1.72-2.7s-1.6.81-1.6,2.7.61,2.71,1.72,2.71,1.6-.82,1.6-2.71Z"/>
  <path class="cls-1" d="m120.75,60.5h1.02c.47,1.04,1.33,1.74,2.23,1.74.74,0,1.05-.35,1.05-.84,0-.57-.42-.84-1.8-1.2-1.67-.45-2.4-1.02-2.4-2.17s.98-2.13,2.46-2.13c.78,0,1.44.29,1.81.81l.18-.81h1v2.39h-1c-.51-.95-1.05-1.54-1.92-1.54-.54,0-.98.28-.98.79,0,.55.48.82,1.74,1.15,1.57.42,2.44.93,2.44,2.19,0,1.11-.93,2.23-2.55,2.23-.95,0-1.67-.4-2.12-.94l-.19.93h-.99v-2.59Z"/>
  <path class="cls-1" d="m127.57,61.85h1.2v-4.73h-1.2v-1.11h2.95v5.83h1.2v1.11h-4.15v-1.11Zm.84-8.17c0-.66.46-1.14,1.14-1.14s1.12.44,1.12,1.1-.45,1.14-1.12,1.14-1.14-.45-1.14-1.1Z"/>
  <path class="cls-1" d="m135.09,54.22v1.88h2.25v1.03h-2.25v3.84c0,.66.2,1.01.78,1.01.43,0,.72-.39,1-1.25l.76.27c-.36,1.48-1.14,2.11-2.28,2.11-1.35,0-2.02-.75-2.02-2.08v-3.9h-1.3v-1.03h1.33v-1.68l1.72-.19Z"/>
  <path class="cls-1" d="m138.21,59.53c0-2.13,1.48-3.63,3.58-3.63s3.58,1.44,3.58,3.57-1.48,3.64-3.58,3.64-3.58-1.46-3.58-3.58Zm5.25-.03c0-1.9-.63-2.7-1.72-2.7s-1.6.81-1.6,2.7.61,2.71,1.72,2.71,1.6-.82,1.6-2.71Z"/>
  <path class="cls-1" d="m146.35,61.85h1.05v-4.73h-1.05v-1.11h2.73v1.69c.37-1.21,1.24-1.8,2.1-1.8.81,0,1.29.58,1.29,1.26,0,.61-.44,1.11-1.02,1.11s-1.04-.35-1.04-.96c0-.06.02-.14.03-.2-.56,0-1.04.63-1.29,1.5v3.23h1.31v1.11h-4.11v-1.11Z"/>
  <path class="cls-1" d="m154.77,64.07c0,.18-.06.39-.12.51.6-.1.98-.41,1.44-1.59l-2.58-5.86h-.94v-1.11h3.96v1.11h-1.12l1.59,4.04,1.59-4.04h-.93v-1.11h2.95v1.11h-.87l-2.39,5.65c-.82,1.94-1.66,2.73-2.97,2.73-1.04,0-1.65-.54-1.65-1.35,0-.6.44-1.1,1.05-1.1s.99.51.99,1Z"/>
</svg>