<?xml version="1.0" encoding="utf-8"?>
<!-- Generator: Adobe Illustrator 26.3.1, SVG Export Plug-In . SVG Version: 6.00 Build 0)  -->
<svg version="1.1" id="Layer_1_copy" xmlns="http://www.w3.org/2000/svg" xmlns:xlink="http://www.w3.org/1999/xlink" x="0px"
	 y="0px" viewBox="0 0 250 125" style="enable-background:new 0 0 250 125;" xml:space="preserve">
<style type="text/css">
	.st0{fill:#10294B;}
	.st1{font-family:'Sentinel-Semibold';}
	.st2{font-size:30.3165px;}
	.st3{fill:url(#SVGID_1_);}
</style>
<g>
	<text transform="matrix(1 0 0 1 10.3833 42.3857)"><tspan x="0" y="0" class="st0 st1 st2">Division </tspan><tspan x="44.9" y="25.26" class="st0 st1 st2">of </tspan><tspan x="24" y="50.53" class="st0 st1 st2">Birds</tspan></text>
	<linearGradient id="SVGID_1_" gradientUnits="userSpaceOnUse" x1="200.8177" y1="118.9467" x2="200.8177" y2="5.2621">
		<stop  offset="0" style="stop-color:#C7C4E2"/>
		<stop  offset="1" style="stop-color:#2D2D85"/>
	</linearGradient>
	<path class="st3" d="M210.45,15.06c-0.88,0.17-2.05,0.26-2.71,0.33c-0.6,0.08-1.2,0.1-1.8,0.16c-0.09,0.01-0.18,0.08-0.27,0.13
		c0.09,0.05,0.17,0.12,0.26,0.14c0.84,0.2,1.7,0.34,2.48,0.73c0.23,0.11,0.43,0.27,0.63,0.43c1.43,1.16,2.74,2.44,3.58,4.11
		c0.28,0.57,0.47,1.19,0.64,1.81c0.29,1.04,0.53,2.1,0.77,3.16c0.06,0.24,0.06,0.48,0.08,0.73c0.08,1.21,0.33,2.4,0.24,3.62
		c-0.03,0.38-0.09,0.76-0.14,1.14c0,0.07,0,0.14,0,0.21c0.08,1.3-0.17,2.57-0.37,3.84c-0.13,0.83-0.2,1.67-0.4,2.48
		c-0.31,1.26-0.69,2.51-1.08,3.75c-0.17,0.54-0.46,1.06-0.7,1.58c-0.04,0.08-0.14,0.14-0.21,0.2c-0.04-0.1-0.11-0.2-0.1-0.3
		c0.03-0.3,0.1-0.6,0.15-0.89c0.01-0.08,0.02-0.17-0.01-0.26c-1.33,2.12-2.44,4.35-3.52,6.6c-0.04-0.01-0.07-0.02-0.11-0.03
		c-0.04-0.59-0.08-1.18-0.12-1.81c-0.07,0.06-0.11,0.08-0.13,0.11c-0.58,1.23-1.41,2.3-2.18,3.41c-0.72,1.03-1.35,2.13-2.1,3.14
		c-0.39,0.53-0.46,1-0.29,1.63c0.35,1.32,0.23,2.68,0.25,4.03c0.01,0.68-0.15,1.32-0.46,1.92c-0.09,0.16-0.18,0.35-0.33,0.44
		c-0.65,0.42-1.32,0.83-2,1.21c-0.11,0.06-0.32,0.04-0.44-0.03c-0.19-0.11-0.32-0.07-0.33,0.12c-0.04,0.55-0.58,0.95-0.46,1.55
		c0.01,0.05-0.03,0.12-0.06,0.16c-0.24,0.29-0.49,0.57-0.72,0.85c-0.06,0.07-0.09,0.15-0.12,0.24c-0.75,2.35-1.44,4.71-2.25,7.03
		c-0.72,2.05-1.56,4.05-2.36,6.07c-0.36,0.91-0.75,1.81-1.16,2.7c-0.31,0.67-0.5,0.59-1.03,0.19c-0.48-0.36-0.51-0.96-0.61-1.49
		c-0.1-0.58-0.12-1.18-0.17-1.77c-0.03-0.01-0.06-0.02-0.09-0.03c-0.06,0.22-0.14,0.43-0.17,0.65c-0.05,0.35-0.06,0.7-0.08,1.06
		c-0.03,0.5-0.07,1-0.07,1.5c-0.01,0.99-0.01,1.99,0,2.98c0.02,2.68,0.02,5.37,0.1,8.05c0.04,1.43,0.22,2.85,0.31,4.28
		c0.03,0.48,0.01,0.96,0.01,1.44c-0.02,0.12-0.06,0.25-0.05,0.37c0.06,0.89,0.13,1.78,0.2,2.66c0.04,0.41,0.07,0.83,0.16,1.24
		c0.04,0.19,0.18,0.39,0.33,0.52c0.71,0.61,1.53,0.99,2.47,1.09c0.08,0.02,0.17,0.03,0.25,0.05c0.05,0.02,0.1,0.03,0.15,0.05
		c0.66,0.12,1.36,0.15,1.98,0.38c0.58,0.22,1.14,0.56,1.33,1.28c0.31,1.15,0.64,2.29,1.22,3.35c0.22,0.4,0.17,0.85-0.13,1.21
		c-0.35,0.42-0.71,0.83-1.09,1.22c-0.16,0.17-0.21,0.32-0.15,0.55c0.2,0.73,0.38,1.47,0.56,2.2c0.09,0.35,0.09,0.72,0.36,1.03
		c0.13,0.15,0.18,0.41,0.19,0.63c0.04,0.64,0.06,1.28,0.07,1.92c0.01,0.58-0.24,0.82-0.83,0.83c-0.69,0.01-1.38,0-2.07,0
		c-4.3,0-8.6-0.01-12.9-0.01c-0.08,0-0.17-0.01-0.24,0.01c-0.5,0.09-0.52,0.08-0.5-0.43c0.05-1.06,0.14-2.11,0.2-3.17
		c0.05-0.86,0.09-1.72,0.15-2.57c0.03-0.49,0.06-0.98,0.16-1.45c0.05-0.23,0.23-0.45,0.4-0.64c0.39-0.43,0.43-0.96,0.5-1.49
		c0.04-0.31,0.08-0.62,0.17-0.93c0.03-0.11,0.16-0.24,0.26-0.26c0.12-0.02,0.31,0.03,0.38,0.12c0.14,0.18,0.28,0.45,0.5,0.32
		c0.18-0.11,0.32-0.39,0.36-0.62c0.06-0.34,0.01-0.7,0.01-1.05c0-0.41,0.7-1.32,1.09-1.37c0.24-0.03,0.49,0.07,0.68,0.1
		c0.69-0.31,1.37-0.63,2.07-0.91c0.41-0.16,0.56-0.47,0.56-0.84c0.02-1.33,0.06-2.67-0.01-4c-0.12-2.36-0.33-4.72-0.28-7.09
		c0.02-0.67-0.08-1.34-0.13-2.01c0-0.05-0.01-0.09-0.01-0.14c0-0.09-0.01-0.18-0.01-0.27c-0.02-0.26-0.04-0.52-0.06-0.78
		c-0.03-0.51-0.06-1.02-0.09-1.53c-0.02-0.24-0.03-0.47-0.05-0.71c0-0.14-0.01-0.28-0.01-0.42c-0.02-0.17-0.04-0.33-0.06-0.5
		c-0.02-0.37-0.04-0.75-0.06-1.12c0-0.07,0-0.14,0-0.21c-0.05-0.2-0.08-0.4-0.14-0.6c-0.2-0.62-0.4-1.25-0.61-1.87
		c0.01-0.01-0.05,0.03-0.08,0.07c-0.58,0.72-1.15,1.42-1.52,2.29c-0.46,1.08-1.13,2.06-1.7,3.1c-0.49,0.89-0.91,1.82-1.43,2.69
		c-0.49,0.8-1.07,1.56-1.64,2.31c-0.31,0.41-0.88,0.39-1.26-0.02c-0.3-0.32-0.56-0.69-0.84-1.03c-0.29-0.35-0.33-0.36-0.64-0.03
		c-0.38,0.39-0.78,0.75-1.33,0.87c-0.24,0.05-0.53,0.03-0.76-0.06c-0.53-0.2-0.9-0.6-1.17-1.1c-0.76-1.4-1.13-2.94-1.57-4.44
		c-0.43-1.44-0.79-2.9-1.18-4.35c-0.3-1.14-0.65-2.28-0.89-3.43c-0.27-1.26-0.45-2.54-0.69-3.81c-0.15-0.84-0.33-1.67-0.48-2.5
		c-0.18-1-0.36-1.99-0.49-2.99c-0.17-1.34-0.34-2.69-0.42-4.04c-0.11-1.84-0.17-3.68-0.21-5.52c-0.02-1.06,0.03-2.13,0.06-3.19
		c0.02-0.71,0.02-1.42,0.07-2.13c0.07-0.93,0.18-1.85,0.25-2.78c0.04-0.49,0.01-0.98,0.03-1.47c0.01-0.16,0.1-0.32,0.14-0.48
		c0.05-0.19,0.1-0.38,0.13-0.57c0.1-0.82,0.17-1.64,0.29-2.46c0.05-0.31,0.23-0.61,0.28-0.92c0.18-1.11,0.32-2.23,0.49-3.35
		c0.08-0.49,0.2-0.98,0.28-1.47c0.11-0.67,0.13-1.37,0.32-2.02c0.52-1.73,1.11-3.43,1.67-5.15c0.39-1.18,0.75-2.38,1.17-3.55
		c0.16-0.45,0.43-0.87,0.66-1.29c0.59-1.07,1.23-2.11,1.79-3.19c0.66-1.26,1.53-2.36,2.49-3.41c0.59-0.65,1.16-1.31,1.75-1.96
		c0.34-0.37,0.69-0.74,1.09-1.04c0.49-0.37,1.03-0.66,1.55-0.98c0.51-0.3,1.02-0.59,1.55-0.87c1.14-0.61,2.37-0.95,3.63-1.18
		c0.45-0.08,0.88-0.04,1.34,0.03c0.62,0.1,1.28,0.02,1.99,0.02c-0.05-0.22-0.07-0.41-0.12-0.59c-0.1-0.37-0.28-0.73-0.31-1.11
		c-0.05-0.6-0.01-1.2-0.01-1.84c-0.19-0.02-0.17-0.19-0.09-0.41c0.24-0.62,0.48-1.24,0.72-1.86c0.03-0.08,0.05-0.16,0.01-0.29
		c-0.3,0.23-0.59,0.45-0.89,0.68c-0.03-0.03-0.05-0.06-0.08-0.08c0.33-0.68,0.82-1.23,1.4-1.71c0.57-0.48,1.12-0.98,1.71-1.49
		c-0.66-0.14-1.26,0.2-1.89,0.25c-0.01-0.03-0.02-0.06-0.04-0.1c0.73-0.34,1.44-0.73,2.19-1.02c1.81-0.7,3.04-1.15,4.93-1.57
		c0.46-0.1,1.66-0.42,2.14-0.46c0.87-0.07,1.77-0.21,2.64-0.21c1.37,0,2.72,0.29,4.02,0.59c0.71,0.13,1.39,0.54,2.09,0.84
		c0.8,0.46,1.46,1.06,2.04,1.78c0.13,0.16,0.34,0.31,0.54,0.35c1.12,0.27,2.24,0.55,3.38,0.74c1.37,0.23,2.77,0.36,4.14,0.57
		c1.49,0.24,2.98,0.54,4.47,0.79c1.49,0.25,2.99,0.45,4.48,0.69c0.47,0.08,0.92,0.23,1.39,0.35c0.25,0.06,0.32,0.2,0.21,0.49
		c-1.04,0.11-2.1,0.24-3.16,0.34c-1.02,0.1-2.04,0.18-3.06,0.27c-1.15,0.1-2.29,0.19-3.44,0.3c-1.26,0.12-2.51,0.27-3.77,0.41
		c-0.91,0.1-1.82,0.21-2.74,0.28c-1.67,0.18-2.22,0.21-3.29,0.57C211.75,14.82,210.91,14.98,210.45,15.06z"/>
</g>
</svg>
