<?xml version="1.0" encoding="UTF-8"?>
<svg id="Layer_1_copy" data-name="Layer 1 copy" xmlns="http://www.w3.org/2000/svg" xmlns:xlink="http://www.w3.org/1999/xlink" viewBox="0 0 312 415">
  <defs>
    <style>
      .cls-1 {
        fill: url(#linear-gradient);
      }

      .cls-2 {
        fill: #f5924a;
      }

      .cls-3 {
        fill: #f5994c;
      }

      .cls-4 {
        fill: #f57f41;
      }

      .cls-5 {
        fill: #f5954b;
      }

      .cls-6 {
        fill: #f59049;
      }

      .cls-7 {
        fill: #f58e48;
      }

      .cls-8 {
        fill: #f5974c;
      }

      .cls-9 {
        fill: #f7af59;
      }

      .cls-10 {
        fill: #f8b45e;
      }

      .cls-11 {
        fill: #f47a40;
      }

      .cls-12 {
        fill: #f58243;
      }

      .cls-13 {
        fill: #69b64a;
      }

      .cls-14 {
        fill: #67c1e8;
      }

      .cls-15 {
        fill: #66b548;
      }

      .cls-16 {
        fill: #f2753f;
      }

      .cls-17 {
        fill: #f2703d;
      }

      .cls-18 {
        fill: #f2773f;
      }

      .cls-19 {
        fill: #f68744;
      }

      .cls-20 {
        fill: #f69650;
      }

      .cls-21 {
        fill: #f59e4f;
      }

      .cls-22 {
        fill: #f6a956;
      }

      .cls-23 {
        fill: #f6a552;
      }

      .cls-24 {
        fill: #f47d40;
      }

      .cls-25 {
        fill: #f6a251;
      }

      .cls-26 {
        fill: #f6ab56;
      }

      .cls-27 {
        fill: #f69c4d;
      }

      .cls-28 {
        fill: #fdcd8b;
      }

      .cls-29 {
        fill: #fff;
      }

      .cls-30 {
        fill: #ffedd0;
      }

      .cls-31 {
        fill: #f68a46;
      }

      .cls-32 {
        fill: #ffcc04;
      }

      .cls-33 {
        fill: #fedba9;
      }

      .cls-34 {
        fill: #f06c3f;
      }

      .cls-35 {
        fill: #f16e3e;
      }

      .cls-36 {
        fill: #7fa7c5;
      }

      .cls-37 {
        fill: #7dbe48;
      }

      .cls-38 {
        fill: #64bfe7;
      }

      .cls-39 {
        fill: #739dbf;
      }

      .cls-40 {
        fill: #83c14a;
      }

      .cls-41 {
        fill: #32709e;
      }

      .cls-42 {
        fill: #30a44a;
      }

      .cls-43 {
        fill: #ced9e7;
      }

      .cls-44 {
        fill: #a7c0d6;
      }

      .cls-45 {
        fill: #a6cf76;
      }

      .cls-46 {
        fill: #a3bcd3;
      }

      .cls-47 {
        fill: #c0db9a;
      }

      .cls-48 {
        fill: #d0dce9;
      }

      .cls-49 {
        fill: #deecca;
      }

      .cls-50 {
        fill: #10294b;
      }

      .cls-51 {
        fill: #165b8e;
      }

      .cls-52 {
        fill: #246395;
      }

      .cls-53 {
        fill: #236293;
      }

      .cls-54 {
        fill: #206193;
      }

      .cls-55 {
        fill: #205e91;
      }

      .cls-56 {
        fill: #1ea04a;
      }

      .cls-57 {
        fill: #417ba6;
      }

      .cls-58 {
        fill: #42a9da;
      }

      .cls-59 {
        fill: #175b8e;
      }

      .cls-60 {
        fill: #3ea6d8;
      }

      .cls-61 {
        fill: #3e7aa7;
      }

      .cls-62 {
        fill: #1a5d91;
      }

      .cls-63 {
        fill: #195c8f;
      }

      .cls-64 {
        fill: #52b1df;
      }

      .cls-65 {
        fill: #528db4;
      }

      .cls-66 {
        fill: #6cb648;
      }

      .cls-67 {
        fill: #6ec4ea;
      }

      .cls-68 {
        fill: #54ad48;
      }

      .cls-69 {
        fill: #5ab6e2;
      }

      .cls-70 {
        fill: #286999;
      }

      .cls-71 {
        fill: #5894b7;
      }

      .cls-72 {
        fill: #57ae48;
      }

      .cls-73 {
        fill: #2b6b9a;
      }

      .cls-74 {
        fill: #5bb148;
      }

      .cls-75 {
        fill: #28a24a;
      }

      .cls-76 {
        fill: #296a9a;
      }

      .cls-77 {
        fill: #47aadc;
      }

      .cls-78 {
        fill: #2c6d9c;
      }

      .cls-79 {
        fill: #5b8fb5;
      }

      .cls-80 {
        fill: #256496;
      }

      .cls-81 {
        fill: #3472a0;
      }

      .cls-82 {
        fill: #39a3d6;
      }

      .cls-83 {
        fill: #3ba1d6;
      }

      .cls-84 {
        fill: #3876a3;
      }

      .cls-85 {
        fill: #3aa64a;
      }

      .cls-86 {
        fill: #2e6e9d;
      }

      .cls-87 {
        fill: #3b78a3;
      }

      .cls-88 {
        fill: #4bacdc;
      }

      .cls-89 {
        fill: #4a85ae;
      }

      .cls-90 {
        fill: #5eb148;
      }

      .cls-91 {
        fill: #467fa9;
      }

      .cls-92 {
        fill: #60bbe4;
      }

      .cls-93 {
        fill: #60b348;
      }

      .cls-94 {
        fill: #77bb47;
      }

      .cls-95 {
        fill: #4aa949;
      }

      .cls-96 {
        fill: #5faada;
      }

      .cls-97 {
        fill: #71b847;
      }

      .cls-98 {
        fill: #4e86af;
      }

      .cls-99 {
        fill: #4f8ab1;
      }

      .cls-100 {
        fill: #4eaede;
      }

      .cls-101 {
        fill: #79c9eb;
      }

      .cls-102 {
        fill: #266798;
      }

      .cls-103 {
        fill: url(#linear-gradient-2);
      }
    </style>
    <linearGradient id="linear-gradient" x1="117.98" y1="354.9" x2="55.73" y2="183.87" gradientTransform="translate(20.38 -30.86) rotate(-10.08)" gradientUnits="userSpaceOnUse">
      <stop offset="0" stop-color="#a7dce0"/>
      <stop offset="1" stop-color="#5598b0"/>
    </linearGradient>
    <linearGradient id="linear-gradient-2" x1="141.1" y1="397.3" x2="96.03" y2="273.48" gradientTransform="translate(59.01 -39.21) rotate(-.54)" gradientUnits="userSpaceOnUse">
      <stop offset="0" stop-color="#bee5e7"/>
      <stop offset="1" stop-color="#7ab4cd"/>
    </linearGradient>
  </defs>
  <g>
    <path class="cls-1" d="M138.05,301.69c-.82,.79-1.54,1.47-2.26,2.16-1.12,1.08-2.06,2.3-2.79,3.66-.58,1.08-1.13,2.19-1.57,3.33-.83,2.12-1.71,4.23-2.34,6.42-.54,1.87-.78,3.82-1.11,5.74-.22,1.31-.42,2.62-.55,3.94-.24,2.29-.47,4.59-.63,6.89-.09,1.38,.03,2.77-.1,4.14-.04,.47-.08,.87,.04,1.32,.03,.1-.17,.39-.23,.38-.21-.03-.47-.11-.58-.26-1.22-1.71-2.42-3.44-3.6-5.17-1.08-1.58-2.16-3.17-3.2-4.78-1.06-1.63-2.07-3.3-3.12-4.94-.97-1.51-2-2.99-2.92-4.53-.97-1.63-1.86-3.3-2.76-4.97-.5-.92-1-1.85-1.44-2.8-.83-1.78-1.59-3.59-2.43-5.37-.34-.72-.77-1.39-1.17-2.07-.96-1.63-2.01-3.15-3.34-4.54-1.94-2.03-3.58-4.36-5.31-6.59-1.12-1.44-2.23-2.88-3.24-4.39-1.5-2.27-2.93-4.58-4.35-6.9-1.48-2.42-2.96-4.84-4.36-7.32-1.33-2.37-2.6-4.77-3.81-7.21-1.04-2.11-1.99-4.27-2.91-6.43-.69-1.63-1.31-3.29-1.93-4.94-.65-1.75-1.32-3.5-1.89-5.28-.32-.99-.46-2.04-.72-3.06-.3-1.16-.69-2.3-.98-3.47-.74-2.94-1.26-5.91-1.38-8.95-.06-1.53-.34-3.04-.46-4.57-.09-1.2-.09-2.4-.13-3.6-.04-1.1-.11-2.21-.09-3.31,.03-1.36,.14-2.71,.21-4.07,.05-1.02,.03-2.05,.13-3.07,.14-1.44,.3-2.88,.55-4.3,.36-2.06,.74-4.13,1.25-6.16,.5-1.99,1.16-3.93,1.76-5.89,.4-1.33,.77-2.66,1.23-3.97,1-2.83,1.99-5.67,3.09-8.46,.93-2.34,2-4.62,3.05-6.92,.41-.91,.92-1.78,1.4-2.65,.66-1.19,1.29-2.4,2.02-3.55,1.2-1.9,2.46-3.77,3.71-5.64,.89-1.32,1.76-2.66,2.7-3.94,.9-1.22,1.88-2.38,2.84-3.54,.7-.85,1.42-1.7,2.17-2.5,.41-.43,.9-.79,1.48-1.28-.69-.26-1.17-.48-1.67-.63-2.14-.62-4.29-1.22-6.43-1.83-1.13-.32-2.28-.59-3.37-1.01-.41-.16-.78-.64-.96-1.06-.07-.16,.42-.62,.71-.86,2.79-2.22,6.08-3.46,9.39-4.62,2.65-.93,5.32-1.81,8.02-2.55,1.88-.51,3.84-.74,5.77-1.11,1.61-.31,3.25-.52,4.82-.98,.91-.27,1.7-.92,2.53-1.43,.95-.59,1.87-1.24,2.83-1.8,1.24-.72,2.51-1.4,3.78-2.06,2.17-1.12,4.31-2.28,6.53-3.28,2.89-1.3,5.82-2.53,8.79-3.66,2.63-1,5.3-1.9,7.99-2.68,2.9-.83,5.85-1.51,8.79-2.17,2.4-.54,4.81-1.01,7.24-1.39,1.99-.31,4.02-.45,6.03-.67,1.96-.22,3.91-.51,5.87-.66,2.07-.16,4.15-.22,6.23-.28,2.26-.06,4.53-.15,6.78-.06,2.58,.1,5.17,.3,7.73,.63,1.15,.15,2.27,.64,3.35,1.1,1.12,.49,1.58,1.62,1.98,2.65,.85,2.25,.26,4.33-1.09,6.22-1.21,1.69-2.41,3.39-3.71,5-1.08,1.34-2.31,2.56-3.48,3.82-1.65,1.79-3.22,3.68-4.98,5.35-2.12,2.01-4.37,3.89-6.63,5.75-2.17,1.79-4.43,3.47-6.63,5.23-2.27,1.8-4.49,3.66-6.77,5.44-1.49,1.16-3.07,2.21-4.57,3.36-1.06,.81-2.06,1.7-3.06,2.58-.86,.77-1.7,1.56-2.51,2.38-.78,.78-1.51,1.61-2.25,2.43-.1,.11-.17,.27-.18,.41-.09,1.5-.17,3-.22,4.51-.05,1.23-.07,2.46-.07,3.7,0,1.72,.04,3.44,.02,5.15-.02,1.72-.1,3.44-.17,5.15-.05,1.23-.13,2.45-.19,3.68-.06,1.35-.13,2.71-.15,4.07-.02,1.1,.06,2.2,.04,3.3-.05,1.79-.14,3.58-.22,5.37,0,.13-.04,.26-.04,.38-.07,1.25-.91,1.64-2.02,1.01-2.06-1.17-3.54-2.95-5-4.73-1.23-1.51-2.44-3.04-3.59-4.61-.46-.63-.74-1.4-1.1-2.11-.73-1.44-1.49-2.86-2.17-4.32-.45-.97-.74-2.01-1.14-3.01-.49-1.23-1.02-2.45-1.63-3.9-.81,.66-1.55,1.15-2.16,1.78-2.03,2.08-4.05,4.17-6,6.32-1.4,1.54-2.78,3.11-4.02,4.78-2.29,3.06-4.49,6.19-6.71,9.3-.73,1.02-1.49,2.03-2.16,3.1-.62,.97-1.13,2.01-1.69,3.02-.7,1.26-1.43,2.49-2.08,3.77-.85,1.7-1.65,3.42-2.42,5.15-.89,1.99-1.82,3.97-2.54,6.02-.72,2.05-1.27,4.18-1.79,6.29-.58,2.34-1.11,4.69-1.53,7.07-.34,1.89-.52,3.81-.73,5.72-.13,1.15-.25,2.3-.24,3.45,0,1.68,.12,3.37,.21,5.05,.06,1.1,.07,2.21,.27,3.29,.48,2.54,.58,5.14,1.41,7.63,.6,1.81,.94,3.71,1.44,5.56,.34,1.24,.73,2.46,1.15,3.67,.67,1.96,1.31,3.93,2.1,5.84,.58,1.39,1.4,2.68,2.08,4.03,.39,.77,.76,1.57,1.02,2.39,.26,.83,.93,1.13,1.58,1.47,1.17,.59,2.35,1.15,3.54,1.69,.65,.29,1.31,.54,1.99,.75,1.48,.46,2.98,.88,4.47,1.32,1.26,.37,2.51,.77,3.77,1.1,1.56,.4,3.14,.7,4.69,1.12,1.73,.46,3.44,1,5.24,1.53Z"/>
    <path class="cls-103" d="M151.63,351.94c.15,.82,.28,1.54,.41,2.26,.2,1.12,.23,2.25,.08,3.37-.12,.89-.27,1.78-.5,2.65-.42,1.62-.81,3.25-1.37,4.82-.48,1.34-1.18,2.6-1.81,3.89-.43,.87-.88,1.74-1.37,2.58-.84,1.47-1.7,2.93-2.6,4.36-.54,.86-1.21,1.63-1.73,2.5-.17,.3-.33,.56-.59,.76-.06,.05-.06,.3-.02,.32,.14,.07,.33,.14,.46,.09,1.46-.49,2.92-1,4.37-1.52,1.32-.47,2.65-.95,3.96-1.46,1.33-.51,2.65-1.07,3.98-1.59,1.23-.48,2.47-.91,3.68-1.43,1.28-.55,2.52-1.16,3.78-1.76,.69-.33,1.39-.67,2.06-1.04,1.26-.7,2.49-1.45,3.75-2.15,.51-.28,1.05-.49,1.59-.73,1.27-.56,2.55-1,3.94-1.26,2.03-.37,4-1.05,5.99-1.62,1.28-.37,2.56-.75,3.81-1.21,1.87-.7,3.71-1.46,5.55-2.23,1.92-.8,3.84-1.6,5.74-2.47,1.81-.83,3.6-1.71,5.36-2.64,1.53-.8,3.02-1.68,4.5-2.56,1.11-.67,2.19-1.39,3.27-2.1,1.14-.76,2.29-1.51,3.4-2.32,.62-.45,1.15-1.02,1.75-1.5,.68-.56,1.4-1.07,2.08-1.64,1.71-1.42,3.29-2.96,4.67-4.72,.69-.88,1.51-1.66,2.24-2.51,.57-.67,1.09-1.38,1.63-2.08,.5-.64,1.02-1.26,1.48-1.92,.57-.82,1.08-1.67,1.63-2.5,.41-.63,.86-1.23,1.25-1.88,.54-.91,1.06-1.84,1.53-2.79,.67-1.38,1.34-2.77,1.91-4.2,.56-1.39,1-2.83,1.49-4.25,.33-.96,.69-1.91,.98-2.88,.63-2.11,1.26-4.22,1.8-6.35,.46-1.79,.8-3.61,1.17-5.42,.14-.72,.22-1.45,.31-2.18,.12-.99,.27-1.98,.33-2.97,.1-1.65,.16-3.3,.22-4.94,.04-1.17,.1-2.34,.09-3.5-.01-1.11-.09-2.22-.16-3.33-.05-.81-.11-1.62-.21-2.42-.05-.43-.19-.85-.32-1.4,.52,.14,2.19,.88,2.55,1.01,1.54,.55,3.07,1.12,4.6,1.68,.81,.3,1.61,.63,2.44,.86,.31,.08,.74-.04,1.02-.22,.11-.07,.02-.55-.05-.82-.7-2.52-2.12-4.67-3.58-6.78-1.17-1.69-2.38-3.36-3.66-4.97-.9-1.12-1.96-2.1-2.95-3.14-.82-.88-3.03-2.74-3.77-3.69-.42-.55-2.64-5.76-3.12-6.7-.8-1.59-1.58-3.21-2.46-4.76-1.16-2.02-2.36-4.01-3.64-5.95-1.13-1.72-6.41-8.44-7.88-10.1-1.19-1.35-9.08-8.92-10.19-9.85-1.16-.99-5.46-4.55-6.83-5.47-1.58-1.05-3.94-2.38-5.6-3.28-.74-.41-3.42-1.3-4.93-.23-1.47,.97-2.28,3.1-2.29,4.8,.04,4.2,1.21,11.43,1.54,13.19,.39,2.11,2.59,10.23,3.14,12.22,.57,2.05,3.99,14.62,4.12,15.45,.12,.8,.51,1.76,.6,2.56,.01,.1,.54,2.01,.49,2.1-.6,.93-3.28,4.29-5.13,6.99-1.67,2.47-3.56,5.75-4.54,7.39-2.29,4.86-1.51,5.68-.59,5.78,1.73,.2,4.07-.38,5.71-.81,1.38-.36,2.65-.88,4.01-1.32,.55-.18,1.86-.69,2.38-.96,1.05-.54,1.16-.47,2.15-1.07,.2,.74,.43,1.37,.53,2,.31,2.11,.35,1.96,.59,4.08,.17,1.52,.31,3.04,.33,4.57,.04,2.8,0,5.61-.02,8.41,0,.92,0,1.85-.05,2.77-.05,.84-.19,1.68-.29,2.52-.13,1.04-.22,2.1-.39,3.13-.23,1.37-.49,2.74-.78,4.1-.33,1.56-.63,3.14-1.08,4.67-.45,1.53-1.04,3.03-1.65,4.51-.66,1.64-1.36,3.26-2.13,4.85-.61,1.27-1.33,2.49-2.03,3.71-.42,.73-.84,1.47-1.34,2.15-.73,1-1.52,1.95-2.3,2.91-.51,.63-.99,1.28-1.58,1.83-1.38,1.3-2.56,2.8-4.12,3.92-1.14,.82-2.15,1.8-3.25,2.68-.73,.59-1.49,1.15-2.26,1.69-1.24,.87-2.47,1.77-3.76,2.56-.94,.58-1.99,.99-2.97,1.5-.56,.29-1.13,.6-1.64,.98-.51,.38-1.04,.27-1.57,.19-.95-.15-1.89-.33-2.83-.52-.51-.11-1.01-.25-1.5-.41-1.08-.37-2.15-.76-3.22-1.14-.9-.32-1.82-.62-2.71-.97-1.1-.43-2.17-.93-3.27-1.35-1.22-.47-2.47-.88-3.77-1.35Z"/>
  </g>
  <g>
    <polygon class="cls-32" points="38.96 31.58 31.01 20.7 31.01 28.62 34.17 28.62 34.17 36.43 19.53 36.43 19.53 28.62 22.5 28.62 22.5 16.46 19.53 16.46 19.53 8.64 31.03 8.64 38.96 19.6 46.9 8.64 58.39 8.64 58.39 16.46 55.42 16.46 55.42 28.62 58.39 28.62 58.39 36.43 43.76 36.43 43.76 28.62 46.92 28.62 46.92 20.7 38.96 31.58"/>
    <path class="cls-50" d="M209.72,36.47v-.28c.35-.02,.62-.05,.62-.34,0-.1-.03-.21-.06-.31l-.15-.52h-1.83l-.16,.44c-.04,.11-.07,.21-.07,.32,0,.37,.39,.39,.71,.4v.28h-2.13v-.28c.54-.02,.72-.13,.92-.68l1.4-3.84-.08-.12c.6-.2,.77-.29,1.03-.48,.1,.35,.12,.4,.23,.76l1.15,3.52c.2,.62,.3,.78,.85,.84v.28h-2.43Zm-.47-4.14l-.76,2.15h1.49l-.73-2.15Zm-18.03,3c-.23,.37-.78,1.29-2.21,1.29-1.56,0-2.57-1.15-2.57-2.66,0-1.4,.86-2.78,2.61-2.78,.92,0,1.41,.39,1.71,.62l.35-.32,.03,1.57-.23,.04c-.09-.3-.22-.54-.56-.91-.16-.17-.54-.51-1.08-.51-.94,0-1.67,.76-1.67,2.11,0,1.14,.61,2.21,1.8,2.21,.91,0,1.25-.5,1.52-.9l.3,.24Zm.88,1.15v-.28c.59-.05,.59-.18,.59-.68,.01-.18,.01-.37,.01-.55v-2.17c0-.34,0-.67-.02-.84-.03-.31-.18-.35-.58-.39v-.28h2.22v.28c-.43,.05-.59,.06-.65,.35-.04,.16-.04,.55-.04,.86v.71c.45,.03,.76,.04,1.19,.04s.79,0,1.23-.04v-.87c-.01-.95-.02-.98-.72-1.05v-.28h2.25v.28q-.6,.08-.6,1.07v2.19c0,.2,.01,.86,.03,1.01,.03,.27,.19,.32,.57,.36v.28h-2.25v-.28c.52-.06,.66-.07,.7-.43,.02-.15,.02-.35,.02-.72v-.95c-.41,0-.75-.04-1.18-.04s-.8,0-1.24,.04v.95c.01,1.08,.02,1.08,.69,1.15v.28h-2.22Zm6.39,0v-.28c.5-.07,.61-.12,.62-.67v-2.76c-.01-1.07-.01-1.11-.62-1.19v-.28h2.15v.28c-.61,.06-.61,.09-.61,1.19v2.09c0,.18,.01,.76,.02,.92,.04,.31,.18,.39,.59,.42v.28h-2.15Zm-14.76,0v-.28c.51-.07,.61-.12,.62-.67v-2.76c-.01-1.07-.01-1.11-.62-1.19v-.28h2.15v.28c-.61,.06-.61,.09-.61,1.19v2.09c0,.18,.01,.76,.02,.92,.03,.31,.18,.39,.58,.42v.28h-2.14Zm-3.26,0v-.28c.65-.05,.65-.07,.66-1.03v-2.6l-1.81,3.98h-.46l-1.66-4.03-.04,3.04c0,.51,.06,.6,.61,.65v.28h-1.8v-.28c.42-.02,.58-.08,.61-.43,.02-.14,.04-.58,.04-.86l.07-2.17c.01-.17,.01-.42,.01-.6,0-.51-.1-.55-.56-.56v-.28h1.63l1.62,3.93,1.78-3.93h1.58v.31c-.62,.04-.62,.1-.62,.91v2.14c0,.36,.01,.79,.03,1.06,.03,.38,.18,.45,.59,.49v.28h-2.28v-.02Zm32,0v-.28c.43-.02,.59-.03,.65-.32,.07-.34,.1-3.42,.1-3.95-.29-.26-.4-.32-.75-.35v-.28h1.56c.43,.62,.53,.75,1.29,1.7l1.45,1.79v-2.32c-.01-.82-.03-.86-.85-.89v-.28h2.04v.28c-.57,0-.62,.13-.62,.97l-.07,4h-.31l-.46-.58c-.23-.29-.47-.59-.7-.87l-2.04-2.52v2.68c0,.84,.05,.87,.85,.95v.28h-2.14Zm-43.2-2.6c0,1.79-1.22,2.73-2.59,2.73-1.51,0-2.68-1.09-2.68-2.74,0-1.42,.95-2.69,2.61-2.68,1.57,0,2.66,1.11,2.66,2.69Zm-2.59,2.25c.3,0,.71-.15,1.03-.64,.36-.56,.44-1.08,.42-1.75-.02-.66-.21-1.24-.59-1.65-.17-.18-.49-.44-.93-.43-.43,0-.75,.27-.91,.46-.37,.41-.54,1-.54,1.66s.09,1.19,.47,1.74c.35,.47,.76,.61,1.05,.61Zm3.11,.06v.28h2.14v-.28c-.54-.05-.6-.1-.62-.67v-1.48h.58c.58,0,.88,.06,.92,.64h.25v-1.71h-.25c-.03,.56-.19,.61-.81,.61h-.68v-1.79c.19-.02,.29-.03,.62-.03,1.02,0,1.34,0,1.48,.81h.26l-.08-1.27h-3.8v.28c.37,.04,.54,.06,.59,.3,.03,.16,.04,.73,.04,.94v1.82c0,.14-.01,.76-.01,.89-.03,.56-.09,.6-.63,.66Zm-44.51,.25v-.28c.5-.07,.61-.12,.62-.67v-2.76c-.01-1.08-.01-1.11-.62-1.2v-.28h2.15v.28c-.61,.06-.61,.08-.61,1.2v2.09c0,.18,.01,.76,.02,.92,.04,.31,.18,.39,.59,.42v.28h-2.15Zm22.81,0v-.28c.5-.07,.61-.12,.61-.67v-2.76c-.01-1.08-.01-1.11-.61-1.2v-.28h2.15v.28c-.61,.06-.61,.08-.61,1.2v2.09c0,.18,.01,.76,.02,.92,.04,.31,.18,.39,.59,.42v.28h-2.15Zm-29.12,0v-.28c.43-.02,.59-.03,.65-.32,.07-.35,.09-3.42,.1-3.95-.29-.26-.4-.32-.75-.34v-.28h1.56c.43,.62,.53,.76,1.29,1.7l1.44,1.79v-2.32c-.01-.82-.03-.87-.85-.89v-.28h2.04v.28c-.56,0-.62,.12-.62,.97l-.08,4h-.3l-.46-.58c-.24-.3-.47-.58-.71-.87l-2.05-2.52v2.69c0,.84,.06,.87,.85,.95v.28h-2.11v-.03Zm24.84-1.62l.27-.03c.28,.84,.76,1.3,1.54,1.3,.55,0,1.04-.23,1.04-.79,0-.59-.56-.82-.82-.92-.21-.08-.42-.15-.63-.23-.42-.15-1.23-.48-1.23-1.49s.76-1.51,1.65-1.51c.35,0,.75,.08,1.19,.36l.32-.23,.17,1.54-.26,.05c-.09-.34-.16-.49-.36-.77-.25-.32-.6-.48-1.01-.48-.55,0-.87,.27-.87,.68,0,.61,.61,.82,1.19,1.01,.29,.1,.54,.18,.75,.3,.41,.24,.75,.7,.75,1.32,0,.9-.74,1.64-1.83,1.64-.71,0-1.14-.28-1.34-.41l-.43-.31-.09-1.03Zm8.52,1.62v-.22c.48,0,.61-.18,.61-.6v-3.82h-.65c-.58,0-.97-.02-1.02,.9h-.27l.04-1.45h4.7l.04,1.45h-.27c-.04-.93-.43-.9-1.02-.9h-.64v3.82c0,.41,.13,.59,.61,.6v.22h-2.13Zm-37.32-5.18v.28c-.69,.05-.69,.07-.69,1.17v1.22c0,.63,0,1.17,.34,1.66,.27,.39,.72,.43,.94,.43,.74,0,1.15-.38,1.33-.99,.15-.48,.15-1.39,.15-1.99,0-.19,0-.81,0-.98-.03-.47-.27-.49-.73-.52v-.28h1.97v.28c-.48,0-.59,.1-.62,.62,0,.12-.07,1.56-.07,1.78,0,.39-.04,.78-.12,1.16-.35,1.4-1.71,1.47-2.07,1.47-.29,0-.87-.05-1.36-.37-.77-.52-.78-1.3-.78-2.13v-1.17c0-.56,0-.81-.02-.94-.04-.33-.21-.39-.59-.41v-.28h2.33Zm18.36,0v.28c-.5,.07-.57,.21-.99,1.24l-1.58,3.76h-.28l-1.42-3.82c-.35-.98-.4-1.1-.92-1.18v-.28h2.46v.28c-.42,.02-.69,.03-.69,.33,0,.15,.04,.27,.18,.7l.9,2.63,1.06-2.72c.06-.18,.15-.42,.15-.55,0-.38-.36-.39-.69-.4v-.28h1.82Zm24.55,5.19v-.28c.41-.04,.56-.06,.66-.16,.12-.11,.12-.25,.12-.81v-.91l-1.38-2.14c-.37-.56-.38-.57-.88-.6v-.29h2.7v.29c-.54,.02-.78,.03-.78,.28,0,.14,.1,.3,.23,.52l.79,1.3,.73-1.29c.13-.26,.21-.41,.21-.53,0-.25-.21-.26-.57-.28v-.29h2.02v.29c-.52,.02-.67,.17-1.27,1.13l-.81,1.35v1.08c0,.94,.01,1.01,.78,1.05v.28h-2.55Zm-20.12,0c0-.37,.06-.99,.11-1.34h-.25c-.18,.93-.7,.88-1.45,.88-.69,0-.83-.18-.83-.52v-1.45h.56c.64,0,.82,.05,.82,.63h.25v-1.71h-.25c-.05,.46-.14,.61-.81,.61h-.56v-1.83h.63c.88,0,1.2,.06,1.32,.77h.23l-.03-1.23h-3.69v.28c.37,.04,.53,.06,.58,.31,.04,.16,.04,.73,.04,.93v1.82c0,.14,0,.76-.01,.89-.01,.57-.08,.62-.62,.67v.29h3.96Zm68.59-2.26v.28c-.47,.03-.47,.16-.48,1.14v.39c-.4,.25-.98,.61-1.99,.61-1.78,0-2.64-1.35-2.64-2.71,0-1.66,1.12-2.74,2.53-2.74,.88,0,1.39,.33,1.81,.59l.27-.31,.04,1.62-.21,.04c-.11-.31-.26-.66-.65-1.06-.17-.17-.5-.38-1.03-.38-.9,0-1.66,.76-1.66,2.25,0,1.19,.59,2.21,1.59,2.21,.58,0,.87-.4,.9-.43,.09-.14,.12-.26,.11-.49-.02-.66-.11-.67-.69-.73v-.28h2.1Zm-66.18-.52c.14,.03,.34,.05,.48,.05,.59,0,1.03-.46,1.06-.87,.03-.6-.27-1.12-1.22-1.12-.13,0-.21,0-.32,.03v1.91Zm0,1.13c.01,1.19,.01,1.35,.63,1.36v.29h-2.16v-.29c.56-.05,.61-.13,.62-.69v-2.55c0-.62,0-.84-.03-1.01-.04-.29-.18-.34-.6-.38v-.28h2.34c1.28,0,1.68,.62,1.68,1.34,0,.5-.31,1.15-1.02,1.37l.92,1.6c.33,.61,.51,.75,.93,.81v.17c-.11,0-.22,0-.34,0-.98,0-1.38-.33-1.79-1.21l-.29-.61c-.31-.65-.41-.61-.9-.62v.69h.01Z"/>
    <rect class="cls-50" x="66.22" y="8.65" width=".4" height="27.8"/>
    <g>
      <path class="cls-50" d="M74.54,8.65h2.54v25.64h4.2v2.16h-6.74V8.65h0Z"/>
      <path class="cls-50" d="M89.4,12.46c0-1.08-.27-1.89-1.46-1.89s-1.46,.81-1.46,1.89v2.93c0,.89,.15,1.77,.58,2.5l4.04,6.93c.58,.96,.92,2.15,.92,3.39v4.39c0,2.62-1.54,4.08-4.08,4.08-2.81,0-4.16-1.27-4.16-4.08v-3.81h2.54v3.66c0,1.31,.5,2.08,1.62,2.08,1.04,0,1.54-.77,1.54-2.08v-3.89c0-.96-.19-1.69-.73-2.66l-3.74-6.51c-.69-1.19-1.08-2.12-1.08-3.54v-3.35c0-2.73,1.42-4.08,4-4.08,2.85,0,4,1.35,4,3.89v3.54h-2.54v-3.39h.01Z"/>
      <path class="cls-50" d="M101.89,28.75h-4.47l-1.04,7.7h-2.54l4.08-27.8h3.46l4.08,27.8h-2.54l-1.03-7.7Zm-2.2-18.17h-.08l-1.92,16.02h3.93l-1.93-16.02Z"/>
    </g>
    <g>
      <path class="cls-50" d="M113.59,26V8.63h2.62l5.13,15.69h.05l5.05-15.69h2.45V26h-1.54V10.12h-.05l-5.1,15.88h-1.78l-5.25-15.88h-.05v15.88h-1.53Z"/>
      <path class="cls-50" d="M132.82,19.55c0,2.26,0,5.49,3.54,5.49s3.54-3.22,3.54-5.49V8.63h1.54v12.06c0,4.48-2.36,5.65-5.08,5.65s-5.08-1.18-5.08-5.65V8.63h1.54v10.92h0Z"/>
      <path class="cls-50" d="M151.2,13.03c-.05-2.14-.58-3.44-2.94-3.44-1.88,0-3.06,.65-3.06,2.7,0,2.57,1.3,2.65,3.27,4.07,2.14,1.54,4.33,2,4.33,5.37,0,3.1-1.59,4.62-4.62,4.62-3.39,0-4.91-1.83-4.76-5.22h1.59c0,1.92,.14,3.92,3.25,3.92,2.02,0,3.01-1.08,3.01-3.08,0-2.36-1.56-3.03-4.07-4.57-3.37-2.07-3.51-3.1-3.54-4.84-.02-3.01,1.88-4.26,4.72-4.26,3.61,0,4.38,2.24,4.38,4.74h-1.56Z"/>
      <path class="cls-50" d="M162.88,8.63v1.3h-6.33v6.5h6.04v1.3h-6.04v6.98h6.5v1.3h-8.04V8.64h7.87Z"/>
      <path class="cls-50" d="M166.1,19.55c0,2.26,0,5.49,3.54,5.49s3.54-3.22,3.54-5.49V8.63h1.54v12.06c0,4.48-2.36,5.65-5.08,5.65s-5.08-1.18-5.08-5.65V8.63h1.54v10.92h0Z"/>
      <path class="cls-50" d="M177.1,26V8.63h2.62l5.13,15.69h.05l5.05-15.69h2.45V26h-1.54V10.12h-.05l-5.1,15.88h-1.78l-5.25-15.88h-.05v15.88h-1.53Z"/>
      <path class="cls-50" d="M204.26,8.29c5.2,0,5.25,4.33,5.25,9.02s-.05,9.02-5.25,9.02-5.25-4.33-5.25-9.02,.05-9.02,5.25-9.02Zm0,16.75c3.66,0,3.71-3.1,3.71-7.72s-.05-7.72-3.71-7.72-3.71,3.1-3.71,7.72,.05,7.72,3.71,7.72Z"/>
      <path class="cls-50" d="M211.64,8.63h7.34v1.3h-5.8v6.5h5.39v1.3h-5.39v8.28h-1.54V8.63Z"/>
      <path class="cls-50" d="M232.86,8.63v1.71l-7.87,14.37h7.94v1.3h-9.53v-1.71l7.94-14.37h-7.46v-1.3h8.98Z"/>
      <path class="cls-50" d="M239.26,8.29c5.2,0,5.25,4.33,5.25,9.02s-.05,9.02-5.25,9.02-5.25-4.33-5.25-9.02c.01-4.69,.06-9.02,5.25-9.02Zm0,16.75c3.66,0,3.71-3.1,3.71-7.72s-.05-7.72-3.71-7.72-3.71,3.1-3.71,7.72c.01,4.61,.06,7.72,3.71,7.72Z"/>
      <path class="cls-50" d="M251.7,8.29c5.2,0,5.25,4.33,5.25,9.02s-.05,9.02-5.25,9.02-5.25-4.33-5.25-9.02c.01-4.69,.06-9.02,5.25-9.02Zm0,16.75c3.66,0,3.71-3.1,3.71-7.72s-.05-7.72-3.71-7.72-3.71,3.1-3.71,7.72c0,4.61,.06,7.72,3.71,7.72Z"/>
      <path class="cls-50" d="M259.07,26V8.63h1.54V24.7h5.75v1.3h-7.29Z"/>
      <path class="cls-50" d="M272.57,8.29c5.2,0,5.25,4.33,5.25,9.02s-.05,9.02-5.25,9.02-5.25-4.33-5.25-9.02c0-4.69,.06-9.02,5.25-9.02Zm0,16.75c3.66,0,3.71-3.1,3.71-7.72s-.05-7.72-3.71-7.72-3.71,3.1-3.71,7.72c0,4.61,.06,7.72,3.71,7.72Z"/>
      <path class="cls-50" d="M288.25,18.23h-3.51v-1.3h5.05v8.69c-1.54,.48-3.15,.72-4.79,.72-5.65,0-5.25-5.65-5.25-9.02s-.41-9.02,5.25-9.02c3.32,0,5.03,1.42,4.96,4.79h-1.54c0-2.29-.99-3.49-3.42-3.49-3.75,0-3.71,3.34-3.71,7.72s-.05,7.72,3.71,7.72c1.32,0,2.43-.19,3.25-.51v-6.3h0Z"/>
      <path class="cls-50" d="M295.97,18.78l-4.91-10.15h1.73l3.97,8.64,4.16-8.64h1.54l-4.96,10.15v7.22h-1.54v-7.22h0Z"/>
    </g>
  </g>
  <g>
    <path class="cls-50" d="M79.58,79.26h2.04v-10.16h-2.04v-1.5h5.78c5.1,0,7.62,2.6,7.62,6.44s-2.34,6.72-7.48,6.72h-5.92v-1.5Zm6,.02c3.18,0,4.48-1.38,4.48-5.24,0-3.48-1.34-4.96-4.64-4.96h-1.22v10.2h1.38Z"/>
    <path class="cls-50" d="M94.44,79.28h1.6v-6.3h-1.6v-1.48h3.94v7.78h1.6v1.48h-5.54v-1.48Zm1.12-10.9c0-.88,.62-1.52,1.52-1.52s1.5,.58,1.5,1.46-.6,1.52-1.5,1.52-1.52-.6-1.52-1.46Z"/>
    <path class="cls-50" d="M101.56,72.98h-1.26v-1.48h5.28v1.48h-1.5l2.06,5.92h.08l2.12-5.92h-1.24v-1.48h3.96v1.48h-1.16l-3.1,7.88h-2.24l-3-7.88Z"/>
    <path class="cls-50" d="M111.76,79.28h1.6v-6.3h-1.6v-1.48h3.94v7.78h1.6v1.48h-5.54v-1.48Zm1.12-10.9c0-.88,.62-1.52,1.52-1.52s1.5,.58,1.5,1.46-.6,1.52-1.5,1.52-1.52-.6-1.52-1.46Z"/>
    <path class="cls-50" d="M118.42,77.48h1.36c.62,1.38,1.78,2.32,2.98,2.32,.98,0,1.4-.46,1.4-1.12,0-.76-.56-1.12-2.4-1.6-2.22-.6-3.2-1.36-3.2-2.9s1.3-2.84,3.28-2.84c1.04,0,1.92,.38,2.42,1.08l.24-1.08h1.34v3.18h-1.34c-.68-1.26-1.4-2.06-2.56-2.06-.72,0-1.3,.38-1.3,1.06,0,.74,.64,1.1,2.32,1.54,2.1,.56,3.26,1.24,3.26,2.92,0,1.48-1.24,2.98-3.4,2.98-1.26,0-2.22-.54-2.82-1.26l-.26,1.24h-1.32v-3.46Z"/>
    <path class="cls-50" d="M127.52,79.28h1.6v-6.3h-1.6v-1.48h3.94v7.78h1.6v1.48h-5.54v-1.48Zm1.12-10.9c0-.88,.62-1.52,1.52-1.52s1.5,.58,1.5,1.46-.6,1.52-1.5,1.52-1.52-.6-1.52-1.46Z"/>
    <path class="cls-50" d="M134.02,76.18c0-2.84,1.98-4.84,4.78-4.84s4.78,1.92,4.78,4.76-1.98,4.86-4.78,4.86-4.78-1.94-4.78-4.78Zm7-.04c0-2.54-.84-3.6-2.3-3.6s-2.14,1.08-2.14,3.6,.82,3.62,2.3,3.62,2.14-1.1,2.14-3.62Z"/>
    <path class="cls-50" d="M144.88,79.28h1.4v-6.3h-1.4v-1.48h3.64v2.38c.88-1.64,1.92-2.52,3.42-2.52,1.7,0,2.62,1.2,2.62,3.04v4.88h1.42v1.48h-4.98v-1.48h1.24v-4.32c0-.66-.16-1.18-.48-1.5-.24-.26-.58-.38-1.02-.38-1.04,0-2.12,1.02-2.12,2.66v3.54h1.22v1.48h-4.96v-1.48Z"/>
    <path class="cls-50" d="M160.54,76.18c0-2.84,1.98-4.84,4.78-4.84s4.78,1.92,4.78,4.76-1.98,4.86-4.78,4.86-4.78-1.94-4.78-4.78Zm7-.04c0-2.54-.84-3.6-2.3-3.6s-2.14,1.08-2.14,3.6,.82,3.62,2.3,3.62,2.14-1.1,2.14-3.62Z"/>
    <path class="cls-50" d="M171.4,79.28h1.42v-6.3h-1.76v-1.38h1.76v-.4c0-3.04,2.04-4.34,4.1-4.34,1.8,0,2.74,.82,2.74,1.86,0,.72-.52,1.34-1.26,1.34-.8,0-1.32-.42-1.32-1.28,0-.22,.08-.54,.2-.74-.14-.08-.32-.12-.6-.12-.94,0-1.6,.62-1.6,2.92v.76h2.72v1.38h-2.66v6.3h2.04v1.48h-5.78v-1.48Z"/>
    <path class="cls-50" d="M182.06,79.26h2.04v-10.16h-2.04v-1.5h11.76v4.56h-1.28c-.74-2.62-1.14-3.08-2.74-3.08h-3.12v4.52h1.02c1.32,0,1.54-.24,1.8-1.96h1.28v5.36h-1.28c-.22-1.8-.48-2.06-1.8-2.06h-1.02v4.32h2.34v1.5h-6.96v-1.5Z"/>
    <path class="cls-50" d="M194.78,79.28h1.6v-6.3h-1.6v-1.48h3.94v7.78h1.6v1.48h-5.54v-1.48Zm1.12-10.9c0-.88,.62-1.52,1.52-1.52s1.5,.58,1.5,1.46-.6,1.52-1.5,1.52-1.52-.6-1.52-1.46Z"/>
    <path class="cls-50" d="M201.44,77.48h1.36c.62,1.38,1.78,2.32,2.98,2.32,.98,0,1.4-.46,1.4-1.12,0-.76-.56-1.12-2.4-1.6-2.22-.6-3.2-1.36-3.2-2.9s1.3-2.84,3.28-2.84c1.04,0,1.92,.38,2.42,1.08l.24-1.08h1.34v3.18h-1.34c-.68-1.26-1.4-2.06-2.56-2.06-.72,0-1.3,.38-1.3,1.06,0,.74,.64,1.1,2.32,1.54,2.1,.56,3.26,1.24,3.26,2.92,0,1.48-1.24,2.98-3.4,2.98-1.26,0-2.22-.54-2.82-1.26l-.26,1.24h-1.32v-3.46Z"/>
    <path class="cls-50" d="M210.28,79.28h1.42v-10.74h-1.42v-1.56h3.74v6.74c.9-1.6,1.92-2.36,3.32-2.36,1.7,0,2.62,1.2,2.62,3.04v4.88h1.42v1.48h-4.98v-1.48h1.24v-4.32c0-.66-.16-1.18-.48-1.5-.24-.26-.58-.38-1-.38-1.06,0-2.14,1.02-2.14,2.66v3.54h1.22v1.48h-4.96v-1.48Z"/>
    <path class="cls-50" d="M224.82,76.36c.08,2.26,1.02,3.18,2.68,3.18,1.1,0,1.9-.48,2.4-1.66h1.2c-.46,1.96-1.84,3.08-4.12,3.08-2.92,0-4.64-2-4.64-4.72s1.98-4.9,4.68-4.9c2.92,0,4.24,2.34,4.14,5.02h-6.34Zm.02-1.06h4c-.12-1.8-.68-2.78-1.94-2.78-1.14,0-1.9,.74-2.06,2.78Z"/>
    <path class="cls-50" d="M232.64,77.48h1.36c.62,1.38,1.78,2.32,2.98,2.32,.98,0,1.4-.46,1.4-1.12,0-.76-.56-1.12-2.4-1.6-2.22-.6-3.2-1.36-3.2-2.9s1.3-2.84,3.28-2.84c1.04,0,1.92,.38,2.42,1.08l.24-1.08h1.34v3.18h-1.34c-.68-1.26-1.4-2.06-2.56-2.06-.72,0-1.3,.38-1.3,1.06,0,.74,.64,1.1,2.32,1.54,2.1,.56,3.26,1.24,3.26,2.92,0,1.48-1.24,2.98-3.4,2.98-1.26,0-2.22-.54-2.82-1.26l-.26,1.24h-1.32v-3.46Z"/>
  </g>
  <g id="Layer_2" data-name="Layer 2">
    <g id="Layer_3" data-name="Layer 3">
      <g>
        <path class="cls-29" d="M266.67,385.59h33.39v7.37h-1l-2.56,5.47-2.58-5.45h-.99l3.04,6.55-1.93,4.5h1.01c.04-.07,.07-.12,.09-.18,1.25-2.77,2.5-5.54,3.75-8.3,.38-.84,.78-1.68,1.17-2.52v11.15h-51.88c0-6.1,0-12.2,0-18.3,0-.09-.07-.21,.06-.28v8.55c0,.07-.02,.14,.03,.2,.05-.06,.02-.13,.03-.2v-.31c.05-.41,.13-.81,.23-1.21,.22-.88,.6-1.7,1.03-2.5h0l.05-.07h0l.04-.06,.03-.06,.05-.07,.25-.37,.43-.56,1.02-1.04c.93-.77,1.96-1.37,3.08-1.8l1.24-.33c.07,0,.14,0,.19-.05l.18-.02c.07,.01,.14,0,.19-.04h.61c.09-.01,.18,.03,.25-.07h1.49c.03,.05,.08,.06,.13,.06h.67c.08,.06,.17,.07,.26,.06h.13l.02,.02h.02l.14,.03,.17,.02,.14,.04,.12,.02,.13,.04,.5,.13,.56,.19h0s.07,.06,.13,.05l.74,.33h0l.07,.04,1.24,.77c.8,.62,1.51,1.34,2.11,2.15l.06,.08s0,.04,.03,.05l.04,.06h0l.05,.08s0,.04,.03,.05l.04,.06h0l.05,.08s0,.03,.02,.04l.05,.07,.03,.06,.04,.05h0l.05,.09s0,.03,.02,.04l.05,.07s0,.04,.02,.05l.04,.06h0c.01,.08,.04,.15,.11,.2,.04-.05,.03-.1,.02-.15v-5.02Zm-3.84,18.28l-.07,.06h0c-.12,.02-.22,.07-.35,.18h4.26c.08-.06,.05-.14,.05-.21,0-1.21,0-2.42,0-3.62,0-.11,0-.23-.1-.35-.45,.88-1.03,1.64-1.69,2.34l-.06,.05h0l-.06,.06h0l-.87,.75-.06,.05h0l-.56,.38-.06,.05h0c-.05,0-.09,.02-.12,.07h0l-.07,.06s-.04,0-.05,.01l-.06,.05-.06,.02-.06,.05h0Zm-9.74,0h0l-.05-.04-.06-.03-.06-.04s-.03-.02-.05-.02l-.08-.05h0l-.12-.07h0l-.06-.05s-.03-.02-.05-.02l-.08-.06h0l-.06-.05s-.03-.02-.05-.02l-.08-.06h0l-.06-.05-.11-.08-.07-.06h0l-.06-.05-.11-.08-.07-.06c-.06-.09-.15-.15-.24-.2l-.99-.98-.07-.07h0l-.06-.07h0l-.42-.55-.29-.43-.34-.56c-.02-.09-.06-.18-.13-.24-.04-.16-.11-.3-.2-.43,0-.05-.01-.09-.06-.12h0c-.03-.16-.09-.3-.17-.44l-.08-.25c0-.05,0-.1-.05-.13,0-.02,0-.04-.01-.05,0-.05,0-.1-.05-.14l-.02-.11-.06-.25-.04-.13-.02-.12-.04-.14v-.11l-.02-.06-.04-.14-.02-.17s0-.04,0-.06l-.06-.5v-.18s.02-.07-.04-.08v4.04c0,1.16,0,2.33-.01,3.49,0,.08-.03,.17,.05,.23,.05,.01,.1,.03,.15,.03,1.64,0,3.27,0,4.91,0,.04,0,.06-.01,.05-.06l-.07-.03s-.02-.02-.04-.01l-.08-.05s-.02-.02-.04-.02l-.09-.05Zm6.83-4.72c1.66,1.76,4.24,1.52,5.58,.15,1.35-1.39,1.41-3.7,.17-5.17-1.28-1.52-4.08-1.88-5.76-.07v-1.09h-.89v10.64h.89v-4.46Zm-9.09-1.58c.22,.76,.54,1.4,1.09,1.92,1,.92,2.22,1.01,3.49,.88,.63-.06,1.2-.28,1.71-.67,1.4-1.07,1.6-3.5,.42-4.94-.57-.69-1.32-1.11-2.1-1.49-.71-.35-1.46-.64-2.12-1.08-1.06-.71-1.17-2.14-.24-3.01,.92-.86,2.8-.8,3.66,.11,.15,.16,.28,.35,.42,.53l.83-.37c-.15-.29-.31-.53-.51-.74-1.22-1.27-3.52-1.41-4.9-.3-1.27,1.02-1.42,2.97-.31,4.16,.39,.42,.89,.69,1.4,.95,.76,.39,1.57,.69,2.31,1.13,.99,.58,1.47,1.43,1.41,2.59-.06,1.05-.64,1.82-1.64,2.12-.53,.16-1.07,.19-1.62,.12-1.02-.12-1.75-.63-2.16-1.58-.08-.2-.15-.4-.24-.62l-.88,.3Zm24.57-1c.18-1.7-1.12-3.34-2.85-3.67-2.16-.41-4.03,.65-4.57,2.57-.56,1.99,.4,4.05,2.23,4.7,1.84,.65,3.99,.04,4.85-1.81l-.8-.36c-1.07,1.45-2.38,1.89-3.86,1.31-1.06-.42-1.77-1.6-1.64-2.74h6.64Zm14.61-3.63c0-.42,0-.82,0-1.22,0-.9-.01-1.8,0-2.69,.01-.64,.38-.95,1-.86,.28,.04,.56,.09,.86,.13v-.87c-.3-.16-.48-.2-.96-.21-1.21-.03-1.83,.58-1.83,1.78,0,1.2,0,2.4,0,3.59,0,.11,.03,.23-.05,.36h-.91v.89h.98v6.43c.31,0,.61,.04,.92-.02v-6.41h1.65v-.9h-1.66Zm-6.96,5.65c-.12,.1-.21,.17-.3,.24-1.01,.82-2.51,.93-3.57,.27-1.06-.66-1.56-1.93-1.24-3.24,.48-2.01,2.58-2.55,4.14-1.86,.33,.15,.64,.36,.97,.56v-1.05c-1.32-1.09-3.77-.86-5.08,.48-1.3,1.33-1.34,3.71-.14,5.13,1.41,1.67,3.94,1.57,5.21,.6v-1.13Zm2.86,1.68v-7.31c-.3,0-.58-.03-.86,.01-.06,.52-.04,7.07,.03,7.29h.83Zm-.38-8.41c.39,0,.63-.24,.64-.61,0-.37-.32-.73-.66-.73-.37,0-.69,.31-.7,.65,0,.4,.3,.69,.72,.68Z"/>
        <path class="cls-51" d="M300.06,393.02c-.39,.84-.79,1.67-1.17,2.52-1.25,2.77-2.5,5.54-3.75,8.3-.03,.06-.06,.11-.09,.18h-1.01l1.93-4.5-3.04-6.55h.99l2.58,5.45,2.56-5.47h1v.06Z"/>
        <path class="cls-91" d="M254.51,386.09c-1.13,.43-2.16,1.03-3.08,1.8-.08-.01-.13,.03-.2,.07-.99,.57-1.99,1.15-2.98,1.72v-.43c1.32-.75,2.64-1.51,3.96-2.26,.79-.46,1.57-.92,2.36-1.39h.68c-.2,.24-.52,.29-.74,.5Z"/>
        <path class="cls-95" d="M266.67,387.69v.81c-.4-.39-.8-.77-1.19-1.16-.58-.58-1.15-1.17-1.73-1.75h.81c.68,.73,1.38,1.43,2.11,2.11Z"/>
        <path class="cls-93" d="M266.33,390.17l-.03-.06-.05-.07s-.02-.03-.02-.04l-.05-.08h0l-.04-.06s-.03-.03-.03-.05l-.05-.08h0l-.04-.06s-.03-.03-.03-.05l-.06-.08c-.61-.81-1.32-1.53-2.11-2.15-.03-.13-.15-.19-.23-.28-.5-.51-1-1.02-1.5-1.53,.12,0,.25,0,.37,0,.07,.08,.14,.17,.22,.25,1.03,1.03,2.07,2.07,3.11,3.1,.29,.29,.59,.57,.89,.86v.81l-.12-.06h0l-.04-.06s-.02-.03-.02-.05l-.05-.07s-.02-.02-.02-.04l-.05-.08h0l-.04-.06Z"/>
        <path class="cls-81" d="M248.25,388.43v-.37c1.08-.62,2.16-1.23,3.22-1.87,.33-.2,.7-.33,.99-.61h.68c-.87,.51-1.74,1.01-2.6,1.52-.76,.44-1.53,.89-2.29,1.33Z"/>
        <path class="cls-68" d="M263.76,385.59c.57,.58,1.15,1.17,1.73,1.75,.39,.39,.79,.77,1.19,1.16v.5c-.73-.72-1.47-1.44-2.2-2.17-.41-.41-.81-.82-1.21-1.24,.17,0,.33,0,.5,0Z"/>
        <path class="cls-57" d="M254.57,385.59c-.79,.46-1.57,.93-2.36,1.39-1.32,.76-2.64,1.51-3.96,2.26v-.25c.18-.09,.37-.18,.54-.28,1.42-.82,2.85-1.64,4.27-2.47,.36-.21,.76-.37,1.07-.65h.43Z"/>
        <path class="cls-85" d="M266.67,387.69c-.73-.68-1.43-1.38-2.11-2.11h.74c.43,.48,.89,.93,1.36,1.36v.74Z"/>
        <path class="cls-90" d="M266.67,389.8c-.3-.29-.6-.57-.89-.86-1.04-1.03-2.07-2.07-3.11-3.1-.08-.08-.15-.17-.22-.25,.1,0,.21,0,.31,0,.64,.64,1.27,1.29,1.91,1.93,.66,.66,1.33,1.31,2,1.97v.31Z"/>
        <path class="cls-84" d="M248.25,388.43c.76-.44,1.53-.89,2.29-1.33,.87-.51,1.74-1.01,2.6-1.52h.37c-.12,.08-.23,.17-.36,.24-1.15,.66-2.3,1.32-3.45,1.99-.48,.28-.94,.58-1.45,.81v-.19Z"/>
        <path class="cls-61" d="M254.14,385.59c-.31,.29-.71,.44-1.07,.65-1.42,.83-2.85,1.65-4.27,2.47-.18,.1-.36,.19-.54,.28v-.19c1.06-.6,2.13-1.2,3.19-1.81,.8-.46,1.59-.94,2.39-1.4h.31Z"/>
        <path class="cls-72" d="M263.26,385.59c.4,.41,.8,.83,1.21,1.24,.73,.73,1.47,1.45,2.2,2.17v.31c-.95-.94-1.91-1.88-2.86-2.83-.29-.29-.57-.59-.86-.89h.31Z"/>
        <path class="cls-87" d="M253.83,385.59c-.8,.47-1.59,.94-2.39,1.4-1.06,.61-2.12,1.21-3.19,1.81v-.18c.51-.23,.97-.53,1.45-.81,1.15-.66,2.3-1.32,3.45-1.99,.12-.07,.24-.16,.36-.24h.31Z"/>
        <path class="cls-86" d="M248.25,387.88v-.25c.53-.3,1.08-.59,1.6-.9,.64-.38,1.31-.71,1.92-1.14h.43l-3.96,2.29Z"/>
        <path class="cls-15" d="M262.08,385.59c.5,.51,1,1.02,1.5,1.53,.08,.09,.2,.15,.23,.28l-1.24-.77-.07-.05h0c-.25-.38-.65-.63-.92-1h.5Z"/>
        <path class="cls-74" d="M262.95,385.59c.29,.3,.57,.6,.86,.89,.95,.94,1.91,1.89,2.86,2.83v.19c-.67-.66-1.34-1.31-2-1.97-.64-.64-1.27-1.29-1.91-1.93h.19Z"/>
        <path class="cls-41" d="M248.25,387.88l3.96-2.29h.25c-.28,.28-.66,.41-.99,.61-1.07,.63-2.15,1.25-3.22,1.87v-.19Z"/>
        <path class="cls-70" d="M248.25,387.26v-.19c.19-.1,.38-.2,.56-.31,.65-.39,1.34-.74,1.97-1.17h.37c-.56,.33-1.11,.67-1.67,.99-.41,.23-.8,.51-1.24,.69Z"/>
        <path class="cls-42" d="M266.67,386.95c-.48-.43-.93-.88-1.36-1.36h.5c.26,.32,.55,.6,.87,.87v.5Z"/>
        <path class="cls-102" d="M250.79,385.59c-.63,.43-1.32,.78-1.97,1.17-.18,.11-.37,.21-.56,.31v-.19c.35-.21,.71-.41,1.06-.63,.36-.23,.77-.38,1.1-.67h.37Z"/>
        <path class="cls-80" d="M250.41,385.59c-.32,.29-.74,.44-1.1,.67-.35,.22-.71,.42-1.06,.63v-.25c.6-.34,1.22-.66,1.79-1.05h.37Z"/>
        <path class="cls-78" d="M251.78,385.59c-.61,.43-1.28,.76-1.92,1.14-.53,.31-1.07,.6-1.6,.9v-.13c.82-.46,1.65-.92,2.46-1.4,.28-.16,.6-.27,.82-.52h.25Z"/>
        <path class="cls-73" d="M251.53,385.59c-.22,.25-.54,.36-.82,.52-.81,.48-1.64,.93-2.46,1.4v-.12c.4-.22,.8-.43,1.18-.66,.63-.38,1.31-.69,1.91-1.13h.19Z"/>
        <path class="cls-66" d="M261.59,385.59c.27,.37,.67,.62,.92,1.01-.25-.11-.49-.22-.74-.33-.03-.05-.08-.05-.13-.05h0c-.03-.28-.3-.4-.43-.62h.37Z"/>
        <path class="cls-76" d="M251.35,385.59c-.6,.44-1.28,.75-1.91,1.13-.39,.23-.79,.44-1.18,.66v-.12c.44-.18,.83-.45,1.24-.69,.56-.32,1.11-.66,1.67-.99h.19Z"/>
        <path class="cls-98" d="M254.51,386.09c.22-.21,.54-.26,.74-.5h1.3s0,.04,0,.05h-.24c-.07,0-.14,0-.19,.05l-.18,.02c-.07,0-.14-.02-.19,.05l-1.24,.33Z"/>
        <path class="cls-75" d="M266.67,386.45c-.31-.27-.6-.55-.87-.87h.43c.12,.17,.26,.31,.43,.43v.43Z"/>
        <path class="cls-97" d="M261.21,385.59c.13,.22,.4,.34,.43,.62l-.56-.19-.37-.43h.5Z"/>
        <path class="cls-94" d="M260.72,385.59l.37,.43-.5-.13-.13-.04-.12-.02s-.09-.05-.14-.04l-.17-.02s-.09-.05-.14-.04h-.04l-.06-.13h.93Z"/>
        <path class="cls-52" d="M250.04,385.59c-.57,.39-1.19,.71-1.79,1.05v-.12c.5-.33,1.06-.57,1.54-.93h.25Z"/>
        <path class="cls-54" d="M248.25,386.39v-.19l1.04-.62h.31l-1.35,.8Z"/>
        <path class="cls-53" d="M248.25,386.39l1.35-.8h.19c-.48,.36-1.04,.6-1.54,.93v-.12Z"/>
        <path class="cls-62" d="M248.25,386.08v-.18c.19-.09,.38-.18,.55-.31h.25c-.23,.23-.53,.33-.8,.49Z"/>
        <path class="cls-55" d="M248.25,386.08c.26-.17,.57-.27,.8-.49h.25l-1.04,.62v-.12Z"/>
        <path class="cls-56" d="M266.67,386.02c-.17-.12-.31-.26-.43-.43h.43v.43Z"/>
        <path class="cls-63" d="M248.8,385.59c-.17,.13-.36,.22-.55,.31v-.31h.55Z"/>
        <path class="cls-37" d="M259.79,385.59l.06,.13h-.13c-.07-.09-.17-.06-.26-.06h-.24s0-.05,0-.07h.56Z"/>
        <path class="cls-43" d="M257.18,385.59c-.07,.09-.16,.05-.25,.06,0-.02,0-.04,0-.06h.25Z"/>
        <path class="cls-39" d="M256.56,385.64s0-.04,0-.05h.19s0,.04,0,.05h-.18Z"/>
        <path class="cls-46" d="M256.74,385.64s0-.04,0-.05h.19s0,.04,0,.06h-.19Z"/>
        <path class="cls-47" d="M258.98,385.64h-.18s0-.03,0-.05h.19s0,.03,0,.05Z"/>
        <path class="cls-45" d="M258.98,385.64s0-.03,0-.05h.19s0,.04,0,.05h-.19Z"/>
        <path class="cls-49" d="M258.79,385.59s0,.04,0,.06c-.05,0-.1,0-.13-.06h.12Z"/>
        <path class="cls-40" d="M259.17,385.64s0-.04,0-.05h.06s0,.03,0,.05h-.06Z"/>
        <path class="cls-51" d="M259.92,399.14v4.46h-.89v-10.64h.89v1.09c1.68-1.82,4.48-1.45,5.76,.07,1.24,1.47,1.18,3.78-.17,5.17-1.34,1.38-3.92,1.61-5.58-.15Zm2.87-5.41c-1.64,0-2.9,1.24-2.9,2.86,0,1.6,1.32,2.93,2.91,2.91,1.58-.01,2.87-1.31,2.88-2.88,0-1.59-1.3-2.89-2.89-2.89Z"/>
        <path class="cls-51" d="M250.82,397.57l.88-.3c.08,.22,.15,.43,.24,.62,.4,.95,1.14,1.46,2.16,1.58,.55,.07,1.09,.04,1.62-.12,1.01-.3,1.59-1.07,1.64-2.12,.06-1.16-.43-2.01-1.41-2.59-.74-.44-1.54-.74-2.31-1.13-.51-.26-1.01-.53-1.4-.95-1.11-1.19-.96-3.14,.31-4.16,1.39-1.11,3.69-.97,4.9,.3,.2,.21,.36,.45,.51,.74l-.83,.37c-.14-.18-.27-.37-.42-.53-.86-.92-2.74-.97-3.66-.11-.93,.87-.82,2.3,.24,3.01,.66,.45,1.41,.73,2.12,1.08,.78,.39,1.54,.8,2.1,1.49,1.18,1.44,.98,3.87-.42,4.94-.5,.39-1.08,.6-1.71,.67-1.27,.13-2.49,.04-3.49-.88-.56-.51-.88-1.16-1.09-1.92Z"/>
        <path class="cls-51" d="M275.39,396.57h-6.64c-.13,1.14,.58,2.32,1.64,2.74,1.48,.58,2.79,.14,3.86-1.31l.8,.36c-.86,1.85-3.01,2.46-4.85,1.81-1.83-.65-2.79-2.71-2.23-4.7,.54-1.92,2.41-2.97,4.57-2.57,1.73,.33,3.03,1.97,2.85,3.67Zm-1.03-.9c-.2-1.1-1.36-1.94-2.69-1.97-1.37-.03-2.5,.77-2.78,1.97h5.47Z"/>
        <path class="cls-51" d="M290,392.94h1.66v.9h-1.65v6.41c-.32,.06-.61,.03-.92,.02v-6.43h-.98v-.89h.91c.09-.13,.05-.25,.05-.36,0-1.2,0-2.4,0-3.59,0-1.21,.62-1.81,1.83-1.78,.48,.01,.66,.05,.96,.21v.87c-.3-.05-.58-.09-.86-.13-.63-.09-.99,.21-1,.86-.02,.9,0,1.8,0,2.69,0,.4,0,.8,0,1.22Z"/>
        <path class="cls-51" d="M283.04,398.59v1.13c-1.27,.97-3.8,1.06-5.21-.6-1.2-1.42-1.16-3.81,.14-5.13,1.31-1.34,3.76-1.57,5.08-.48v1.05c-.34-.2-.64-.41-.97-.56-1.56-.69-3.65-.15-4.14,1.86-.32,1.31,.18,2.59,1.24,3.24,1.06,.66,2.56,.55,3.57-.27,.09-.07,.17-.14,.3-.24Z"/>
        <path class="cls-59" d="M285.9,400.26h-.83c-.07-.22-.09-6.77-.03-7.29,.28-.04,.56-.02,.86-.01v7.31Z"/>
        <path class="cls-71" d="M249.56,390.11c-.43,.8-.81,1.61-1.03,2.5-.1,.4-.17,.8-.23,1.21-.02,0-.03,0-.05,0v-2.97c.43-.26,.85-.52,1.31-.73Z"/>
        <path class="cls-59" d="M285.51,391.85c-.42,0-.72-.28-.72-.68,0-.35,.33-.65,.7-.65,.34,0,.66,.36,.66,.73,0,.37-.25,.6-.64,.61Z"/>
        <path class="cls-89" d="M248.25,389.67c.99-.57,1.99-1.14,2.98-1.72,.06-.04,.12-.08,.2-.07-.34,.35-.68,.7-1.02,1.04-.27,.08-.49,.26-.73,.39-.48,.26-.93,.57-1.43,.79v-.44Z"/>
        <path class="cls-38" d="M264.94,402.26c.66-.7,1.24-1.46,1.69-2.34,.09,.12,.1,.24,.1,.35,0,1.21,0,2.42,0,3.62,0,.07,.02,.15-.05,.2v-.05c0-.24,0-.49,0-.74v-2.48c0-.09,.03-.18-.03-.27-.12,.04-.18,.14-.25,.22-.6,.72-1.22,1.44-1.81,2.17-.3,.37-.64,.69-.89,1.1h-.19c.1-.25,.32-.41,.47-.62,.26-.36,.6-.66,.83-1.04h0l.06-.06h0l.06-.06Z"/>
        <path class="cls-6" d="M253.29,403.98s.03,0,.04,.01c-.22,.11-.46,.03-.68,.04-1.45-1.21-2.89-2.43-4.34-3.64v-.19c.83,.7,1.66,1.41,2.51,2.1,.22,.18,.38,.47,.72,.49,.09,.05,.18,.11,.24,.2l.07,.06,.11,.08,.06,.05h0l.07,.06,.11,.08,.06,.05h0l.08,.06s.03,0,.05,.02l.06,.05h0l.08,.06s.03,0,.05,.02l.06,.05h0s.07,.06,.12,.07h0l.08,.05s.04,0,.05,.02l.06,.04,.06,.03,.05,.04h0l.09,.05s.03,0,.04,.02l.08,.05Z"/>
        <path class="cls-2" d="M251.54,402.79c-.34-.02-.49-.31-.72-.49-.85-.68-1.68-1.4-2.52-2.1v-.25c.32,.27,.63,.55,.96,.8,.4,.3,.73,.68,1.16,.93h0l.06,.07h0l.07,.06,.99,.98Z"/>
        <path class="cls-65" d="M249.56,390.11c-.45,.22-.88,.48-1.3,.73v-.43s.1-.03,.14-.06c.53-.3,1.02-.64,1.58-.87l-.25,.37-.05,.07-.03,.06-.04,.05h0l-.05,.08h0Z"/>
        <path class="cls-99" d="M249.98,389.49c-.56,.23-1.06,.58-1.58,.87-.04,.02-.09,.04-.14,.06v-.31c.5-.22,.95-.53,1.43-.79,.24-.13,.46-.31,.73-.39l-.43,.56Z"/>
        <path class="cls-5" d="M250.43,401.68c-.44-.25-.77-.63-1.16-.93-.33-.25-.64-.53-.96-.8v-.19c.32,.27,.63,.56,.97,.8,.25,.18,.41,.47,.73,.55l.42,.56Z"/>
        <path class="cls-14" d="M264.82,402.38c-.23,.38-.57,.68-.83,1.04-.15,.21-.38,.37-.47,.62-.12,0-.25,0-.37,0,.04-.09,.13-.13,.19-.19,.21-.2,.41-.42,.55-.67h0l.06-.05,.87-.74Z"/>
        <path class="cls-8" d="M250.01,401.13c-.32-.09-.48-.38-.73-.55-.34-.24-.65-.53-.97-.8v-.19c.15,.09,.28,.21,.42,.31,.34,.26,.62,.6,1,.8l.29,.43Z"/>
        <path class="cls-3" d="M249.72,400.7c-.38-.21-.66-.54-1-.8-.14-.11-.27-.22-.42-.31v-.25c.17,.1,.31,.24,.46,.36,.2,.15,.34,.39,.61,.44l.34,.56Z"/>
        <path class="cls-20" d="M252.64,404.03c.23-.01,.46,.07,.68-.04l.07,.03c0,.05-.02,.06-.05,.06-1.64,0-3.27,0-4.91,0-.05,0-.1-.02-.15-.03l.02-.02c.2,0,.41,0,.61,0h1.18c.08,0,.17,0,.25,0h2.3Z"/>
        <path class="cls-21" d="M249.04,399.46c.09,.14,.16,.28,.2,.43l-.94-.74v-.31c.25,.14,.41,.4,.69,.5h0s0,.09,.06,.12Z"/>
        <path class="cls-67" d="M263.88,403.18c-.14,.26-.34,.47-.55,.67-.07,.06-.15,.11-.19,.19h-.39l.02-.13h0l.07-.05h0l.06-.05,.06-.02,.06-.05s.03-.01,.05-.01l.07-.06h0c.05,0,.1-.02,.12-.07h0l.06-.05,.56-.38Z"/>
        <path class="cls-28" d="M248.3,398.84v1.48s-.03,0-.05,.01c0-1.26,0-2.52,0-3.78h.05l.06,.5-.05,.06v1.73Z"/>
        <path class="cls-2" d="M248.25,400.33s.03,0,.05-.01v3.73c-.08-.06-.05-.15-.05-.23,0-1.16,0-2.33,0-3.49Z"/>
        <path class="cls-23" d="M248.3,398.59v-.56c.14,0,.19,.13,.3,.18l.02,.11c0,.05,0,.1,.05,.14,.01,.02,.02,.03,.01,.05,0,.05,0,.1,.05,.13l.08,.25c-.24,0-.28-.3-.51-.31Z"/>
        <path class="cls-101" d="M262.76,403.91l-.02,.13h.39c.12,0,.25,0,.37,0,.06,0,.12,0,.19,0h1.74s0,.04,0,.05h-3.02c.12-.11,.23-.16,.35-.18Z"/>
        <path class="cls-27" d="M248.3,399.34v-.19l.94,.74c.07,.07,.11,.15,.13,.24-.27-.05-.41-.3-.61-.44-.16-.11-.3-.25-.46-.36Z"/>
        <path class="cls-25" d="M248.3,398.59c.23,0,.27,.31,.51,.31,.09,.13,.14,.28,.17,.44-.28-.1-.44-.36-.68-.5v-.25Z"/>
        <path class="cls-26" d="M248.6,398.22c-.1-.05-.16-.19-.3-.18v-.62h.06l.05,.06v.11c0,.05,.01,.1,.05,.14l.02,.12,.04,.13,.06,.25Z"/>
        <path class="cls-96" d="M265.43,404.1s0-.03,0-.05h1.24v.04c-.41,0-.82,0-1.23,.01Z"/>
        <path class="cls-9" d="M248.37,397.42h-.06v-.31h.05l.02,.17v.14Z"/>
        <path class="cls-13" d="M266.55,390.54l.12,.06c.01,.05,.02,.1-.02,.15-.06-.06-.1-.13-.11-.21Z"/>
        <path class="cls-48" d="M248.3,394.13c0,.07,.02,.14-.03,.2-.05-.06-.02-.13-.03-.2h.06Z"/>
        <path class="cls-40" d="M259.46,385.65c.09,0,.18-.03,.26,.05-.09,0-.18,0-.26-.05Z"/>
        <path class="cls-33" d="M248.3,396.55h-.05v-.18h.05v.18Z"/>
        <path class="cls-79" d="M256.13,385.69c.05-.06,.13-.05,.19-.04-.06,.05-.12,.05-.19,.04Z"/>
        <path class="cls-79" d="M255.75,385.76c.05-.06,.12-.05,.19-.05-.05,.05-.12,.06-.19,.05Z"/>
        <path class="cls-36" d="M248.25,393.82s.03,0,.05,0v.18s-.03,0-.05,0v-.18Z"/>
        <path class="cls-37" d="M260.2,385.78c.05,0,.1,0,.14,.04l-.14-.04Z"/>
        <path class="cls-44" d="M248.25,394.01s.03,0,.04,0v.13h-.05v-.13Z"/>
        <path class="cls-9" d="M248.54,397.97l-.04-.13,.04,.13Z"/>
        <path class="cls-101" d="M263.26,403.61c-.02,.05-.07,.06-.12,.07,.03-.05,.07-.06,.12-.07Z"/>
        <path class="cls-20" d="M252.77,403.68c-.05,0-.09-.02-.12-.07l.12,.07Z"/>
        <path class="cls-10" d="M248.37,397.42v-.14l.05,.14s-.03,0-.05,0h0Z"/>
        <path class="cls-22" d="M248.67,398.47c-.05-.03-.05-.08-.05-.14,.04,.04,.05,.08,.05,.14Z"/>
        <path class="cls-22" d="M248.73,398.65s-.05-.08-.05-.13c.04,.03,.06,.08,.05,.13Z"/>
        <path class="cls-30" d="M248.3,396.37h-.05v-.08c.07,0,.05,.05,.05,.08Z"/>
        <path class="cls-25" d="M249.04,399.46s-.06-.07-.06-.12c.04,.03,.06,.07,.06,.12Z"/>
        <path class="cls-10" d="M248.48,397.72s-.05-.08-.04-.14l.04,.14Z"/>
        <path class="cls-40" d="M259.89,385.72c.05,0,.1,0,.14,.04l-.14-.04Z"/>
        <path class="cls-37" d="M260.46,385.84l.13,.04-.13-.04Z"/>
        <path class="cls-97" d="M261.64,386.21c.05,0,.1,0,.13,.05-.05,0-.09-.01-.13-.05Z"/>
        <path class="cls-66" d="M262.5,386.59l.07,.05-.07-.05Z"/>
        <path class="cls-13" d="M265.93,389.55l.06,.08-.06-.08Z"/>
        <path class="cls-14" d="M264.94,402.26l-.06,.05,.06-.05Z"/>
        <path class="cls-13" d="M266.01,389.68l.04,.06-.04-.06Z"/>
        <path class="cls-14" d="M264.88,402.32l-.06,.06,.06-.06Z"/>
        <path class="cls-13" d="M266.5,390.48l.04,.06-.04-.06Z"/>
        <path class="cls-13" d="M266.06,389.73l.05,.08-.05-.08Z"/>
        <path class="cls-5" d="M250.55,401.81l-.07-.07,.07,.07Z"/>
        <path class="cls-71" d="M249.67,389.93l.05-.07-.05,.07Z"/>
        <path class="cls-5" d="M250.49,401.75l-.06-.07,.06,.07Z"/>
        <path class="cls-10" d="M248.36,397.11h-.05l.05-.06s0,.04,0,.06Z"/>
        <path class="cls-20" d="M251.85,403.05l-.07-.06,.07,.06Z"/>
        <path class="cls-13" d="M266.44,390.36l.05,.07-.05-.07Z"/>
        <path class="cls-67" d="M263.94,403.12l-.06,.05,.06-.05Z"/>
        <path class="cls-13" d="M266.14,389.86l.04,.06-.04-.06Z"/>
        <path class="cls-20" d="M252.1,403.24l-.07-.06,.07,.06Z"/>
        <path class="cls-13" d="M266.18,389.92l.05,.08-.05-.08Z"/>
        <path class="cls-20" d="M252.28,403.36l-.06-.05,.06,.05Z"/>
        <path class="cls-71" d="M249.61,390.04l.04-.05-.04,.05Z"/>
        <path class="cls-20" d="M252.36,403.42l-.08-.06,.08,.06Z"/>
        <path class="cls-20" d="M252.46,403.49l-.06-.05,.06,.05Z"/>
        <path class="cls-71" d="M249.55,390.12l.05-.07-.05,.07Z"/>
        <path class="cls-20" d="M252.54,403.54l-.08-.06,.08,.06Z"/>
        <path class="cls-20" d="M252.65,403.61l-.06-.05,.06,.05Z"/>
        <path class="cls-101" d="M263.32,403.56l-.06,.05,.06-.05Z"/>
        <path class="cls-13" d="M266.25,390.05l.05,.07-.05-.07Z"/>
        <path class="cls-13" d="M266.33,390.17l.04,.05-.04-.05Z"/>
        <path class="cls-20" d="M252.85,403.73l-.08-.05,.08,.05Z"/>
        <path class="cls-101" d="M263.14,403.68l-.07,.06,.07-.06Z"/>
        <path class="cls-20" d="M252.96,403.8l-.06-.04,.06,.04Z"/>
        <path class="cls-101" d="M263.01,403.75l-.06,.05,.06-.05Z"/>
        <path class="cls-20" d="M253.08,403.86l-.05-.04,.05,.04Z"/>
        <path class="cls-101" d="M262.89,403.81l-.06,.05,.06-.05Z"/>
        <path class="cls-20" d="M253.17,403.91l-.09-.05,.09,.05Z"/>
        <path class="cls-101" d="M262.83,403.86l-.07,.06,.07-.06Z"/>
        <path class="cls-20" d="M253.29,403.98l-.08-.05,.08,.05Z"/>
        <path class="cls-9" d="M248.37,397.42s.03,0,.05,0v.06l-.05-.06Z"/>
        <path class="cls-13" d="M266.37,390.23l.05,.08-.05-.08Z"/>
        <path class="cls-20" d="M252.03,403.18l-.06-.05,.06,.05Z"/>
        <path class="cls-29" d="M262.78,393.74c1.59,0,2.89,1.31,2.89,2.89,0,1.58-1.3,2.87-2.88,2.88-1.59,.01-2.91-1.32-2.91-2.91,0-1.62,1.27-2.86,2.9-2.86Z"/>
        <path class="cls-29" d="M274.36,395.67h-5.47c.28-1.2,1.41-2,2.78-1.97,1.34,.03,2.49,.87,2.69,1.97Z"/>
        <path class="cls-69" d="M264.38,404.04h-.43c.22-.23,.44-.47,.63-.72,.36-.48,.79-.92,1.16-1.4,.29-.38,.62-.73,.93-1.1,0,.17,0,.33,0,.5-.76,.91-1.53,1.81-2.29,2.72Z"/>
        <path class="cls-92" d="M266.67,400.83c-.31,.36-.64,.72-.93,1.1-.37,.48-.79,.91-1.16,1.4-.19,.25-.41,.49-.63,.72h-.25c.24-.41,.59-.73,.89-1.1,.59-.73,1.2-1.45,1.81-2.17,.07-.08,.13-.18,.25-.22,.06,.09,.02,.18,.03,.27Z"/>
        <path class="cls-64" d="M264.38,404.04c.76-.91,1.53-1.81,2.29-2.72,0,.14,0,.29,0,.43-.17,.08-.23,.26-.34,.38-.53,.63-1.09,1.24-1.57,1.9h-.37Z"/>
        <path class="cls-88" d="M265.12,404.04h-.25c.21-.25,.41-.51,.63-.76,.4-.44,.73-.94,1.16-1.35v.25c-.34,.31-.62,.68-.91,1.04-.22,.27-.49,.49-.63,.82Z"/>
        <path class="cls-60" d="M265.74,404.04h-.31c.4-.48,.77-.99,1.23-1.42v.31c-.33,.35-.65,.71-.92,1.11Z"/>
        <path class="cls-100" d="M266.67,401.94c-.43,.41-.77,.9-1.16,1.35-.22,.24-.42,.5-.63,.76h-.12c.48-.67,1.04-1.27,1.57-1.9,.11-.13,.17-.3,.34-.38v.19Z"/>
        <path class="cls-77" d="M265.12,404.04c.14-.32,.42-.55,.63-.82,.29-.36,.57-.73,.91-1.04v.25c-.21,.02-.26,.2-.3,.33-.28,.22-.45,.5-.68,.8l-.2,.13c.03,.18-.13,.24-.24,.34h-.12Z"/>
        <path class="cls-82" d="M265.74,404.04c.27-.4,.59-.76,.92-1.11,0,.12,0,.25,0,.37-.28,.2-.45,.5-.67,.74h-.25Z"/>
        <path class="cls-83" d="M265.99,404.04c.23-.24,.4-.54,.67-.74v.74c-.22,0-.45,0-.67,0Z"/>
        <path class="cls-58" d="M265.25,404.04c.11-.1,.27-.16,.24-.34l.2-.13c.23-.3,.4-.58,.68-.8,.05-.13,.09-.31,.3-.33v.19c-.46,.43-.83,.94-1.23,1.42h-.19Z"/>
        <path class="cls-7" d="M248.31,400.7v-.31c1.45,1.21,2.89,2.43,4.34,3.64-.1,0-.21,0-.31,0-.12-.11-.24-.22-.37-.33-.88-.74-1.75-1.48-2.64-2.21-.33-.27-.63-.59-1.01-.8Z"/>
        <path class="cls-19" d="M248.31,401.38v-.43c.3,.17,.53,.41,.79,.63,.97,.82,1.95,1.63,2.92,2.45-.17,0-.33,0-.5,0-.73-.61-1.45-1.23-2.19-1.83-.34-.27-.64-.6-1.02-.82Z"/>
        <path class="cls-12" d="M248.31,401.38c.39,.21,.69,.54,1.02,.82,.74,.6,1.46,1.22,2.19,1.83-.17,0-.33,0-.49,0-.02-.02-.03-.06-.05-.07-.89-.73-1.78-1.47-2.67-2.2v-.37Z"/>
        <path class="cls-31" d="M252.02,404.03c-.97-.82-1.95-1.63-2.92-2.45-.26-.22-.49-.47-.79-.63v-.25c.38,.21,.68,.53,1.01,.8,.89,.73,1.76,1.47,2.64,2.21,.13,.11,.25,.22,.37,.33h-.31Z"/>
        <path class="cls-4" d="M248.31,401.76c.89,.73,1.78,1.47,2.67,2.2,.02,.02,.04,.05,.05,.07-.08,0-.17,0-.25,0-.06-.07-.11-.15-.18-.2-.76-.63-1.52-1.26-2.29-1.89v-.19Z"/>
        <path class="cls-18" d="M248.31,402.56c0-.08,0-.16,0-.25,.21,.17,.42,.32,.62,.5,.47,.41,.99,.76,1.42,1.22h-.25c-.6-.48-1.16-1.02-1.79-1.47Z"/>
        <path class="cls-17" d="M248.31,403.18v-.37c.47,.41,.98,.78,1.42,1.22-.14,0-.29,0-.43,0-.3-.32-.66-.56-.98-.85Z"/>
        <path class="cls-16" d="M249.73,404.03c-.44-.45-.95-.81-1.42-1.22v-.25c.63,.45,1.18,.99,1.79,1.47h-.37Z"/>
        <path class="cls-24" d="M248.31,401.94c.76,.63,1.53,1.26,2.29,1.89,.07,.06,.12,.14,.18,.2-.06,0-.12,0-.19,0-.76-.64-1.52-1.27-2.29-1.91v-.19Z"/>
        <path class="cls-11" d="M248.31,402.13c.76,.64,1.52,1.27,2.29,1.91h-.25c-.43-.46-.95-.81-1.42-1.22-.2-.18-.41-.33-.62-.5,0-.06,0-.12,0-.19Z"/>
        <path class="cls-35" d="M248.31,403.18c.32,.29,.69,.53,.98,.85-.12,0-.25,0-.37,0-.16-.23-.41-.36-.61-.54v-.31Z"/>
        <path class="cls-34" d="M248.31,403.49c.2,.19,.45,.31,.61,.54h-.61v-.54Z"/>
      </g>
    </g>
  </g>
  <g>
    <path class="cls-51" d="M247.39,383.11h.65v-3.26h-.65v-.48h1.95c1.32,0,1.81,.56,1.81,1.24,0,.64-.44,1.29-1.76,1.29h-.52v1.21h.72v.48h-2.2v-.48Zm1.94-1.66c.74,0,.92-.32,.92-.83,0-.46-.2-.78-.92-.78h-.46v1.6h.46Z"/>
    <path class="cls-51" d="M251.36,382.12c0-.91,.63-1.55,1.53-1.55s1.53,.62,1.53,1.53-.63,1.56-1.53,1.56-1.53-.62-1.53-1.53Zm2.24-.01c0-.81-.27-1.15-.74-1.15s-.69,.35-.69,1.15,.26,1.16,.74,1.16,.69-.35,.69-1.16Z"/>
    <path class="cls-51" d="M257.59,381.09l.61,1.9h.03l.56-1.9h-.38v-.47h1.26v.47h-.38l-.84,2.53h-.75l-.54-1.61-.62,1.61h-.74l-.83-2.53h-.4v-.47h1.61v.47h-.44l.58,1.9h.03l.6-1.59-.1-.31h-.38v-.47h1.6v.47h-.48Z"/>
    <path class="cls-51" d="M260.6,382.18c.03,.72,.33,1.02,.86,1.02,.35,0,.61-.15,.77-.53h.38c-.15,.63-.59,.99-1.32,.99-.94,0-1.49-.64-1.49-1.51s.63-1.57,1.5-1.57c.94,0,1.36,.75,1.33,1.61h-2.03Zm0-.34h1.28c-.04-.58-.22-.89-.62-.89-.37,0-.61,.24-.66,.89Z"/>
    <path class="cls-51" d="M263.06,383.11h.45v-2.02h-.45v-.47h1.17v.72c.16-.52,.53-.77,.9-.77,.35,0,.55,.25,.55,.54,0,.26-.19,.47-.44,.47s-.44-.15-.44-.41c0-.03,0-.06,.01-.08-.24,0-.44,.27-.55,.64v1.38h.56v.47h-1.76v-.47Z"/>
    <path class="cls-51" d="M266.64,382.18c.03,.72,.33,1.02,.86,1.02,.35,0,.61-.15,.77-.53h.38c-.15,.63-.59,.99-1.32,.99-.94,0-1.49-.64-1.49-1.51s.63-1.57,1.5-1.57c.94,0,1.36,.75,1.33,1.61h-2.03Zm0-.34h1.28c-.04-.58-.22-.89-.62-.89-.37,0-.61,.24-.66,.89Z"/>
    <path class="cls-51" d="M269.53,383.34c-.28-.28-.42-.72-.42-1.2,0-.5,.17-.97,.44-1.25,.21-.21,.48-.32,.79-.32,.43,0,.72,.21,.9,.51v-1.41h-.48v-.5h1.23v3.94h.42v.47h-1.14v-.62c-.21,.44-.54,.68-.98,.68-.31,0-.58-.12-.77-.31Zm1.75-1.24c0-.57-.21-1.06-.69-1.06-.44,0-.67,.39-.67,1.08s.28,1.06,.67,1.06,.69-.42,.69-1.08Z"/>
    <path class="cls-51" d="M274.16,379.67h-.46v-.5h1.2v2.04c.2-.4,.55-.65,.97-.65,.35,0,.58,.11,.77,.29,.28,.28,.4,.69,.4,1.24,0,.5-.15,.95-.43,1.22-.2,.2-.49,.33-.79,.33-.49,0-.8-.26-1.01-.62l-.24,.6h-.4v-3.95Zm2.06,2.44c0-.68-.21-1.06-.62-1.06-.44,0-.74,.48-.74,1.12s.33,1.02,.74,1.02c.38,0,.61-.38,.61-1.08Z"/>
    <path class="cls-51" d="M278.2,384.06c0,.08-.03,.17-.05,.22,.26-.04,.42-.17,.62-.68l-1.1-2.51h-.4v-.47h1.69v.47h-.48l.68,1.72,.68-1.72h-.4v-.47h1.26v.47h-.37l-1.02,2.42c-.35,.83-.71,1.17-1.27,1.17-.44,0-.71-.23-.71-.58,0-.26,.19-.47,.45-.47s.42,.22,.42,.43Z"/>
    <path class="cls-51" d="M280.98,381.36c0-.26,.21-.48,.49-.48s.48,.21,.48,.47-.21,.48-.49,.48-.49-.21-.49-.47Zm0,1.86c0-.26,.21-.48,.49-.48s.48,.21,.48,.47-.21,.48-.49,.48-.49-.21-.49-.47Z"/>
  </g>
</svg>