<?xml version="1.0" encoding="utf-8"?>
<!-- Generator: Adobe Illustrator 26.3.1, SVG Export Plug-In . SVG Version: 6.00 Build 0)  -->
<svg version="1.1" id="Layer_1_copy" xmlns="http://www.w3.org/2000/svg" xmlns:xlink="http://www.w3.org/1999/xlink" x="0px"
	 y="0px" viewBox="0 0 312 415" style="enable-background:new 0 0 312 415;" xml:space="preserve">
<style type="text/css">
	.st0{display:none;}
	.st1{display:inline;}
	.st2{fill:url(#SVGID_1_);}
	.st3{fill:url(#SVGID_00000105412109923416459100000010758550399636416433_);}
	.st4{fill:url(#SVGID_00000157280042761708873960000007197456299087783578_);}
	.st5{fill:#FFCC04;}
	.st6{fill:#10294B;}
	.st7{font-family:'Sentinel-Semibold';}
	.st8{font-size:20px;}
	.st9{fill:#FFFFFF;}
	.st10{fill:#165B8E;}
	.st11{fill:#467FA9;}
	.st12{fill:#4AA949;}
	.st13{fill:#60B348;}
	.st14{fill:#3472A0;}
	.st15{fill:#54AD48;}
	.st16{fill:#417BA6;}
	.st17{fill:#3AA64A;}
	.st18{fill:#5EB148;}
	.st19{fill:#3876A3;}
	.st20{fill:#3E7AA7;}
	.st21{fill:#57AE48;}
	.st22{fill:#3B78A3;}
	.st23{fill:#2E6E9D;}
	.st24{fill:#66B548;}
	.st25{fill:#5BB148;}
	.st26{fill:#32709E;}
	.st27{fill:#286999;}
	.st28{fill:#30A44A;}
	.st29{fill:#266798;}
	.st30{fill:#256496;}
	.st31{fill:#2C6D9C;}
	.st32{fill:#2B6B9A;}
	.st33{fill:#6CB648;}
	.st34{fill:#296A9A;}
	.st35{fill:#4E86AF;}
	.st36{fill:#28A24A;}
	.st37{fill:#71B847;}
	.st38{fill:#77BB47;}
	.st39{fill:#246395;}
	.st40{fill:#206193;}
	.st41{fill:#236293;}
	.st42{fill:#1A5D91;}
	.st43{fill:#205E91;}
	.st44{fill:#1EA04A;}
	.st45{fill:#195C8F;}
	.st46{fill:#7DBE48;}
	.st47{fill:#CED9E7;}
	.st48{fill:#739DBF;}
	.st49{fill:#A3BCD3;}
	.st50{fill:#C0DB9A;}
	.st51{fill:#A6CF76;}
	.st52{fill:#DEECCA;}
	.st53{fill:#83C14A;}
	.st54{fill:#175B8E;}
	.st55{fill:#5894B7;}
	.st56{fill:#4A85AE;}
	.st57{fill:#64BFE7;}
	.st58{fill:#F59049;}
	.st59{fill:#F5924A;}
	.st60{fill:#528DB4;}
	.st61{fill:#4F8AB1;}
	.st62{fill:#F5954B;}
	.st63{fill:#67C1E8;}
	.st64{fill:#F5974C;}
	.st65{fill:#F5994C;}
	.st66{fill:#F69650;}
	.st67{fill:#F59E4F;}
	.st68{fill:#6EC4EA;}
	.st69{fill:#FDCD8B;}
	.st70{fill:#F6A552;}
	.st71{fill:#79C9EB;}
	.st72{fill:#F69C4D;}
	.st73{fill:#F6A251;}
	.st74{fill:#F6AB56;}
	.st75{fill:#5FAADA;}
	.st76{fill:#F7AF59;}
	.st77{fill:#69B64A;}
	.st78{fill:#D0DCE9;}
	.st79{fill:#FEDBA9;}
	.st80{fill:#5B8FB5;}
	.st81{fill:#7FA7C5;}
	.st82{fill:#A7C0D6;}
	.st83{fill:#F8B45E;}
	.st84{fill:#F6A956;}
	.st85{fill:#FFEDD0;}
	.st86{fill:#5AB6E2;}
	.st87{fill:#60BBE4;}
	.st88{fill:#52B1DF;}
	.st89{fill:#4BACDC;}
	.st90{fill:#3EA6D8;}
	.st91{fill:#4EAEDE;}
	.st92{fill:#47AADC;}
	.st93{fill:#39A3D6;}
	.st94{fill:#3BA1D6;}
	.st95{fill:#42A9DA;}
	.st96{fill:#F58E48;}
	.st97{fill:#F68744;}
	.st98{fill:#F58243;}
	.st99{fill:#F68A46;}
	.st100{fill:#F57F41;}
	.st101{fill:#F2773F;}
	.st102{fill:#F2703D;}
	.st103{fill:#F2753F;}
	.st104{fill:#F47D40;}
	.st105{fill:#F47A40;}
	.st106{fill:#F16E3E;}
	.st107{fill:#F06C3F;}
	.st108{font-size:6.4091px;}
</style>
<g class="st0">
	<g class="st1">
		
			<linearGradient id="SVGID_1_" gradientUnits="userSpaceOnUse" x1="117.9798" y1="354.8988" x2="55.7291" y2="183.8665" gradientTransform="matrix(0.9846 -0.175 0.175 0.9846 20.3826 -30.8617)">
			<stop  offset="0" style="stop-color:#A7DCE0"/>
			<stop  offset="1" style="stop-color:#5598B0"/>
		</linearGradient>
		<path class="st2" d="M138.05,301.69c-0.82,0.79-1.54,1.47-2.26,2.16c-1.12,1.08-2.06,2.3-2.79,3.66
			c-0.58,1.08-1.13,2.19-1.57,3.33c-0.83,2.12-1.71,4.23-2.34,6.42c-0.54,1.87-0.78,3.82-1.11,5.74c-0.22,1.31-0.42,2.62-0.55,3.94
			c-0.24,2.29-0.47,4.59-0.63,6.89c-0.09,1.38,0.03,2.77-0.1,4.14c-0.04,0.47-0.08,0.87,0.04,1.32c0.03,0.1-0.17,0.39-0.23,0.38
			c-0.21-0.03-0.47-0.11-0.58-0.26c-1.22-1.71-2.42-3.44-3.6-5.17c-1.08-1.58-2.16-3.17-3.2-4.78c-1.06-1.63-2.07-3.3-3.12-4.94
			c-0.97-1.51-2-2.99-2.92-4.53c-0.97-1.62-1.86-3.3-2.76-4.97c-0.5-0.92-1-1.85-1.44-2.8c-0.83-1.78-1.59-3.59-2.43-5.37
			c-0.34-0.72-0.77-1.39-1.17-2.07c-0.96-1.63-2.01-3.15-3.34-4.54c-1.94-2.03-3.58-4.36-5.31-6.59c-1.12-1.44-2.23-2.88-3.24-4.39
			c-1.5-2.27-2.93-4.58-4.35-6.9c-1.48-2.42-2.96-4.84-4.36-7.32c-1.33-2.37-2.6-4.77-3.81-7.21c-1.04-2.11-1.99-4.27-2.91-6.43
			c-0.69-1.63-1.31-3.29-1.93-4.94c-0.65-1.75-1.32-3.5-1.89-5.28c-0.32-0.99-0.46-2.04-0.72-3.06c-0.3-1.16-0.69-2.3-0.98-3.47
			c-0.74-2.94-1.26-5.91-1.38-8.95c-0.06-1.53-0.34-3.04-0.46-4.57c-0.09-1.2-0.09-2.4-0.13-3.6c-0.04-1.1-0.11-2.21-0.09-3.31
			c0.03-1.36,0.14-2.71,0.21-4.07c0.05-1.02,0.03-2.05,0.13-3.07c0.14-1.44,0.3-2.88,0.55-4.3c0.36-2.06,0.74-4.13,1.25-6.16
			c0.5-1.99,1.16-3.93,1.76-5.89c0.4-1.33,0.77-2.66,1.23-3.97c1-2.83,1.99-5.67,3.09-8.46c0.93-2.34,2-4.62,3.05-6.92
			c0.41-0.91,0.92-1.78,1.4-2.65c0.66-1.19,1.29-2.4,2.02-3.55c1.2-1.9,2.46-3.77,3.71-5.64c0.89-1.32,1.76-2.66,2.7-3.94
			c0.9-1.22,1.88-2.38,2.84-3.54c0.7-0.85,1.42-1.7,2.17-2.5c0.41-0.43,0.9-0.79,1.48-1.28c-0.69-0.26-1.17-0.48-1.67-0.63
			c-2.14-0.62-4.29-1.22-6.43-1.83c-1.13-0.32-2.28-0.59-3.37-1.01c-0.41-0.16-0.78-0.64-0.96-1.06c-0.07-0.16,0.42-0.62,0.71-0.86
			c2.79-2.22,6.08-3.46,9.39-4.62c2.65-0.93,5.32-1.81,8.02-2.55c1.88-0.51,3.84-0.74,5.77-1.11c1.61-0.31,3.25-0.52,4.82-0.98
			c0.91-0.27,1.7-0.92,2.53-1.43c0.95-0.59,1.87-1.24,2.83-1.8c1.24-0.72,2.51-1.4,3.78-2.06c2.17-1.12,4.31-2.28,6.53-3.28
			c2.89-1.3,5.82-2.53,8.79-3.66c2.63-1,5.3-1.9,7.99-2.68c2.9-0.83,5.85-1.51,8.79-2.17c2.4-0.54,4.81-1.01,7.24-1.39
			c1.99-0.31,4.02-0.45,6.03-0.67c1.96-0.22,3.91-0.51,5.87-0.66c2.07-0.16,4.15-0.22,6.23-0.28c2.26-0.06,4.53-0.15,6.78-0.06
			c2.58,0.1,5.17,0.3,7.73,0.63c1.15,0.15,2.27,0.64,3.35,1.1c1.12,0.49,1.58,1.62,1.98,2.65c0.85,2.25,0.26,4.33-1.09,6.22
			c-1.21,1.69-2.41,3.39-3.71,5c-1.08,1.34-2.31,2.56-3.48,3.82c-1.65,1.79-3.22,3.68-4.98,5.35c-2.12,2.01-4.37,3.89-6.63,5.75
			c-2.17,1.79-4.43,3.47-6.63,5.23c-2.27,1.8-4.49,3.66-6.77,5.44c-1.49,1.16-3.07,2.21-4.57,3.36c-1.06,0.81-2.06,1.7-3.06,2.58
			c-0.86,0.77-1.7,1.56-2.51,2.38c-0.78,0.78-1.51,1.61-2.25,2.43c-0.1,0.11-0.17,0.27-0.18,0.41c-0.09,1.5-0.17,3-0.22,4.51
			c-0.05,1.23-0.07,2.46-0.07,3.7c-0.01,1.72,0.04,3.44,0.02,5.15c-0.02,1.72-0.1,3.44-0.17,5.15c-0.05,1.23-0.13,2.45-0.19,3.68
			c-0.06,1.35-0.13,2.71-0.15,4.07c-0.02,1.1,0.06,2.2,0.04,3.3c-0.05,1.79-0.14,3.58-0.22,5.37c-0.01,0.13-0.04,0.26-0.04,0.38
			c-0.07,1.25-0.91,1.64-2.02,1.01c-2.06-1.17-3.54-2.95-5-4.73c-1.23-1.51-2.44-3.04-3.59-4.61c-0.46-0.63-0.74-1.4-1.1-2.11
			c-0.73-1.44-1.49-2.86-2.17-4.32c-0.45-0.97-0.74-2.01-1.14-3.01c-0.49-1.23-1.02-2.45-1.63-3.9c-0.81,0.66-1.55,1.15-2.16,1.78
			c-2.03,2.08-4.05,4.17-6,6.32c-1.4,1.54-2.78,3.11-4.02,4.78c-2.29,3.06-4.49,6.19-6.71,9.3c-0.73,1.02-1.49,2.03-2.16,3.1
			c-0.62,0.97-1.13,2.01-1.69,3.02c-0.7,1.26-1.43,2.49-2.08,3.77c-0.85,1.7-1.65,3.42-2.42,5.15c-0.89,1.99-1.82,3.97-2.54,6.02
			c-0.72,2.05-1.27,4.18-1.79,6.29c-0.58,2.34-1.11,4.69-1.53,7.07c-0.34,1.89-0.52,3.81-0.73,5.72c-0.13,1.15-0.25,2.3-0.24,3.45
			c0.01,1.68,0.12,3.37,0.21,5.05c0.06,1.1,0.07,2.21,0.27,3.29c0.48,2.54,0.58,5.14,1.41,7.63c0.6,1.81,0.94,3.71,1.44,5.56
			c0.34,1.24,0.73,2.46,1.15,3.67c0.67,1.96,1.31,3.93,2.1,5.84c0.58,1.39,1.4,2.68,2.08,4.03c0.39,0.77,0.76,1.57,1.02,2.39
			c0.26,0.83,0.93,1.13,1.58,1.47c1.17,0.59,2.35,1.15,3.54,1.69c0.65,0.29,1.31,0.54,1.99,0.75c1.48,0.46,2.98,0.88,4.47,1.32
			c1.26,0.37,2.51,0.77,3.77,1.1c1.56,0.4,3.14,0.7,4.69,1.12C134.54,300.62,136.25,301.16,138.05,301.69z"/>
	</g>
	<g class="st1">
		
			<linearGradient id="SVGID_00000083077093898433482540000013479043131901905798_" gradientUnits="userSpaceOnUse" x1="141.0968" y1="397.2974" x2="96.0299" y2="273.4771" gradientTransform="matrix(1 -9.392570e-03 9.392570e-03 1 59.0083 -39.2096)">
			<stop  offset="6.035907e-03" style="stop-color:#BEE5E7"/>
			<stop  offset="1" style="stop-color:#7AB4CD"/>
		</linearGradient>
		<path style="fill:url(#SVGID_00000083077093898433482540000013479043131901905798_);" d="M151.63,351.94
			c0.15,0.82,0.28,1.54,0.41,2.26c0.2,1.12,0.23,2.25,0.08,3.37c-0.12,0.89-0.27,1.78-0.5,2.65c-0.42,1.62-0.81,3.25-1.37,4.82
			c-0.48,1.34-1.18,2.6-1.81,3.89c-0.43,0.87-0.88,1.74-1.37,2.58c-0.84,1.47-1.7,2.93-2.6,4.36c-0.54,0.86-1.21,1.63-1.73,2.5
			c-0.17,0.3-0.33,0.56-0.59,0.76c-0.06,0.05-0.06,0.3-0.02,0.32c0.14,0.07,0.33,0.14,0.46,0.09c1.46-0.49,2.92-1,4.37-1.52
			c1.32-0.47,2.65-0.95,3.96-1.46c1.33-0.51,2.65-1.07,3.98-1.59c1.23-0.48,2.47-0.91,3.68-1.43c1.28-0.55,2.52-1.16,3.78-1.76
			c0.69-0.33,1.39-0.67,2.06-1.04c1.26-0.7,2.49-1.45,3.75-2.15c0.51-0.28,1.05-0.49,1.59-0.73c1.27-0.56,2.55-1,3.94-1.26
			c2.03-0.37,4-1.05,5.99-1.62c1.28-0.37,2.56-0.75,3.81-1.21c1.87-0.7,3.71-1.46,5.55-2.23c1.92-0.8,3.84-1.6,5.74-2.47
			c1.81-0.83,3.6-1.71,5.36-2.64c1.53-0.8,3.02-1.68,4.5-2.56c1.11-0.67,2.19-1.39,3.27-2.1c1.14-0.76,2.29-1.51,3.4-2.32
			c0.62-0.45,1.15-1.02,1.75-1.5c0.68-0.56,1.4-1.07,2.08-1.64c1.71-1.42,3.29-2.96,4.67-4.72c0.69-0.88,1.51-1.66,2.24-2.51
			c0.57-0.67,1.09-1.38,1.63-2.08c0.5-0.64,1.02-1.26,1.48-1.92c0.57-0.82,1.08-1.67,1.63-2.5c0.41-0.63,0.86-1.23,1.25-1.88
			c0.54-0.91,1.06-1.84,1.53-2.79c0.67-1.38,1.34-2.77,1.91-4.2c0.56-1.39,1-2.83,1.49-4.25c0.33-0.96,0.69-1.91,0.98-2.88
			c0.63-2.11,1.26-4.22,1.8-6.35c0.46-1.79,0.8-3.61,1.17-5.42c0.14-0.72,0.22-1.45,0.31-2.18c0.12-0.99,0.27-1.98,0.33-2.97
			c0.1-1.65,0.16-3.3,0.22-4.94c0.04-1.17,0.1-2.34,0.09-3.5c-0.01-1.11-0.09-2.22-0.16-3.33c-0.05-0.81-0.11-1.62-0.21-2.42
			c-0.05-0.43-0.19-0.85-0.32-1.4c0.52,0.14,2.19,0.88,2.55,1.01c1.54,0.55,3.07,1.12,4.6,1.68c0.81,0.3,1.61,0.63,2.44,0.86
			c0.31,0.08,0.74-0.04,1.02-0.22c0.11-0.07,0.02-0.55-0.05-0.82c-0.7-2.52-2.12-4.67-3.58-6.78c-1.17-1.69-2.38-3.36-3.66-4.97
			c-0.9-1.12-1.96-2.1-2.95-3.14c-0.82-0.88-3.03-2.74-3.77-3.69c-0.42-0.55-2.64-5.76-3.12-6.7c-0.8-1.59-1.58-3.21-2.46-4.76
			c-1.16-2.02-2.36-4.01-3.64-5.95c-1.13-1.72-6.41-8.44-7.88-10.1c-1.19-1.35-9.08-8.92-10.19-9.85c-1.16-0.99-5.46-4.55-6.83-5.47
			c-1.58-1.05-3.94-2.38-5.6-3.28c-0.74-0.41-3.42-1.3-4.93-0.23c-1.47,0.97-2.28,3.1-2.29,4.8c0.04,4.2,1.21,11.43,1.54,13.19
			c0.39,2.11,2.59,10.23,3.14,12.22c0.57,2.05,3.99,14.62,4.12,15.45c0.12,0.8,0.51,1.76,0.6,2.56c0.01,0.1,0.54,2.01,0.49,2.1
			c-0.6,0.93-3.28,4.29-5.13,6.99c-1.67,2.47-3.56,5.75-4.54,7.39c-2.29,4.86-1.51,5.68-0.59,5.78c1.73,0.2,4.07-0.38,5.71-0.81
			c1.38-0.36,2.65-0.88,4.01-1.32c0.55-0.18,1.86-0.69,2.38-0.96c1.05-0.54,1.16-0.47,2.15-1.07c0.2,0.74,0.43,1.37,0.53,2
			c0.31,2.11,0.35,1.96,0.59,4.08c0.17,1.52,0.31,3.04,0.33,4.57c0.04,2.8,0,5.61-0.02,8.41c0,0.92,0.01,1.85-0.05,2.77
			c-0.05,0.84-0.19,1.68-0.29,2.52c-0.13,1.04-0.22,2.1-0.39,3.13c-0.23,1.37-0.49,2.74-0.78,4.1c-0.33,1.56-0.63,3.14-1.08,4.67
			c-0.45,1.53-1.04,3.03-1.65,4.51c-0.66,1.64-1.36,3.26-2.13,4.85c-0.61,1.27-1.33,2.49-2.03,3.71c-0.42,0.73-0.84,1.47-1.34,2.15
			c-0.73,1-1.52,1.95-2.3,2.91c-0.51,0.63-0.99,1.28-1.58,1.83c-1.38,1.3-2.56,2.8-4.12,3.92c-1.14,0.82-2.15,1.8-3.25,2.68
			c-0.73,0.59-1.49,1.15-2.26,1.69c-1.24,0.87-2.47,1.77-3.76,2.56c-0.94,0.58-1.99,0.99-2.97,1.5c-0.56,0.29-1.13,0.6-1.64,0.98
			c-0.51,0.38-1.04,0.27-1.57,0.19c-0.95-0.15-1.89-0.33-2.83-0.52c-0.51-0.11-1.01-0.25-1.5-0.41c-1.08-0.37-2.15-0.76-3.22-1.14
			c-0.9-0.32-1.82-0.62-2.71-0.97c-1.1-0.43-2.17-0.93-3.27-1.35C154.18,352.81,152.93,352.4,151.63,351.94z"/>
	</g>
</g>
<linearGradient id="SVGID_00000121264008917780969300000008914963031371691708_" gradientUnits="userSpaceOnUse" x1="159.765" y1="384.8403" x2="159.765" y2="123.4677">
	<stop  offset="0" style="stop-color:#C7C4E2"/>
	<stop  offset="1" style="stop-color:#2D2D85"/>
</linearGradient>
<path style="fill:url(#SVGID_00000121264008917780969300000008914963031371691708_);" d="M181.91,146.01
	c-2.03,0.4-4.72,0.6-6.24,0.75c-1.37,0.18-2.77,0.23-4.15,0.36c-0.21,0.02-0.41,0.19-0.62,0.29c0.2,0.11,0.38,0.28,0.59,0.33
	c1.93,0.46,3.91,0.77,5.71,1.67c0.52,0.26,1,0.63,1.45,1c3.3,2.67,6.3,5.61,8.23,9.45c0.65,1.31,1.09,2.74,1.48,4.16
	c0.66,2.4,1.21,4.83,1.78,7.26c0.13,0.54,0.14,1.11,0.18,1.68c0.19,2.77,0.76,5.52,0.55,8.32c-0.06,0.87-0.21,1.74-0.32,2.61
	c0,0.16,0,0.32-0.01,0.48c0.17,2.99-0.39,5.91-0.86,8.84c-0.3,1.9-0.47,3.84-0.93,5.7c-0.72,2.9-1.58,5.77-2.49,8.62
	c-0.4,1.25-1.05,2.43-1.61,3.62c-0.09,0.19-0.31,0.31-0.48,0.47c-0.08-0.23-0.26-0.47-0.24-0.68c0.08-0.69,0.23-1.37,0.35-2.05
	c0.03-0.19,0.06-0.38-0.03-0.61c-3.07,4.87-5.61,10-8.09,15.16c-0.08-0.02-0.17-0.05-0.25-0.07c-0.09-1.35-0.18-2.71-0.27-4.17
	c-0.15,0.13-0.25,0.18-0.29,0.25c-1.34,2.83-3.24,5.29-5.02,7.85c-1.65,2.38-3.12,4.9-4.83,7.23c-0.91,1.23-1.05,2.29-0.67,3.75
	c0.8,3.03,0.52,6.17,0.56,9.27c0.02,1.57-0.34,3.03-1.06,4.41c-0.2,0.37-0.42,0.81-0.76,1.02c-1.5,0.98-3.03,1.91-4.59,2.79
	c-0.25,0.14-0.74,0.09-1.02-0.07c-0.44-0.25-0.73-0.15-0.76,0.28c-0.09,1.27-1.32,2.18-1.05,3.55c0.02,0.11-0.07,0.27-0.15,0.36
	c-0.55,0.66-1.12,1.3-1.66,1.96c-0.13,0.16-0.22,0.36-0.28,0.55c-1.71,5.39-3.3,10.83-5.17,16.17c-1.65,4.71-3.58,9.31-5.43,13.95
	c-0.83,2.09-1.73,4.15-2.67,6.2c-0.7,1.53-1.16,1.36-2.38,0.43c-1.1-0.84-1.18-2.2-1.4-3.42c-0.24-1.34-0.27-2.71-0.39-4.07
	c-0.07-0.02-0.14-0.04-0.21-0.06c-0.13,0.5-0.32,0.98-0.39,1.49c-0.1,0.8-0.14,1.62-0.18,2.43c-0.07,1.15-0.15,2.3-0.17,3.45
	c-0.03,2.28-0.03,4.57,0,6.85c0.05,6.17,0.05,12.34,0.22,18.51c0.09,3.29,0.5,6.56,0.72,9.85c0.07,1.1,0.02,2.2,0.02,3.3
	c-0.04,0.28-0.13,0.57-0.11,0.85c0.14,2.04,0.29,4.09,0.47,6.13c0.08,0.95,0.16,1.91,0.36,2.84c0.1,0.43,0.42,0.89,0.76,1.19
	c1.63,1.4,3.52,2.27,5.68,2.5c0.19,0.03,0.39,0.07,0.58,0.1c0.12,0.04,0.23,0.08,0.35,0.12c1.53,0.27,3.13,0.34,4.56,0.87
	c1.33,0.5,2.62,1.29,3.06,2.93c0.71,2.64,1.46,5.27,2.79,7.7c0.5,0.92,0.4,1.95-0.3,2.79c-0.8,0.96-1.63,1.9-2.5,2.8
	c-0.38,0.39-0.49,0.74-0.34,1.27c0.46,1.68,0.87,3.37,1.28,5.06c0.2,0.81,0.22,1.65,0.82,2.36c0.3,0.35,0.41,0.94,0.44,1.44
	c0.1,1.47,0.14,2.94,0.17,4.41c0.03,1.32-0.55,1.89-1.91,1.91c-1.59,0.02-3.17,0.01-4.76,0.01c-9.89-0.01-19.78-0.02-29.67-0.03
	c-0.19,0-0.38-0.01-0.56,0.02c-1.14,0.2-1.21,0.19-1.15-0.99c0.12-2.43,0.31-4.85,0.46-7.28c0.12-1.97,0.21-3.95,0.35-5.92
	c0.08-1.12,0.13-2.24,0.36-3.33c0.11-0.53,0.53-1.04,0.92-1.47c0.9-0.99,0.98-2.22,1.14-3.44c0.09-0.72,0.19-1.44,0.38-2.13
	c0.07-0.24,0.37-0.55,0.61-0.59c0.28-0.05,0.72,0.07,0.88,0.28c0.32,0.42,0.65,1.03,1.15,0.74c0.42-0.24,0.74-0.9,0.83-1.42
	c0.13-0.78,0.01-1.61,0.02-2.41c0.01-0.94,1.61-3.05,2.51-3.15c0.54-0.07,1.12,0.16,1.57,0.24c1.59-0.71,3.15-1.46,4.76-2.09
	c0.93-0.37,1.28-1.09,1.29-1.93c0.05-3.06,0.14-6.14-0.01-9.19c-0.28-5.43-0.76-10.86-0.63-16.31c0.04-1.54-0.19-3.09-0.29-4.63
	c-0.01-0.11-0.01-0.21-0.02-0.32c-0.01-0.21-0.02-0.41-0.03-0.62c-0.05-0.6-0.1-1.2-0.15-1.8c-0.07-1.18-0.13-2.35-0.2-3.53
	c-0.04-0.54-0.08-1.09-0.12-1.63c-0.01-0.32-0.01-0.64-0.02-0.96c-0.05-0.38-0.1-0.76-0.14-1.14c-0.05-0.86-0.1-1.72-0.14-2.58
	c0-0.16,0-0.32,0-0.48c-0.11-0.46-0.19-0.92-0.33-1.37c-0.45-1.43-0.93-2.86-1.4-4.3c0.02-0.02-0.11,0.06-0.19,0.17
	c-1.32,1.65-2.63,3.25-3.5,5.27c-1.06,2.48-2.61,4.75-3.9,7.13c-1.12,2.05-2.08,4.19-3.3,6.18c-1.13,1.85-2.45,3.59-3.77,5.31
	c-0.72,0.94-2.02,0.89-2.9-0.04c-0.69-0.74-1.29-1.58-1.94-2.37c-0.66-0.81-0.75-0.82-1.47-0.08c-0.87,0.89-1.8,1.73-3.05,2
	c-0.56,0.12-1.22,0.06-1.76-0.14c-1.22-0.45-2.06-1.38-2.69-2.53c-1.74-3.22-2.59-6.75-3.62-10.22c-0.98-3.31-1.82-6.66-2.71-9.99
	c-0.7-2.62-1.48-5.23-2.06-7.88c-0.63-2.9-1.05-5.84-1.58-8.76c-0.35-1.92-0.76-3.83-1.1-5.76c-0.4-2.29-0.83-4.58-1.13-6.88
	c-0.39-3.09-0.78-6.19-0.97-9.29c-0.26-4.22-0.39-8.45-0.48-12.68c-0.05-2.44,0.07-4.89,0.13-7.33c0.04-1.63,0.05-3.27,0.17-4.9
	c0.15-2.13,0.42-4.25,0.58-6.38c0.08-1.12,0.01-2.26,0.07-3.38c0.02-0.37,0.22-0.74,0.32-1.11c0.11-0.44,0.24-0.88,0.29-1.32
	c0.23-1.89,0.4-3.78,0.67-5.66c0.1-0.72,0.53-1.39,0.64-2.12c0.41-2.56,0.74-5.13,1.13-7.69c0.17-1.13,0.46-2.25,0.64-3.37
	c0.26-1.55,0.29-3.16,0.74-4.65c1.19-3.97,2.56-7.89,3.84-11.83c0.89-2.72,1.72-5.47,2.68-8.17c0.37-1.04,0.98-2,1.52-2.97
	c1.37-2.45,2.82-4.85,4.12-7.34c1.52-2.91,3.53-5.43,5.72-7.84c1.36-1.48,2.66-3.02,4.03-4.5c0.78-0.84,1.58-1.7,2.5-2.39
	c1.12-0.84,2.36-1.53,3.57-2.24c1.17-0.69,2.36-1.36,3.55-2.01c2.62-1.41,5.44-2.19,8.35-2.71c1.04-0.19,2.02-0.1,3.08,0.07
	c1.43,0.23,2.93,0.06,4.57,0.06c-0.1-0.51-0.17-0.95-0.28-1.36c-0.24-0.85-0.65-1.69-0.72-2.55c-0.12-1.38-0.03-2.77-0.03-4.23
	c-0.44-0.05-0.4-0.44-0.2-0.93c0.56-1.42,1.11-2.85,1.66-4.27c0.07-0.18,0.12-0.37,0.02-0.66c-0.68,0.52-1.36,1.04-2.05,1.55
	c-0.06-0.06-0.12-0.13-0.18-0.19c0.76-1.56,1.89-2.82,3.21-3.94c1.3-1.11,2.58-2.25,3.93-3.43c-1.52-0.32-2.9,0.47-4.35,0.58
	c-0.03-0.07-0.05-0.15-0.08-0.22c1.67-0.79,3.31-1.68,5.03-2.34c4.15-1.61,6.99-2.64,11.34-3.61c1.06-0.24,3.82-0.98,4.91-1.06
	c2-0.15,4.07-0.48,6.07-0.48c3.15,0,6.26,0.67,9.24,1.35c1.64,0.29,3.2,1.24,4.81,1.93c1.83,1.06,3.35,2.43,4.69,4.1
	c0.3,0.37,0.78,0.7,1.24,0.81c2.58,0.62,5.15,1.26,7.76,1.7c3.16,0.54,6.36,0.82,9.53,1.32c3.43,0.54,6.84,1.25,10.27,1.82
	c3.43,0.57,6.87,1.03,10.3,1.59c1.08,0.18,2.12,0.54,3.19,0.79c0.58,0.14,0.73,0.47,0.48,1.12c-2.38,0.26-4.82,0.55-7.26,0.79
	c-2.34,0.23-4.69,0.42-7.03,0.63c-2.63,0.23-5.27,0.43-7.9,0.69c-2.89,0.29-5.78,0.63-8.67,0.94c-2.1,0.23-4.19,0.48-6.29,0.65
	c-3.83,0.41-5.1,0.49-7.56,1.3C184.9,145.44,182.97,145.81,181.91,146.01z"/>
<g>
	<polygon class="st5" points="38.96,31.58 31.01,20.7 31.01,28.62 34.17,28.62 34.17,36.43 19.53,36.43 19.53,28.62 22.5,28.62 
		22.5,16.46 19.53,16.46 19.53,8.64 31.03,8.64 38.96,19.6 46.9,8.64 58.39,8.64 58.39,16.46 55.42,16.46 55.42,28.62 58.39,28.62 
		58.39,36.43 43.76,36.43 43.76,28.62 46.92,28.62 46.92,20.7 	"/>
	<path class="st6" d="M209.71,36.47v-0.28c0.35-0.02,0.62-0.05,0.62-0.34c0-0.1-0.03-0.21-0.06-0.31l-0.15-0.52h-1.83l-0.16,0.44
		c-0.04,0.11-0.07,0.21-0.07,0.32c0,0.37,0.39,0.39,0.71,0.4v0.28h-2.13v-0.28c0.54-0.02,0.72-0.13,0.92-0.68l1.4-3.84l-0.08-0.12
		c0.6-0.2,0.77-0.29,1.03-0.48c0.1,0.35,0.12,0.4,0.23,0.76l1.15,3.52c0.2,0.62,0.3,0.78,0.85,0.84v0.28L209.71,36.47L209.71,36.47z
		 M209.24,32.32l-0.76,2.15h1.49L209.24,32.32z M191.21,35.32c-0.23,0.37-0.78,1.29-2.21,1.29c-1.56,0-2.57-1.15-2.57-2.66
		c0-1.4,0.86-2.78,2.61-2.78c0.92,0,1.41,0.39,1.71,0.62l0.35-0.32l0.03,1.57l-0.23,0.04c-0.09-0.3-0.22-0.54-0.56-0.91
		c-0.16-0.17-0.54-0.51-1.08-0.51c-0.94,0-1.67,0.76-1.67,2.11c0,1.14,0.61,2.21,1.8,2.21c0.91,0,1.25-0.5,1.52-0.9L191.21,35.32z
		 M192.1,36.47v-0.28c0.59-0.05,0.59-0.18,0.59-0.68c0.01-0.18,0.01-0.37,0.01-0.55v-2.17c0-0.34,0-0.67-0.02-0.84
		c-0.03-0.31-0.18-0.35-0.58-0.39v-0.28h2.22v0.28c-0.43,0.05-0.59,0.06-0.65,0.35c-0.04,0.16-0.04,0.55-0.04,0.86v0.71
		c0.45,0.03,0.76,0.04,1.19,0.04c0.44,0,0.79-0.01,1.23-0.04v-0.87c-0.01-0.95-0.02-0.98-0.72-1.05v-0.28h2.25v0.28
		c-0.6,0.08-0.6,0.08-0.6,1.07v2.19c0,0.2,0.01,0.86,0.03,1.01c0.03,0.27,0.19,0.32,0.57,0.36v0.28h-2.25v-0.28
		c0.52-0.06,0.66-0.07,0.7-0.43c0.02-0.15,0.02-0.35,0.02-0.72v-0.95c-0.41-0.01-0.75-0.04-1.18-0.04c-0.45,0-0.8,0.01-1.24,0.04
		v0.95c0.01,1.08,0.02,1.08,0.69,1.15v0.28L192.1,36.47L192.1,36.47z M198.48,36.47v-0.28c0.5-0.07,0.61-0.12,0.62-0.67v-0.66v-2.1
		c-0.01-1.07-0.01-1.11-0.62-1.19v-0.28h2.15v0.28c-0.61,0.06-0.61,0.09-0.61,1.19v2.09c0,0.18,0.01,0.76,0.02,0.92
		c0.04,0.31,0.18,0.39,0.59,0.42v0.28L198.48,36.47L198.48,36.47z M183.72,36.47v-0.28c0.51-0.07,0.61-0.12,0.62-0.67v-0.66v-2.1
		c-0.01-1.07-0.01-1.11-0.62-1.19v-0.28h2.15v0.28c-0.61,0.06-0.61,0.09-0.61,1.19v2.09c0,0.18,0.01,0.76,0.02,0.92
		c0.03,0.31,0.18,0.39,0.58,0.42v0.28L183.72,36.47L183.72,36.47z M180.46,36.47v-0.28c0.65-0.05,0.65-0.07,0.66-1.03v-2.6
		l-1.81,3.98h-0.46l-1.66-4.03l-0.04,3.04c0,0.51,0.06,0.6,0.61,0.65v0.28h-1.8V36.2c0.42-0.02,0.58-0.08,0.61-0.43
		c0.02-0.14,0.04-0.58,0.04-0.86l0.07-2.17c0.01-0.17,0.01-0.42,0.01-0.6c0-0.51-0.1-0.55-0.56-0.56V31.3h1.63l1.62,3.93l1.78-3.93
		h1.58v0.31c-0.62,0.04-0.62,0.1-0.62,0.91v2.14c0,0.36,0.01,0.79,0.03,1.06c0.03,0.38,0.18,0.45,0.59,0.49v0.28h-2.28V36.47z
		 M212.46,36.47v-0.28c0.43-0.02,0.59-0.03,0.65-0.32c0.07-0.34,0.1-3.42,0.1-3.95c-0.29-0.26-0.4-0.32-0.75-0.35v-0.28h1.56
		c0.43,0.62,0.53,0.75,1.29,1.7l1.45,1.79v-2.32c-0.01-0.82-0.03-0.86-0.85-0.89v-0.28h2.04v0.28c-0.57,0.01-0.62,0.13-0.62,0.97
		l-0.07,4h-0.31l-0.46-0.58c-0.23-0.29-0.47-0.59-0.7-0.87l-2.04-2.52v2.68c0,0.84,0.05,0.87,0.85,0.95v0.28L212.46,36.47
		L212.46,36.47z M169.26,33.88c0,1.79-1.22,2.73-2.59,2.73c-1.51,0-2.68-1.09-2.68-2.74c0-1.42,0.95-2.69,2.61-2.68
		C168.17,31.19,169.26,32.3,169.26,33.88z M166.67,36.13c0.3-0.01,0.71-0.15,1.03-0.64c0.36-0.56,0.44-1.08,0.42-1.75
		c-0.02-0.66-0.21-1.24-0.59-1.65c-0.17-0.18-0.49-0.44-0.93-0.43c-0.43,0-0.75,0.27-0.91,0.46c-0.37,0.41-0.54,1-0.54,1.66
		c0,0.68,0.09,1.19,0.47,1.74C165.97,35.99,166.38,36.13,166.67,36.13z M169.78,36.19v0.28h2.14v-0.28c-0.54-0.05-0.6-0.1-0.62-0.67
		v-1.48h0.58c0.58,0,0.88,0.06,0.92,0.64h0.25v-1.71h-0.25c-0.03,0.56-0.19,0.61-0.81,0.61h-0.68v-1.79
		c0.19-0.02,0.29-0.03,0.62-0.03c1.02,0,1.34,0,1.48,0.81h0.26l-0.08-1.27h-3.8v0.28c0.37,0.04,0.54,0.06,0.59,0.3
		c0.03,0.16,0.04,0.73,0.04,0.94v1.82c0,0.14-0.01,0.76-0.01,0.89C170.38,36.09,170.32,36.13,169.78,36.19z M125.28,36.44v-0.28
		c0.5-0.07,0.61-0.12,0.62-0.67v-0.66v-2.1c-0.01-1.08-0.01-1.11-0.62-1.2v-0.28h2.15v0.28c-0.61,0.06-0.61,0.08-0.61,1.2v2.09
		c0,0.18,0.01,0.76,0.02,0.92c0.04,0.31,0.18,0.39,0.59,0.42v0.28L125.28,36.44L125.28,36.44z M148.08,36.44v-0.28
		c0.5-0.07,0.61-0.12,0.61-0.67v-0.66v-2.1c-0.01-1.08-0.01-1.11-0.61-1.2v-0.28h2.15v0.28c-0.61,0.06-0.61,0.08-0.61,1.2v2.09
		c0,0.18,0.01,0.76,0.02,0.92c0.04,0.31,0.18,0.39,0.59,0.42v0.28L148.08,36.44L148.08,36.44z M118.97,36.44v-0.28
		c0.43-0.02,0.59-0.03,0.65-0.32c0.07-0.35,0.09-3.42,0.1-3.95c-0.29-0.26-0.4-0.32-0.75-0.34v-0.28h1.56
		c0.43,0.62,0.53,0.76,1.29,1.7l1.44,1.79v-2.32c-0.01-0.82-0.03-0.87-0.85-0.89v-0.28h2.04v0.28c-0.56,0.01-0.62,0.12-0.62,0.97
		l-0.08,4h-0.3l-0.46-0.58c-0.24-0.3-0.47-0.58-0.71-0.87l-2.05-2.52v2.69c0,0.84,0.06,0.87,0.85,0.95v0.28h-2.11V36.44z
		 M143.8,34.82l0.27-0.03c0.28,0.84,0.76,1.3,1.54,1.3c0.55,0,1.04-0.23,1.04-0.79c0-0.59-0.56-0.82-0.82-0.92
		c-0.21-0.08-0.42-0.15-0.63-0.23c-0.42-0.15-1.23-0.48-1.23-1.49c0-0.97,0.76-1.51,1.65-1.51c0.35,0,0.75,0.08,1.19,0.36l0.32-0.23
		l0.17,1.54l-0.26,0.05c-0.09-0.34-0.16-0.49-0.36-0.77c-0.25-0.32-0.6-0.48-1.01-0.48c-0.55,0-0.87,0.27-0.87,0.68
		c0,0.61,0.61,0.82,1.19,1.01c0.29,0.1,0.54,0.18,0.75,0.3c0.41,0.24,0.75,0.7,0.75,1.32c0,0.9-0.74,1.64-1.83,1.64
		c-0.71,0-1.14-0.28-1.34-0.41l-0.43-0.31L143.8,34.82z M152.32,36.44v-0.22c0.48-0.01,0.61-0.18,0.61-0.6V31.8h-0.65
		c-0.58,0-0.97-0.02-1.02,0.9h-0.27l0.04-1.45h4.7l0.04,1.45h-0.27c-0.04-0.93-0.43-0.9-1.02-0.9h-0.64v3.82
		c0,0.41,0.13,0.59,0.61,0.6v0.22H152.32z M115,31.26v0.28c-0.69,0.05-0.69,0.07-0.69,1.17v1.22c0,0.63,0.01,1.17,0.34,1.66
		c0.27,0.39,0.72,0.43,0.94,0.43c0.74,0,1.15-0.38,1.33-0.99c0.15-0.48,0.15-1.39,0.15-1.99c0-0.19,0-0.81-0.01-0.98
		c-0.03-0.47-0.27-0.49-0.73-0.52v-0.28h1.97v0.28c-0.48-0.01-0.59,0.1-0.62,0.62c-0.01,0.12-0.07,1.56-0.07,1.78
		c-0.01,0.39-0.04,0.78-0.12,1.16c-0.35,1.4-1.71,1.47-2.07,1.47c-0.29,0-0.87-0.05-1.36-0.37c-0.77-0.52-0.78-1.3-0.78-2.13V32.9
		c-0.01-0.56-0.01-0.81-0.02-0.94c-0.04-0.33-0.21-0.39-0.59-0.41v-0.28L115,31.26L115,31.26z M133.36,31.26v0.28
		c-0.5,0.07-0.57,0.21-0.99,1.24l-1.58,3.76h-0.28l-1.42-3.82c-0.35-0.98-0.4-1.1-0.92-1.18v-0.28h2.46v0.28
		c-0.42,0.02-0.69,0.03-0.69,0.33c0,0.15,0.04,0.27,0.18,0.7l0.9,2.63l1.06-2.72c0.06-0.18,0.15-0.42,0.15-0.55
		c0-0.38-0.36-0.39-0.69-0.4v-0.28L133.36,31.26L133.36,31.26z M157.91,36.44v-0.28c0.41-0.04,0.56-0.06,0.66-0.16
		c0.12-0.11,0.12-0.25,0.12-0.81v-0.91l-1.38-2.14c-0.37-0.56-0.38-0.57-0.88-0.6v-0.29h2.7v0.29c-0.54,0.02-0.78,0.03-0.78,0.28
		c0,0.14,0.1,0.3,0.23,0.52l0.79,1.3l0.73-1.29c0.13-0.26,0.21-0.41,0.21-0.53c0-0.25-0.21-0.26-0.57-0.28v-0.29h2.02v0.29
		c-0.52,0.02-0.67,0.17-1.27,1.13l-0.81,1.35v1.08c0,0.94,0.01,1.01,0.78,1.05v0.28L157.91,36.44L157.91,36.44z M137.79,36.44
		c0-0.37,0.06-0.99,0.11-1.34h-0.25c-0.18,0.93-0.7,0.88-1.45,0.88c-0.69,0-0.83-0.18-0.83-0.52v-1.45h0.56
		c0.64,0,0.82,0.05,0.82,0.63H137v-1.71h-0.25c-0.05,0.46-0.14,0.61-0.81,0.61h-0.56v-1.83h0.63c0.88,0,1.2,0.06,1.32,0.77h0.23
		l-0.03-1.23h-3.69v0.28c0.37,0.04,0.53,0.06,0.58,0.31c0.04,0.16,0.04,0.73,0.04,0.93v1.82c0,0.14,0,0.76-0.01,0.89
		c-0.01,0.57-0.08,0.62-0.62,0.67v0.29H137.79z M206.38,34.18v0.28c-0.47,0.03-0.47,0.16-0.48,1.14v0.39
		c-0.4,0.25-0.98,0.61-1.99,0.61c-1.78,0-2.64-1.35-2.64-2.71c0-1.66,1.12-2.74,2.53-2.74c0.88,0,1.39,0.33,1.81,0.59l0.27-0.31
		l0.04,1.62l-0.21,0.04c-0.11-0.31-0.26-0.66-0.65-1.06c-0.17-0.17-0.5-0.38-1.03-0.38c-0.9,0-1.66,0.76-1.66,2.25
		c0,1.19,0.59,2.21,1.59,2.21c0.58,0,0.87-0.4,0.9-0.43c0.09-0.14,0.12-0.26,0.11-0.49c-0.02-0.66-0.11-0.67-0.69-0.73v-0.28
		L206.38,34.18L206.38,34.18z M140.2,33.66c0.14,0.03,0.34,0.05,0.48,0.05c0.59,0,1.03-0.46,1.06-0.87c0.03-0.6-0.27-1.12-1.22-1.12
		c-0.13,0-0.21,0-0.32,0.03V33.66z M140.2,34.79c0.01,1.19,0.01,1.35,0.63,1.36v0.29h-2.16v-0.29c0.56-0.05,0.61-0.13,0.62-0.69
		c0-0.22,0-0.46,0-0.67v-1.88c0-0.62,0-0.84-0.03-1.01c-0.04-0.29-0.18-0.34-0.6-0.38v-0.28l2.34,0.01c1.28,0,1.68,0.61,1.68,1.33
		c0,0.5-0.31,1.15-1.02,1.37l0.92,1.6c0.33,0.61,0.51,0.75,0.93,0.81v0.17c-0.11,0.01-0.22,0.01-0.34,0.01
		c-0.98,0-1.38-0.33-1.79-1.21l-0.29-0.61c-0.31-0.65-0.41-0.61-0.9-0.62v0.69H140.2z"/>
	<rect x="66.22" y="8.65" class="st6" width="0.4" height="27.8"/>
	<g>
		<path class="st6" d="M74.54,8.65h2.54v25.64h4.2v2.16h-6.74L74.54,8.65L74.54,8.65z"/>
		<path class="st6" d="M89.4,12.46c0-1.08-0.27-1.89-1.46-1.89s-1.46,0.81-1.46,1.89v2.93c0,0.89,0.15,1.77,0.58,2.5l4.04,6.93
			c0.58,0.96,0.92,2.15,0.92,3.39v4.39c0,2.62-1.54,4.08-4.08,4.08c-2.81,0-4.16-1.27-4.16-4.08v-3.81h2.54v3.66
			c0,1.31,0.5,2.08,1.62,2.08c1.04,0,1.54-0.77,1.54-2.08v-3.89c0-0.96-0.19-1.69-0.73-2.66l-3.74-6.51
			c-0.69-1.19-1.08-2.12-1.08-3.54V12.5c0-2.73,1.42-4.08,4-4.08c2.85,0,4,1.35,4,3.89v3.54h-2.54v-3.39H89.4z"/>
		<path class="st6" d="M101.89,28.75h-4.47l-1.04,7.7h-2.54l4.08-27.8h3.46l4.08,27.8h-2.54L101.89,28.75z M99.68,10.58H99.6
			L97.68,26.6h3.93L99.68,10.58z"/>
	</g>
	<g>
		<g>
			<path class="st6" d="M113.59,26V8.63h2.62l5.13,15.69h0.05l5.05-15.69h2.45V26h-1.54V10.12h-0.05L122.2,26h-1.78l-5.25-15.88
				h-0.05V26H113.59z"/>
			<path class="st6" d="M132.82,19.55c0,2.26,0,5.49,3.54,5.49s3.54-3.22,3.54-5.49V8.63h1.54v12.06c0,4.48-2.36,5.65-5.08,5.65
				s-5.08-1.18-5.08-5.65V8.63h1.54L132.82,19.55L132.82,19.55z"/>
			<path class="st6" d="M151.2,13.03c-0.05-2.14-0.58-3.44-2.94-3.44c-1.88,0-3.06,0.65-3.06,2.7c0,2.57,1.3,2.65,3.27,4.07
				c2.14,1.54,4.33,2,4.33,5.37c0,3.1-1.59,4.62-4.62,4.62c-3.39,0-4.91-1.83-4.76-5.22h1.59c0,1.92,0.14,3.92,3.25,3.92
				c2.02,0,3.01-1.08,3.01-3.08c0-2.36-1.56-3.03-4.07-4.57c-3.37-2.07-3.51-3.1-3.54-4.84c-0.02-3.01,1.88-4.26,4.72-4.26
				c3.61,0,4.38,2.24,4.38,4.74L151.2,13.03L151.2,13.03z"/>
			<path class="st6" d="M162.88,8.63v1.3h-6.33v6.5h6.04v1.3h-6.04v6.98h6.5v1.3h-8.04V8.64h7.87V8.63z"/>
			<path class="st6" d="M166.1,19.55c0,2.26,0,5.49,3.54,5.49s3.54-3.22,3.54-5.49V8.63h1.54v12.06c0,4.48-2.36,5.65-5.08,5.65
				s-5.08-1.18-5.08-5.65V8.63h1.54L166.1,19.55L166.1,19.55z"/>
			<path class="st6" d="M177.1,26V8.63h2.62l5.13,15.69h0.05l5.05-15.69h2.45V26h-1.54V10.12h-0.05L185.7,26h-1.78l-5.25-15.88
				h-0.05V26H177.1z"/>
			<path class="st6" d="M204.26,8.29c5.2,0,5.25,4.33,5.25,9.02s-0.05,9.02-5.25,9.02s-5.25-4.33-5.25-9.02S199.07,8.29,204.26,8.29
				z M204.26,25.04c3.66,0,3.71-3.1,3.71-7.72s-0.05-7.72-3.71-7.72s-3.71,3.1-3.71,7.72C200.55,21.93,200.6,25.04,204.26,25.04z"/>
			<path class="st6" d="M211.64,8.63h7.34v1.3h-5.8v6.5h5.39v1.3h-5.39v8.28h-1.54V8.63z"/>
			<path class="st6" d="M232.86,8.63v1.71l-7.87,14.37h7.94v1.3h-9.53V24.3l7.94-14.37h-7.46v-1.3H232.86z"/>
			<path class="st6" d="M239.26,8.29c5.2,0,5.25,4.33,5.25,9.02s-0.05,9.02-5.25,9.02s-5.25-4.33-5.25-9.02
				C234.02,12.62,234.07,8.29,239.26,8.29z M239.26,25.04c3.66,0,3.71-3.1,3.71-7.72s-0.05-7.72-3.71-7.72s-3.71,3.1-3.71,7.72
				C235.57,21.93,235.61,25.04,239.26,25.04z"/>
			<path class="st6" d="M251.7,8.29c5.2,0,5.25,4.33,5.25,9.02s-0.05,9.02-5.25,9.02s-5.25-4.33-5.25-9.02
				C246.46,12.62,246.51,8.29,251.7,8.29z M251.7,25.04c3.66,0,3.71-3.1,3.71-7.72s-0.05-7.72-3.71-7.72s-3.71,3.1-3.71,7.72
				C248,21.93,248.05,25.04,251.7,25.04z"/>
			<path class="st6" d="M259.07,26V8.63h1.54V24.7h5.75V26H259.07z"/>
			<path class="st6" d="M272.57,8.29c5.2,0,5.25,4.33,5.25,9.02s-0.05,9.02-5.25,9.02s-5.25-4.33-5.25-9.02
				C267.32,12.62,267.38,8.29,272.57,8.29z M272.57,25.04c3.66,0,3.71-3.1,3.71-7.72s-0.05-7.72-3.71-7.72s-3.71,3.1-3.71,7.72
				C268.86,21.93,268.91,25.04,272.57,25.04z"/>
			<path class="st6" d="M288.25,18.23h-3.51v-1.3h5.05v8.69c-1.54,0.48-3.15,0.72-4.79,0.72c-5.65,0-5.25-5.65-5.25-9.02
				c0-3.37-0.41-9.02,5.25-9.02c3.32,0,5.03,1.42,4.96,4.79h-1.54c0-2.29-0.99-3.49-3.42-3.49c-3.75,0-3.71,3.34-3.71,7.72
				s-0.05,7.72,3.71,7.72c1.32,0,2.43-0.19,3.25-0.51L288.25,18.23L288.25,18.23z"/>
			<path class="st6" d="M295.97,18.78l-4.91-10.15h1.73l3.97,8.64l4.16-8.64h1.54l-4.96,10.15V26h-1.54L295.97,18.78L295.97,18.78z"
				/>
		</g>
	</g>
</g>
<text transform="matrix(1 0 0 1 84.1793 80.7627)" class="st6 st7 st8">Division of Birds</text>
<g id="Layer_2">
	<g id="Layer_3">
		<g>
			<path class="st9" d="M266.67,385.59c11.13,0,22.26,0,33.39,0c0,2.46,0,4.91,0,7.37c-0.33,0-0.66,0-1,0
				c-0.85,1.81-1.69,3.62-2.56,5.47c-0.88-1.85-1.73-3.66-2.58-5.45c-0.34,0-0.65,0-0.99,0c1.02,2.2,2.03,4.38,3.04,6.55
				c-0.64,1.5-1.28,2.99-1.93,4.5c0.36,0,0.69,0,1.01,0c0.04-0.07,0.07-0.12,0.09-0.18c1.25-2.77,2.5-5.54,3.75-8.3
				c0.38-0.84,0.78-1.68,1.17-2.52c0,3.72,0,7.43,0,11.15c-17.29,0-34.59,0-51.88,0c0-6.1,0-12.2,0-18.3c0-0.09-0.07-0.21,0.06-0.28
				c0,0.1,0.01,0.21,0.01,0.31c0,0.06,0,0.12,0,0.18c0,0.04,0,0.08,0,0.12c0,0.06,0,0.12,0,0.19c0,0.04,0,0.08,0,0.12
				c0,0.04,0,0.08,0,0.12c0,0.08,0,0.17,0,0.25c0,0.06,0,0.12,0,0.19c0,0.06,0,0.13,0,0.19c0,0.04,0,0.08,0,0.12
				c0,0.04,0,0.08,0,0.12c0,0.04,0,0.08,0,0.13c0,0.08,0,0.16,0,0.25c0,0.06,0,0.12,0,0.19c0,0.12,0,0.25,0,0.37
				c0,0.06,0,0.13,0,0.19c0,0.06,0,0.12,0,0.18c0,0.06,0,0.13,0,0.19c0,0.08,0,0.16,0,0.25c0,0.14,0,0.29,0,0.43
				c0,0.15,0,0.29,0,0.44c0,0.1,0,0.21,0,0.31c0,0.14,0,0.29,0,0.43c0,0.99,0,1.98,0,2.97c0,0.06,0,0.12,0,0.18
				c0,0.04,0,0.08-0.01,0.13c0,0.07-0.02,0.14,0.03,0.2c0.05-0.06,0.02-0.13,0.03-0.2c0-0.04,0-0.08-0.01-0.13c0-0.06,0-0.12,0-0.18
				c0.06-0.41,0.13-0.81,0.23-1.21c0.22-0.88,0.6-1.7,1.03-2.5l0,0c0.02-0.02,0.04-0.05,0.05-0.07l0,0
				c0.01-0.02,0.03-0.03,0.04-0.05c0.01-0.02,0.02-0.04,0.03-0.06c0.02-0.02,0.03-0.05,0.05-0.07c0.08-0.12,0.17-0.25,0.25-0.37
				c0.14-0.19,0.29-0.37,0.43-0.56c0.34-0.35,0.68-0.7,1.02-1.04c0.93-0.77,1.96-1.37,3.08-1.8c0.41-0.11,0.83-0.22,1.24-0.33
				c0.07,0.01,0.14,0,0.19-0.05c0.06-0.01,0.12-0.01,0.18-0.02c0.07,0.01,0.14,0.01,0.19-0.04c0.08,0,0.16-0.01,0.24-0.01
				c0.06,0,0.12,0,0.18,0c0.06,0,0.13,0,0.19,0c0.09-0.01,0.18,0.03,0.25-0.06c0.5,0,0.99,0,1.49,0c0.03,0.05,0.08,0.06,0.13,0.06
				c0.06,0,0.12,0,0.18,0c0.06,0,0.12,0,0.19,0l0.03,0.01l0.03-0.01c0.08,0,0.16,0.01,0.24,0.01c0.08,0.05,0.17,0.05,0.26,0.05
				c0.04,0,0.08,0.01,0.13,0.01l0.02,0.01l0.02-0.01c0.05,0.01,0.1,0.03,0.14,0.04c0.06,0.01,0.12,0.01,0.17,0.02
				c0.05,0.01,0.09,0.03,0.14,0.04c0.04,0.01,0.08,0.01,0.12,0.02c0.04,0.01,0.08,0.03,0.13,0.04c0.17,0.04,0.33,0.09,0.5,0.13
				c0.19,0.06,0.37,0.13,0.56,0.19l0,0c0.03,0.04,0.07,0.06,0.13,0.05c0.25,0.11,0.49,0.22,0.74,0.33l-0.01-0.01
				c0.02,0.02,0.05,0.03,0.07,0.05c0.41,0.26,0.82,0.51,1.24,0.77c0.8,0.62,1.51,1.34,2.11,2.15c0.02,0.03,0.04,0.05,0.06,0.08
				c0,0.02,0.01,0.04,0.03,0.05c0.01,0.02,0.03,0.04,0.04,0.06l0,0c0.02,0.03,0.04,0.05,0.05,0.08c0,0.02,0.01,0.04,0.03,0.05
				c0.01,0.02,0.03,0.04,0.04,0.06l0,0c0.02,0.03,0.04,0.05,0.05,0.08c0,0.02,0,0.03,0.02,0.04c0.02,0.02,0.03,0.04,0.05,0.07
				c0.01,0.02,0.02,0.04,0.03,0.06c0.01,0.02,0.03,0.04,0.04,0.05l0,0c0.02,0.03,0.03,0.06,0.05,0.08c0,0.02,0,0.03,0.02,0.04
				c0.02,0.02,0.03,0.05,0.05,0.07c0,0.02,0,0.04,0.02,0.05c0.01,0.02,0.03,0.04,0.04,0.06l0,0c0.01,0.08,0.04,0.15,0.11,0.21
				c0.04-0.05,0.03-0.1,0.02-0.15c0-0.27,0-0.54,0-0.81c0-0.1,0-0.21,0-0.31c0-0.06,0-0.12,0-0.19c0-0.1,0-0.21,0-0.31
				c0-0.17,0-0.33,0-0.5c0-0.27,0-0.54,0-0.81c0-0.25,0-0.5,0-0.74c0-0.17,0-0.33,0-0.5c0-0.14,0-0.29,0-0.43
				C266.67,385.87,266.67,385.73,266.67,385.59z M262.83,403.86c-0.02,0.02-0.05,0.04-0.07,0.06l0,0c-0.12,0.02-0.22,0.07-0.35,0.18
				c1.04,0,2.03,0,3.02,0c0.41,0,0.83-0.01,1.24-0.01c0.08-0.05,0.05-0.13,0.05-0.2c0-1.21,0-2.42,0-3.62c0-0.11-0.01-0.23-0.1-0.35
				c-0.45,0.88-1.03,1.64-1.69,2.34c-0.02,0.02-0.04,0.04-0.06,0.05l-0.01,0.01c-0.02,0.02-0.04,0.04-0.06,0.06l-0.01,0.01
				c-0.29,0.25-0.58,0.5-0.87,0.74c-0.02,0.02-0.04,0.04-0.06,0.05l0,0c-0.19,0.13-0.37,0.25-0.56,0.38
				c-0.02,0.02-0.04,0.04-0.06,0.05l0,0c-0.05,0-0.09,0.02-0.12,0.07l0,0c-0.02,0.02-0.05,0.04-0.07,0.06
				c-0.02,0-0.04,0.01-0.05,0.01c-0.02,0.02-0.04,0.03-0.06,0.05c-0.02,0.01-0.04,0.01-0.06,0.02
				C262.87,403.83,262.85,403.84,262.83,403.86L262.83,403.86z M253.08,403.86L253.08,403.86c-0.02-0.01-0.04-0.03-0.06-0.04
				c-0.02-0.01-0.04-0.02-0.06-0.03c-0.02-0.01-0.04-0.03-0.06-0.04c-0.01-0.01-0.03-0.02-0.05-0.02c-0.03-0.02-0.05-0.03-0.08-0.05
				l0,0c-0.04-0.02-0.08-0.05-0.12-0.07l0,0c-0.02-0.02-0.04-0.03-0.06-0.05c-0.01-0.01-0.03-0.02-0.05-0.02
				c-0.03-0.02-0.05-0.04-0.08-0.06l0,0c-0.02-0.02-0.04-0.03-0.06-0.05c-0.01-0.02-0.03-0.02-0.05-0.02
				c-0.03-0.02-0.05-0.04-0.08-0.06l0,0c-0.02-0.02-0.04-0.03-0.06-0.05c-0.04-0.03-0.08-0.05-0.11-0.08
				c-0.02-0.02-0.05-0.04-0.07-0.06l0,0c-0.02-0.02-0.04-0.03-0.06-0.05c-0.04-0.03-0.08-0.05-0.11-0.08
				c-0.02-0.02-0.05-0.04-0.07-0.06c-0.06-0.09-0.15-0.15-0.24-0.2c-0.33-0.33-0.66-0.65-0.99-0.98c-0.02-0.02-0.05-0.05-0.07-0.07
				l0.01,0c-0.02-0.02-0.04-0.05-0.06-0.07l0.01,0.01c-0.14-0.19-0.28-0.37-0.42-0.56c-0.1-0.14-0.19-0.28-0.29-0.43
				c-0.11-0.19-0.23-0.38-0.34-0.56c-0.02-0.09-0.06-0.18-0.13-0.24c-0.04-0.16-0.11-0.3-0.2-0.43c0-0.05-0.01-0.09-0.06-0.12
				c0,0,0,0,0,0c-0.03-0.16-0.09-0.3-0.17-0.44c-0.03-0.08-0.05-0.16-0.08-0.25c0.01-0.05-0.01-0.1-0.05-0.13
				c0-0.02,0-0.04-0.01-0.05c0.01-0.05,0-0.1-0.05-0.14c-0.01-0.04-0.01-0.07-0.02-0.11c-0.02-0.08-0.04-0.17-0.06-0.25
				c-0.01-0.04-0.03-0.08-0.04-0.13c-0.01-0.04-0.01-0.08-0.02-0.12c-0.01-0.05-0.03-0.09-0.04-0.14c0-0.04-0.01-0.07-0.01-0.11
				c0-0.02,0-0.04-0.01-0.06c-0.01-0.05-0.03-0.1-0.04-0.14c-0.01-0.06-0.01-0.11-0.02-0.17c0.01-0.02,0.01-0.04,0-0.06
				c-0.02-0.17-0.04-0.33-0.06-0.5c0-0.06,0-0.12,0-0.18c0-0.03,0.02-0.07-0.04-0.08c0,0.03-0.01,0.05-0.01,0.08
				c0,0.06,0,0.12,0,0.18c0,1.26,0,2.52,0.01,3.78c0,1.16-0.01,2.33-0.01,3.49c0,0.08-0.03,0.17,0.05,0.23
				c0.05,0.01,0.1,0.03,0.15,0.03c1.64,0,3.27,0,4.91,0c0.04,0,0.06-0.01,0.05-0.06c-0.02-0.01-0.05-0.02-0.07-0.03
				c-0.01-0.01-0.02-0.02-0.04-0.01c-0.03-0.02-0.05-0.03-0.08-0.05c-0.01-0.01-0.02-0.02-0.04-0.02
				C253.14,403.9,253.11,403.88,253.08,403.86z M259.92,399.14c1.66,1.76,4.24,1.52,5.58,0.15c1.35-1.39,1.41-3.7,0.17-5.17
				c-1.28-1.52-4.08-1.88-5.76-0.07c0-0.39,0-0.74,0-1.09c-0.32,0-0.6,0-0.89,0c0,3.56,0,7.09,0,10.64c0.3,0,0.59,0,0.89,0
				C259.92,402.13,259.92,400.67,259.92,399.14z M250.82,397.57c0.22,0.76,0.54,1.4,1.09,1.92c1,0.92,2.22,1.01,3.49,0.88
				c0.63-0.06,1.2-0.28,1.71-0.67c1.39-1.07,1.6-3.5,0.42-4.94c-0.57-0.69-1.32-1.11-2.1-1.49c-0.71-0.35-1.46-0.64-2.12-1.08
				c-1.06-0.71-1.17-2.14-0.24-3.01c0.92-0.86,2.8-0.8,3.66,0.11c0.15,0.16,0.28,0.35,0.42,0.53c0.28-0.12,0.55-0.24,0.83-0.37
				c-0.15-0.29-0.31-0.53-0.51-0.74c-1.22-1.27-3.52-1.41-4.9-0.3c-1.27,1.02-1.42,2.97-0.31,4.16c0.39,0.42,0.89,0.69,1.4,0.95
				c0.76,0.39,1.57,0.69,2.31,1.13c0.99,0.58,1.47,1.43,1.41,2.59c-0.06,1.05-0.64,1.82-1.64,2.12c-0.53,0.16-1.07,0.19-1.62,0.12
				c-1.02-0.12-1.75-0.63-2.16-1.58c-0.08-0.2-0.15-0.4-0.24-0.62C251.41,397.37,251.13,397.46,250.82,397.57z M275.39,396.57
				c0.18-1.7-1.12-3.34-2.85-3.67c-2.16-0.41-4.03,0.65-4.57,2.57c-0.56,1.99,0.4,4.05,2.23,4.7c1.84,0.65,3.99,0.04,4.85-1.81
				c-0.27-0.12-0.54-0.24-0.8-0.36c-1.07,1.45-2.38,1.89-3.86,1.31c-1.06-0.42-1.77-1.6-1.64-2.74
				C270.95,396.57,273.16,396.57,275.39,396.57z M290,392.94c0-0.42,0-0.82,0-1.22c0-0.9-0.01-1.8,0.01-2.69
				c0.01-0.64,0.38-0.95,1-0.86c0.28,0.04,0.56,0.09,0.86,0.13c0-0.3,0-0.59,0-0.87c-0.3-0.16-0.48-0.2-0.96-0.21
				c-1.21-0.03-1.83,0.58-1.83,1.78c0,1.2,0,2.4,0,3.59c0,0.11,0.03,0.23-0.05,0.36c-0.29,0-0.6,0-0.91,0c0,0.3,0,0.58,0,0.89
				c0.33,0,0.64,0,0.98,0c0,2.16,0,4.29,0,6.43c0.31,0,0.61,0.04,0.92-0.02c0-2.14,0-4.26,0-6.41c0.57,0,1.11,0,1.65,0
				c0-0.31,0-0.6,0-0.9C291.1,392.94,290.57,392.94,290,392.94z M283.04,398.59c-0.12,0.1-0.21,0.17-0.3,0.24
				c-1.01,0.82-2.51,0.93-3.57,0.27c-1.06-0.66-1.56-1.93-1.24-3.24c0.48-2.01,2.58-2.55,4.14-1.86c0.33,0.15,0.64,0.36,0.97,0.56
				c0-0.38,0-0.71,0-1.05c-1.32-1.09-3.77-0.86-5.08,0.48c-1.3,1.33-1.34,3.71-0.14,5.13c1.41,1.67,3.94,1.57,5.21,0.6
				C283.04,399.36,283.04,399,283.04,398.59z M285.9,400.26c0-2.44,0-4.87,0-7.31c-0.3-0.01-0.58-0.03-0.86,0.01
				c-0.06,0.52-0.04,7.07,0.03,7.29C285.33,400.26,285.61,400.26,285.9,400.26z M285.51,391.85c0.39,0,0.63-0.24,0.64-0.61
				c0-0.37-0.32-0.73-0.66-0.73c-0.37,0-0.69,0.31-0.7,0.65C284.79,391.57,285.1,391.86,285.51,391.85z"/>
			<path class="st10" d="M300.06,393.02c-0.39,0.84-0.79,1.67-1.17,2.52c-1.25,2.77-2.5,5.54-3.75,8.3
				c-0.03,0.06-0.06,0.11-0.09,0.18c-0.32,0-0.65,0-1.01,0c0.65-1.51,1.29-3,1.93-4.5c-1.01-2.17-2.02-4.35-3.04-6.55
				c0.34,0,0.65,0,0.99,0c0.85,1.79,1.71,3.6,2.58,5.45c0.86-1.85,1.71-3.65,2.56-5.47c0.35,0,0.68,0,1,0
				C300.06,392.98,300.06,393,300.06,393.02z"/>
			<path class="st11" d="M254.51,386.09c-1.13,0.43-2.16,1.03-3.08,1.8c-0.08-0.01-0.13,0.03-0.2,0.07
				c-0.99,0.57-1.99,1.15-2.98,1.72c0-0.14,0-0.29,0-0.43c1.32-0.75,2.64-1.51,3.96-2.26c0.79-0.46,1.57-0.92,2.36-1.39
				c0.23,0,0.46,0,0.68,0C255.06,385.83,254.73,385.88,254.51,386.09z"/>
			<path class="st12" d="M266.67,387.69c0,0.27,0,0.54,0,0.81c-0.4-0.39-0.8-0.77-1.19-1.16c-0.58-0.58-1.15-1.17-1.73-1.75
				c0.27,0,0.54,0,0.81,0C265.24,386.31,265.95,387.01,266.67,387.69z"/>
			<path class="st13" d="M266.33,390.17c-0.01-0.02-0.02-0.04-0.03-0.06c-0.02-0.02-0.03-0.04-0.05-0.07
				c-0.02-0.01-0.02-0.03-0.02-0.04c-0.02-0.03-0.04-0.05-0.05-0.08l0,0c-0.01-0.02-0.03-0.04-0.04-0.06
				c-0.02-0.01-0.03-0.03-0.03-0.05c-0.02-0.03-0.04-0.05-0.05-0.08l0,0c-0.01-0.02-0.03-0.04-0.04-0.06
				c-0.02-0.01-0.03-0.03-0.03-0.05c-0.02-0.03-0.04-0.05-0.06-0.08c-0.61-0.81-1.32-1.53-2.11-2.15c-0.03-0.13-0.15-0.19-0.23-0.28
				c-0.5-0.51-1-1.02-1.5-1.53c0.12,0,0.25,0,0.37,0c0.07,0.08,0.14,0.17,0.22,0.25c1.03,1.03,2.07,2.07,3.11,3.1
				c0.29,0.29,0.59,0.57,0.89,0.86c0,0.27,0,0.54,0,0.81c-0.04-0.02-0.08-0.04-0.12-0.06c0,0,0,0,0,0
				c-0.01-0.02-0.03-0.04-0.04-0.06c-0.02-0.01-0.02-0.03-0.02-0.05c-0.02-0.02-0.03-0.05-0.05-0.07c-0.02-0.01-0.02-0.02-0.02-0.04
				c-0.02-0.03-0.03-0.06-0.05-0.08l0,0C266.35,390.21,266.34,390.19,266.33,390.17z"/>
			<path class="st14" d="M248.25,388.43c0-0.12,0-0.25,0-0.37c1.08-0.62,2.16-1.23,3.22-1.87c0.33-0.2,0.7-0.33,0.99-0.61
				c0.23,0,0.46,0,0.68,0c-0.87,0.51-1.74,1.01-2.6,1.52C249.78,387.55,249.02,387.99,248.25,388.43z"/>
			<path class="st15" d="M263.76,385.59c0.57,0.58,1.15,1.17,1.73,1.75c0.39,0.39,0.79,0.77,1.19,1.16c0,0.17,0,0.33,0,0.5
				c-0.73-0.72-1.47-1.44-2.2-2.17c-0.41-0.41-0.81-0.82-1.21-1.24C263.43,385.59,263.59,385.59,263.76,385.59z"/>
			<path class="st16" d="M254.57,385.59c-0.79,0.46-1.57,0.93-2.36,1.39c-1.32,0.76-2.64,1.51-3.96,2.26c0-0.08,0-0.16,0-0.25
				c0.18-0.09,0.37-0.18,0.54-0.28c1.43-0.82,2.85-1.64,4.27-2.47c0.36-0.21,0.76-0.37,1.07-0.65
				C254.28,385.59,254.43,385.59,254.57,385.59z"/>
			<path class="st17" d="M266.67,387.69c-0.73-0.68-1.43-1.38-2.11-2.11c0.25,0,0.5,0,0.74,0c0.43,0.48,0.89,0.93,1.36,1.36
				C266.67,387.2,266.67,387.44,266.67,387.69z"/>
			<path class="st18" d="M266.67,389.8c-0.3-0.29-0.6-0.57-0.89-0.86c-1.04-1.03-2.07-2.07-3.11-3.1c-0.08-0.08-0.15-0.17-0.22-0.25
				c0.1,0,0.21,0,0.31,0c0.64,0.64,1.27,1.29,1.91,1.93c0.66,0.66,1.33,1.31,2,1.97C266.67,389.59,266.67,389.69,266.67,389.8z"/>
			<path class="st19" d="M248.25,388.43c0.76-0.44,1.53-0.89,2.29-1.33c0.87-0.51,1.74-1.01,2.6-1.52c0.12,0,0.25,0,0.37,0
				c-0.12,0.08-0.23,0.17-0.36,0.24c-1.15,0.66-2.3,1.32-3.45,1.99c-0.48,0.28-0.94,0.58-1.45,0.81
				C248.25,388.56,248.25,388.5,248.25,388.43z"/>
			<path class="st20" d="M254.14,385.59c-0.31,0.29-0.71,0.44-1.07,0.65c-1.42,0.83-2.85,1.65-4.27,2.47
				c-0.18,0.1-0.36,0.19-0.54,0.28c0-0.06,0-0.13,0-0.19c1.06-0.6,2.13-1.2,3.19-1.81c0.8-0.46,1.59-0.94,2.39-1.4
				C253.93,385.59,254.03,385.59,254.14,385.59z"/>
			<path class="st21" d="M263.26,385.59c0.4,0.41,0.8,0.83,1.21,1.24c0.73,0.73,1.47,1.45,2.2,2.17c0,0.1,0,0.21,0,0.31
				c-0.95-0.94-1.91-1.88-2.86-2.83c-0.29-0.29-0.57-0.59-0.86-0.89C263.05,385.59,263.16,385.59,263.26,385.59z"/>
			<path class="st22" d="M253.83,385.59c-0.8,0.47-1.59,0.94-2.39,1.4c-1.06,0.61-2.12,1.21-3.19,1.81c0-0.06,0-0.12,0-0.18
				c0.51-0.23,0.97-0.53,1.45-0.81c1.15-0.66,2.3-1.32,3.45-1.99c0.12-0.07,0.24-0.16,0.36-0.24
				C253.62,385.59,253.72,385.59,253.83,385.59z"/>
			<path class="st23" d="M248.25,387.88c0-0.08,0-0.16,0-0.25c0.53-0.3,1.08-0.59,1.6-0.9c0.64-0.38,1.31-0.71,1.92-1.14
				c0.14,0,0.29,0,0.43,0C250.89,386.35,249.57,387.11,248.25,387.88z"/>
			<path class="st24" d="M262.08,385.59c0.5,0.51,1,1.02,1.5,1.53c0.08,0.09,0.2,0.15,0.23,0.28c-0.41-0.26-0.82-0.51-1.24-0.77
				c-0.02-0.02-0.05-0.03-0.07-0.05c0,0,0.01,0.01,0.01,0.01c-0.25-0.39-0.65-0.64-0.92-1.01
				C261.75,385.59,261.92,385.59,262.08,385.59z"/>
			<path class="st25" d="M262.95,385.59c0.29,0.3,0.57,0.6,0.86,0.89c0.95,0.95,1.91,1.89,2.86,2.83c0,0.06,0,0.12,0,0.19
				c-0.67-0.66-1.34-1.31-2-1.97c-0.64-0.64-1.27-1.29-1.91-1.93C262.83,385.59,262.89,385.59,262.95,385.59z"/>
			<path class="st26" d="M248.25,387.88c1.32-0.76,2.64-1.53,3.96-2.29c0.08,0,0.17,0,0.25,0c-0.28,0.28-0.66,0.41-0.99,0.61
				c-1.07,0.63-2.15,1.25-3.22,1.87C248.25,388,248.25,387.94,248.25,387.88z"/>
			<path class="st27" d="M248.25,387.26c0-0.06,0-0.13,0-0.19c0.19-0.1,0.38-0.2,0.56-0.31c0.65-0.39,1.34-0.74,1.97-1.17
				c0.12,0,0.25,0,0.37,0c-0.56,0.33-1.11,0.67-1.67,0.99C249.08,386.8,248.69,387.08,248.25,387.26z"/>
			<path class="st28" d="M266.67,386.95c-0.48-0.43-0.93-0.88-1.36-1.36c0.17,0,0.33,0,0.5,0c0.26,0.32,0.55,0.6,0.87,0.87
				C266.67,386.62,266.67,386.78,266.67,386.95z"/>
			<path class="st29" d="M250.79,385.59c-0.63,0.43-1.32,0.78-1.97,1.17c-0.18,0.11-0.37,0.21-0.56,0.31c0-0.06,0-0.12,0-0.19
				c0.35-0.21,0.71-0.41,1.06-0.63c0.36-0.23,0.77-0.38,1.1-0.67C250.54,385.59,250.66,385.59,250.79,385.59z"/>
			<path class="st30" d="M250.41,385.59c-0.32,0.29-0.74,0.44-1.1,0.67c-0.35,0.22-0.71,0.42-1.06,0.63c0-0.08,0-0.17,0-0.25
				c0.6-0.34,1.22-0.66,1.79-1.05C250.17,385.59,250.29,385.59,250.41,385.59z"/>
			<path class="st31" d="M251.78,385.59c-0.61,0.43-1.28,0.76-1.92,1.14c-0.53,0.31-1.07,0.6-1.6,0.9c0-0.04,0-0.08,0-0.13
				c0.82-0.46,1.65-0.92,2.46-1.4c0.28-0.16,0.6-0.27,0.82-0.52C251.61,385.59,251.7,385.59,251.78,385.59z"/>
			<path class="st32" d="M251.53,385.59c-0.22,0.25-0.54,0.36-0.82,0.52c-0.81,0.48-1.64,0.93-2.46,1.4c0-0.04,0-0.08,0-0.12
				c0.39-0.22,0.8-0.43,1.18-0.66c0.63-0.38,1.31-0.69,1.91-1.13C251.41,385.59,251.47,385.59,251.53,385.59z"/>
			<path class="st33" d="M261.59,385.59c0.27,0.37,0.67,0.62,0.92,1.01c-0.25-0.11-0.49-0.22-0.74-0.33
				c-0.03-0.05-0.08-0.05-0.13-0.05l0,0c-0.03-0.29-0.3-0.41-0.43-0.62C261.34,385.59,261.46,385.59,261.59,385.59z"/>
			<path class="st34" d="M251.35,385.59c-0.6,0.44-1.28,0.75-1.91,1.13c-0.39,0.23-0.79,0.44-1.18,0.66c0-0.04,0-0.08,0-0.12
				c0.44-0.18,0.83-0.45,1.24-0.69c0.56-0.32,1.11-0.66,1.67-0.99C251.22,385.59,251.28,385.59,251.35,385.59z"/>
			<path class="st35" d="M254.51,386.09c0.22-0.21,0.54-0.26,0.74-0.5c0.43,0,0.87,0,1.3,0c0,0.02,0,0.04,0,0.05
				c-0.08,0-0.16,0.01-0.24,0.01c-0.07-0.01-0.14-0.02-0.19,0.04c-0.06,0.01-0.12,0.01-0.18,0.02c-0.07,0-0.14-0.02-0.19,0.05
				C255.34,385.87,254.93,385.98,254.51,386.09z"/>
			<path class="st36" d="M266.67,386.45c-0.31-0.27-0.6-0.55-0.87-0.87c0.14,0,0.29,0,0.43,0c0.12,0.17,0.26,0.31,0.43,0.43
				C266.67,386.16,266.67,386.31,266.67,386.45z"/>
			<path class="st37" d="M261.21,385.59c0.13,0.22,0.4,0.34,0.43,0.62c-0.19-0.06-0.37-0.13-0.56-0.19
				c-0.12-0.14-0.25-0.29-0.37-0.43C260.88,385.59,261.05,385.59,261.21,385.59z"/>
			<path class="st38" d="M260.72,385.59c0.12,0.14,0.25,0.29,0.37,0.43c-0.17-0.04-0.33-0.09-0.5-0.13
				c-0.04-0.01-0.08-0.03-0.13-0.04c-0.04-0.01-0.08-0.01-0.12-0.02c-0.04-0.05-0.09-0.05-0.14-0.04c-0.06-0.01-0.12-0.01-0.17-0.02
				c-0.04-0.05-0.09-0.05-0.14-0.04l-0.02,0.01l-0.02-0.01c-0.02-0.04-0.04-0.08-0.06-0.13
				C260.1,385.59,260.41,385.59,260.72,385.59z"/>
			<path class="st39" d="M250.04,385.59c-0.57,0.39-1.19,0.71-1.79,1.05c0-0.04,0-0.08,0-0.12c0.5-0.33,1.06-0.57,1.54-0.93
				C249.88,385.59,249.96,385.59,250.04,385.59z"/>
			<path class="st40" d="M248.25,386.39c0-0.06,0-0.12,0-0.19c0.35-0.21,0.7-0.41,1.04-0.62c0.1,0,0.21,0,0.31,0
				C249.16,385.85,248.7,386.12,248.25,386.39z"/>
			<path class="st41" d="M248.25,386.39c0.45-0.27,0.9-0.54,1.35-0.8c0.06,0,0.12,0,0.19,0c-0.48,0.36-1.04,0.6-1.54,0.93
				C248.25,386.47,248.25,386.43,248.25,386.39z"/>
			<path class="st42" d="M248.25,386.08c0-0.06,0-0.12,0-0.18c0.19-0.09,0.38-0.18,0.55-0.31c0.08,0,0.17,0,0.25,0
				C248.82,385.81,248.52,385.91,248.25,386.08z"/>
			<path class="st43" d="M248.25,386.08c0.26-0.17,0.57-0.27,0.8-0.49c0.08,0,0.17,0,0.25,0c-0.35,0.21-0.7,0.41-1.04,0.62
				C248.25,386.16,248.25,386.12,248.25,386.08z"/>
			<path class="st44" d="M266.67,386.02c-0.17-0.12-0.31-0.26-0.43-0.43c0.14,0,0.29,0,0.43,0
				C266.67,385.73,266.67,385.87,266.67,386.02z"/>
			<path class="st45" d="M248.8,385.59c-0.17,0.13-0.36,0.22-0.55,0.31c0-0.1-0.01-0.21-0.01-0.31
				C248.43,385.59,248.61,385.59,248.8,385.59z"/>
			<path class="st46" d="M259.79,385.59c0.02,0.04,0.04,0.08,0.06,0.13c-0.04,0-0.08-0.01-0.13-0.01c-0.07-0.08-0.17-0.05-0.26-0.05
				c-0.08,0-0.16-0.01-0.24-0.01c0-0.02,0-0.03,0-0.05C259.41,385.59,259.6,385.59,259.79,385.59z"/>
			<path class="st47" d="M257.18,385.59c-0.07,0.09-0.16,0.05-0.25,0.06c0-0.02,0-0.04,0-0.06
				C257.01,385.59,257.1,385.59,257.18,385.59z"/>
			<path class="st48" d="M256.56,385.64c0-0.02,0-0.04,0-0.05c0.06,0,0.12,0,0.19,0c0,0.02,0,0.04,0,0.05
				C256.68,385.64,256.62,385.64,256.56,385.64z"/>
			<path class="st49" d="M256.74,385.64c0-0.02,0-0.04,0-0.05c0.06,0,0.12,0,0.19,0c0,0.02,0,0.04,0,0.06
				C256.86,385.64,256.8,385.64,256.74,385.64z"/>
			<path class="st50" d="M258.98,385.64c-0.06,0-0.12,0-0.18,0c0-0.02-0.01-0.04-0.01-0.06c0.06,0,0.12,0,0.19,0
				C258.98,385.6,258.98,385.62,258.98,385.64z"/>
			<path class="st51" d="M258.98,385.64c0-0.02,0-0.03,0-0.05c0.06,0,0.12,0,0.19,0c0,0.02,0,0.04,0,0.05
				C259.11,385.64,259.04,385.64,258.98,385.64z"/>
			<path class="st52" d="M258.79,385.59c0,0.02,0,0.04,0.01,0.06c-0.05,0.01-0.1,0-0.13-0.06
				C258.71,385.59,258.75,385.59,258.79,385.59z"/>
			<path class="st53" d="M259.17,385.64c0-0.02,0-0.04,0-0.05c0.02,0,0.04,0,0.06,0c0,0.02,0,0.03,0,0.05c0,0-0.03,0.01-0.03,0.01
				L259.17,385.64z"/>
			<path class="st10" d="M259.92,399.14c0,1.53,0,2.99,0,4.46c-0.31,0-0.59,0-0.89,0c0-3.54,0-7.08,0-10.64c0.29,0,0.57,0,0.89,0
				c0,0.35,0,0.7,0,1.09c1.68-1.82,4.48-1.45,5.76,0.07c1.24,1.47,1.18,3.78-0.17,5.17C264.16,400.67,261.57,400.9,259.92,399.14z
				 M262.78,393.74c-1.64,0-2.9,1.24-2.9,2.86c0,1.6,1.32,2.93,2.91,2.91c1.58-0.01,2.87-1.31,2.88-2.88
				C265.68,395.04,264.37,393.74,262.78,393.74z"/>
			<path class="st10" d="M250.82,397.57c0.31-0.1,0.59-0.2,0.88-0.3c0.08,0.22,0.15,0.43,0.24,0.62c0.4,0.95,1.14,1.46,2.16,1.58
				c0.55,0.07,1.09,0.04,1.62-0.12c1.01-0.3,1.59-1.07,1.64-2.12c0.06-1.16-0.43-2.01-1.41-2.59c-0.74-0.44-1.54-0.74-2.31-1.13
				c-0.51-0.26-1.01-0.53-1.4-0.95c-1.11-1.19-0.96-3.14,0.31-4.16c1.39-1.11,3.69-0.97,4.9,0.3c0.2,0.21,0.36,0.45,0.51,0.74
				c-0.28,0.12-0.55,0.24-0.83,0.37c-0.14-0.18-0.27-0.37-0.42-0.53c-0.86-0.92-2.74-0.97-3.66-0.11c-0.93,0.87-0.82,2.3,0.24,3.01
				c0.66,0.45,1.41,0.73,2.12,1.08c0.78,0.39,1.54,0.8,2.1,1.49c1.18,1.44,0.98,3.87-0.42,4.94c-0.5,0.39-1.08,0.6-1.71,0.67
				c-1.27,0.13-2.49,0.04-3.49-0.88C251.36,398.97,251.04,398.32,250.82,397.57z"/>
			<path class="st10" d="M275.39,396.57c-2.23,0-4.43,0-6.64,0c-0.13,1.14,0.58,2.32,1.64,2.74c1.48,0.58,2.79,0.14,3.86-1.31
				c0.26,0.12,0.53,0.24,0.8,0.36c-0.86,1.85-3.01,2.46-4.85,1.81c-1.83-0.65-2.79-2.71-2.23-4.7c0.54-1.92,2.41-2.97,4.57-2.57
				C274.27,393.22,275.57,394.87,275.39,396.57z M274.36,395.67c-0.2-1.1-1.36-1.94-2.69-1.97c-1.37-0.03-2.5,0.77-2.78,1.97
				C270.71,395.67,272.52,395.67,274.36,395.67z"/>
			<path class="st10" d="M290,392.94c0.57,0,1.1,0,1.66,0c0,0.3,0,0.58,0,0.9c-0.54,0-1.08,0-1.65,0c0,2.15,0,4.27,0,6.41
				c-0.32,0.06-0.61,0.03-0.92,0.02c0-2.14,0-4.27,0-6.43c-0.33,0-0.65,0-0.98,0c0-0.31,0-0.59,0-0.89c0.32,0,0.62,0,0.91,0
				c0.09-0.13,0.05-0.25,0.05-0.36c0-1.2,0-2.4,0-3.59c0-1.21,0.62-1.81,1.83-1.78c0.48,0.01,0.66,0.05,0.96,0.21
				c0,0.28,0,0.57,0,0.87c-0.3-0.05-0.58-0.09-0.86-0.13c-0.63-0.09-0.99,0.21-1,0.86c-0.02,0.9-0.01,1.8-0.01,2.69
				C290,392.12,290,392.52,290,392.94z"/>
			<path class="st10" d="M283.04,398.59c0,0.42,0,0.78,0,1.13c-1.27,0.97-3.8,1.06-5.21-0.6c-1.2-1.42-1.16-3.81,0.14-5.13
				c1.31-1.34,3.76-1.57,5.08-0.48c0,0.33,0,0.67,0,1.05c-0.34-0.2-0.64-0.41-0.97-0.56c-1.56-0.69-3.65-0.15-4.14,1.86
				c-0.32,1.31,0.18,2.59,1.24,3.24c1.06,0.66,2.56,0.55,3.57-0.27C282.83,398.75,282.91,398.69,283.04,398.59z"/>
			<path class="st54" d="M285.9,400.26c-0.29,0-0.56,0-0.83,0c-0.07-0.22-0.09-6.77-0.03-7.29c0.28-0.04,0.56-0.02,0.86-0.01
				C285.9,395.4,285.9,397.82,285.9,400.26z"/>
			<path class="st55" d="M249.56,390.11c-0.43,0.8-0.81,1.61-1.03,2.5c-0.1,0.4-0.17,0.8-0.23,1.21c-0.02,0-0.03,0-0.05,0
				c0-0.99,0-1.98,0-2.97C248.68,390.59,249.1,390.33,249.56,390.11z"/>
			<path class="st54" d="M285.51,391.85c-0.42,0.01-0.72-0.28-0.72-0.68c0-0.35,0.33-0.65,0.7-0.65c0.34,0,0.66,0.36,0.66,0.73
				C286.14,391.61,285.9,391.85,285.51,391.85z"/>
			<path class="st56" d="M248.25,389.67c0.99-0.57,1.99-1.14,2.98-1.72c0.06-0.04,0.12-0.08,0.2-0.07c-0.34,0.35-0.68,0.7-1.02,1.04
				c-0.27,0.08-0.49,0.26-0.73,0.39c-0.48,0.26-0.93,0.57-1.43,0.79C248.25,389.96,248.25,389.82,248.25,389.67z"/>
			<path class="st57" d="M264.94,402.26c0.66-0.7,1.24-1.46,1.69-2.34c0.09,0.12,0.1,0.24,0.1,0.35c0,1.21,0,2.42,0,3.62
				c0,0.07,0.02,0.15-0.05,0.2c0-0.02,0-0.03-0.01-0.05c0-0.24,0-0.49,0-0.74c0-0.12,0-0.25,0-0.37c0-0.1,0-0.21,0-0.31
				c0-0.06,0-0.13,0-0.19c0-0.08,0-0.16,0-0.25c0-0.08,0-0.17,0-0.25c0-0.06,0-0.12,0-0.19c0-0.14,0-0.29,0-0.43
				c0-0.17,0-0.33,0-0.5c-0.01-0.09,0.03-0.18-0.03-0.27c-0.12,0.04-0.18,0.14-0.25,0.22c-0.6,0.72-1.22,1.44-1.81,2.17
				c-0.3,0.37-0.64,0.69-0.89,1.1c-0.06,0-0.12,0-0.19,0c0.1-0.25,0.32-0.41,0.47-0.62c0.26-0.36,0.6-0.66,0.83-1.04
				c0,0,0.01-0.01,0.01-0.01c0.02-0.02,0.04-0.04,0.06-0.06c0,0,0.01-0.01,0.01-0.01C264.9,402.29,264.92,402.28,264.94,402.26z"/>
			<path class="st58" d="M253.29,403.98c0.02,0,0.03,0,0.04,0.01c-0.22,0.11-0.46,0.03-0.68,0.04c-1.45-1.21-2.89-2.43-4.34-3.64
				c0-0.02,0-0.05-0.01-0.07c0-0.04,0-0.08,0-0.12c0.84,0.7,1.67,1.41,2.52,2.1c0.22,0.18,0.38,0.47,0.72,0.49
				c0.09,0.05,0.18,0.11,0.24,0.2c0.02,0.02,0.05,0.04,0.07,0.06c0.04,0.03,0.08,0.05,0.11,0.08c0.02,0.02,0.04,0.03,0.06,0.05l0,0
				c0.02,0.02,0.05,0.04,0.07,0.06c0.04,0.03,0.08,0.05,0.11,0.08c0.02,0.02,0.04,0.03,0.06,0.05l0,0c0.03,0.02,0.05,0.04,0.08,0.06
				c0.02,0,0.03,0.01,0.05,0.02c0.02,0.02,0.04,0.03,0.06,0.05l0,0c0.03,0.02,0.05,0.04,0.08,0.06c0.02,0,0.03,0,0.05,0.02
				c0.02,0.02,0.04,0.03,0.06,0.05c0,0,0,0,0,0c0.02,0.05,0.07,0.07,0.12,0.07l0,0c0.03,0.02,0.05,0.03,0.08,0.05
				c0.02,0,0.04,0.01,0.05,0.02c0.02,0.01,0.04,0.03,0.06,0.04c0.02,0.01,0.04,0.02,0.06,0.03c0.02,0.01,0.04,0.03,0.05,0.04l0,0
				c0.03,0.02,0.06,0.03,0.09,0.05c0.02,0,0.03,0,0.04,0.02C253.24,403.94,253.26,403.96,253.29,403.98z"/>
			<path class="st59" d="M251.54,402.79c-0.34-0.02-0.49-0.31-0.72-0.49c-0.85-0.68-1.68-1.4-2.52-2.1c0-0.08,0-0.17,0-0.25
				c0.32,0.27,0.63,0.55,0.96,0.8c0.4,0.3,0.73,0.68,1.16,0.93c0,0-0.01-0.01-0.01-0.01c0.02,0.02,0.04,0.05,0.06,0.07
				c0,0-0.01,0-0.01,0c0.02,0.02,0.05,0.05,0.07,0.07C250.88,402.14,251.21,402.47,251.54,402.79z"/>
			<path class="st60" d="M249.56,390.11c-0.45,0.22-0.88,0.48-1.3,0.73c0-0.14,0-0.29,0-0.43c0.05-0.02,0.1-0.03,0.14-0.06
				c0.53-0.3,1.02-0.64,1.58-0.87c-0.08,0.12-0.17,0.25-0.25,0.37c-0.02,0.02-0.03,0.05-0.05,0.07c-0.01,0.02-0.02,0.04-0.03,0.06
				c-0.01,0.02-0.03,0.03-0.04,0.05l0,0C249.59,390.07,249.57,390.09,249.56,390.11L249.56,390.11z"/>
			<path class="st61" d="M249.98,389.49c-0.56,0.23-1.06,0.58-1.58,0.87c-0.04,0.02-0.09,0.04-0.14,0.06c0-0.1,0-0.21,0-0.31
				c0.5-0.22,0.95-0.53,1.43-0.79c0.24-0.13,0.46-0.31,0.73-0.39C250.26,389.11,250.12,389.3,249.98,389.49z"/>
			<path class="st62" d="M250.43,401.68c-0.44-0.25-0.77-0.63-1.16-0.93c-0.33-0.25-0.64-0.53-0.96-0.8c0-0.06,0-0.12,0-0.19
				c0.32,0.27,0.63,0.56,0.97,0.8c0.25,0.18,0.41,0.47,0.73,0.55C250.15,401.31,250.29,401.5,250.43,401.68z"/>
			<path class="st63" d="M264.82,402.38c-0.23,0.38-0.57,0.68-0.83,1.04c-0.15,0.21-0.38,0.37-0.47,0.62c-0.12,0-0.25,0-0.37,0
				c0.04-0.09,0.13-0.13,0.19-0.19c0.21-0.2,0.41-0.42,0.55-0.67c0,0,0,0,0,0c0.02-0.02,0.04-0.04,0.06-0.05
				C264.23,402.88,264.52,402.63,264.82,402.38z"/>
			<path class="st64" d="M250.01,401.13c-0.32-0.09-0.48-0.38-0.73-0.55c-0.34-0.24-0.65-0.53-0.97-0.8c0-0.06,0-0.12,0-0.19
				c0.15,0.09,0.28,0.21,0.42,0.31c0.34,0.26,0.62,0.6,1,0.8C249.81,400.84,249.91,400.98,250.01,401.13z"/>
			<path class="st65" d="M249.72,400.7c-0.38-0.21-0.66-0.54-1-0.8c-0.14-0.11-0.27-0.22-0.42-0.31c0-0.08,0-0.17,0-0.25
				c0.17,0.1,0.31,0.24,0.46,0.36c0.2,0.15,0.34,0.39,0.61,0.44C249.49,400.32,249.6,400.51,249.72,400.7z"/>
			<path class="st66" d="M252.64,404.03c0.23-0.01,0.46,0.07,0.68-0.04c0.03,0.01,0.05,0.02,0.07,0.03
				c0.01,0.05-0.02,0.06-0.05,0.06c-1.64,0-3.27,0-4.91,0c-0.05,0-0.1-0.02-0.15-0.03c0,0,0.02-0.02,0.02-0.02c0.2,0,0.41,0,0.61,0
				c0.12,0,0.25,0,0.37,0c0.14,0,0.29,0,0.43,0c0.12,0,0.25,0,0.37,0c0.08,0,0.17,0,0.25,0c0.08,0,0.17,0,0.25,0
				c0.06,0,0.12,0,0.19,0c0.08,0,0.17,0,0.25,0c0.16,0,0.33,0,0.49,0c0.17,0,0.33,0,0.5,0c0.1,0,0.21,0,0.31,0
				C252.44,404.03,252.54,404.03,252.64,404.03z"/>
			<path class="st67" d="M249.04,399.46c0.09,0.14,0.16,0.28,0.2,0.43c-0.31-0.25-0.63-0.5-0.94-0.74c0-0.1,0-0.21,0-0.31
				c0.25,0.14,0.41,0.4,0.68,0.5l0,0C248.99,399.39,249,399.43,249.04,399.46z"/>
			<path class="st68" d="M263.88,403.18c-0.14,0.26-0.34,0.47-0.55,0.67c-0.07,0.06-0.15,0.11-0.19,0.19c-0.13,0-0.25,0-0.39,0
				c0.01-0.06,0.01-0.09,0.02-0.13c0,0,0,0,0,0c0.02-0.02,0.05-0.04,0.07-0.06c0,0,0,0,0,0c0.02-0.02,0.04-0.03,0.06-0.05
				c0.02-0.01,0.04-0.01,0.06-0.02c0.02-0.02,0.04-0.03,0.06-0.05c0.02-0.01,0.03-0.01,0.05-0.01c0.02-0.02,0.05-0.04,0.07-0.06
				c0,0,0,0,0,0c0.05,0,0.1-0.02,0.12-0.07c0,0,0,0,0,0c0.02-0.02,0.04-0.04,0.06-0.05C263.51,403.43,263.69,403.3,263.88,403.18z"
				/>
			<path class="st69" d="M248.3,398.84c0,0.1,0,0.21,0,0.31c0,0.06,0,0.12,0,0.19c0,0.08,0,0.17,0,0.25c0,0.06,0,0.12,0,0.19
				c0,0.06,0,0.12,0,0.19c0,0.08,0,0.17,0,0.25c0,0.04,0,0.08,0,0.12c-0.02,0-0.03,0.01-0.05,0.01c0-1.26,0-2.52-0.01-3.78
				c0,0,0.03,0,0.03,0l0.03,0c0.02,0.17,0.04,0.33,0.06,0.5c-0.02,0.02-0.04,0.04-0.05,0.06c0,0.1,0,0.21,0,0.31
				c0,0.21,0,0.41,0,0.62c0,0.19,0,0.37,0,0.56C248.3,398.68,248.3,398.76,248.3,398.84z"/>
			<path class="st59" d="M248.25,400.33c0.02,0,0.03-0.01,0.05-0.01c0,0.02,0,0.05,0.01,0.07c0,0.1,0,0.21,0,0.31
				c0,0.08,0,0.17,0,0.25c0,0.14,0,0.29,0,0.43c0,0.12,0,0.25,0,0.37c0,0.06,0,0.12,0,0.19c0,0.06,0,0.12,0,0.19
				c0,0.06,0,0.12,0,0.19c0,0.08,0,0.16,0,0.25c0,0.08,0,0.17,0,0.25c0,0.12,0,0.25,0,0.37c0,0.1,0,0.21,0,0.31
				c0,0.18,0,0.36,0.01,0.55c0,0-0.02,0.02-0.02,0.02c-0.08-0.06-0.05-0.15-0.05-0.23C248.25,402.66,248.25,401.5,248.25,400.33z"/>
			<path class="st70" d="M248.3,398.59c0-0.19,0-0.37,0-0.56c0.14-0.01,0.19,0.13,0.3,0.18c0.01,0.04,0.01,0.07,0.02,0.11
				c-0.01,0.05,0,0.1,0.05,0.14c0.01,0.02,0.02,0.03,0.01,0.05c0,0.05,0,0.1,0.05,0.13c0.03,0.08,0.05,0.16,0.08,0.25
				C248.58,398.91,248.53,398.6,248.3,398.59z"/>
			<path class="st71" d="M262.76,403.91c0,0.04-0.01,0.07-0.02,0.13c0.14,0,0.27,0,0.39,0c0.12,0,0.25,0,0.37,0
				c0.06,0,0.12,0,0.19,0c0.08,0,0.17,0,0.25,0c0.14,0,0.29,0,0.43,0c0.12,0,0.25,0,0.37,0c0.04,0,0.08,0,0.12,0
				c0.08,0,0.17,0,0.25,0c0.04,0,0.08,0,0.12,0c0.06,0,0.12,0,0.19,0l0,0c0,0.02,0,0.03,0,0.05c-0.99,0-1.98,0-3.02,0
				C262.54,403.99,262.64,403.94,262.76,403.91z"/>
			<path class="st72" d="M248.3,399.34c0-0.06,0-0.12,0-0.19c0.31,0.25,0.63,0.5,0.94,0.74c0.07,0.07,0.11,0.15,0.13,0.24
				c-0.27-0.05-0.41-0.3-0.61-0.44C248.61,399.58,248.47,399.44,248.3,399.34z"/>
			<path class="st73" d="M248.3,398.59c0.23,0.01,0.27,0.31,0.51,0.31c0.09,0.13,0.14,0.28,0.17,0.44c-0.28-0.1-0.44-0.36-0.68-0.5
				C248.3,398.76,248.3,398.68,248.3,398.59z"/>
			<path class="st74" d="M248.6,398.22c-0.1-0.05-0.16-0.19-0.3-0.18c0-0.21,0-0.41,0-0.62c0.02,0,0.04,0,0.06,0l0,0
				c0.02,0.02,0.04,0.04,0.05,0.06c0,0.04,0.01,0.07,0.01,0.11c-0.01,0.05,0,0.1,0.04,0.14c0.01,0.04,0.01,0.08,0.02,0.12
				c0.01,0.04,0.03,0.08,0.04,0.13C248.56,398.05,248.58,398.14,248.6,398.22z"/>
			<path class="st75" d="M265.43,404.1c0-0.02,0-0.03,0-0.05c0.1,0,0.21,0,0.31,0c0.08,0,0.16,0,0.25,0c0.23,0,0.45,0,0.68,0
				c0,0.02,0,0.03,0.01,0.05C266.26,404.09,265.85,404.09,265.43,404.1z"/>
			<path class="st76" d="M248.37,397.42c-0.02,0-0.04,0-0.06,0c0-0.1,0-0.21,0-0.31c0.02,0,0.03,0,0.05,0
				c0.01,0.06,0.01,0.11,0.02,0.17C248.37,397.32,248.37,397.37,248.37,397.42z"/>
			<path class="st77" d="M266.55,390.54c0.04,0.02,0.08,0.04,0.12,0.06c0.01,0.05,0.02,0.1-0.02,0.15
				C266.59,390.69,266.56,390.62,266.55,390.54z"/>
			<path class="st78" d="M248.3,394.13c0,0.07,0.02,0.14-0.03,0.2c-0.05-0.06-0.02-0.13-0.03-0.2c0,0,0.03,0,0.03,0L248.3,394.13z"
				/>
			<path class="st53" d="M259.46,385.65c0.09,0,0.18-0.03,0.26,0.05C259.63,385.71,259.54,385.71,259.46,385.65z"/>
			<path class="st79" d="M248.3,396.55l-0.03,0c0,0-0.03,0-0.03,0c0-0.06,0-0.12,0-0.18c0,0,0.03,0,0.03,0l0.03,0
				C248.3,396.43,248.3,396.49,248.3,396.55z"/>
			<path class="st80" d="M256.13,385.69c0.05-0.06,0.13-0.05,0.19-0.04C256.26,385.7,256.2,385.71,256.13,385.69z"/>
			<path class="st80" d="M255.75,385.76c0.05-0.06,0.12-0.05,0.19-0.05C255.89,385.77,255.82,385.77,255.75,385.76z"/>
			<path class="st81" d="M248.25,393.82c0.02,0,0.03,0,0.05,0c0,0.06,0,0.12,0,0.18c-0.01,0-0.03,0-0.04,0
				C248.25,393.94,248.25,393.88,248.25,393.82z"/>
			<path class="st46" d="M260.2,385.78c0.05-0.01,0.1,0,0.14,0.04C260.3,385.81,260.25,385.79,260.2,385.78z"/>
			<path class="st82" d="M248.25,394.01c0.01,0,0.03,0,0.04,0c0,0.04,0,0.08,0.01,0.13c0,0-0.03,0-0.03,0s-0.03,0-0.03,0
				C248.25,394.09,248.25,394.05,248.25,394.01z"/>
			<path class="st76" d="M248.54,397.97c-0.01-0.04-0.03-0.08-0.04-0.13C248.51,397.89,248.52,397.93,248.54,397.97z"/>
			<path class="st71" d="M263.26,403.61c-0.02,0.05-0.07,0.06-0.12,0.07C263.17,403.63,263.21,403.61,263.26,403.61z"/>
			<path class="st66" d="M252.77,403.68c-0.05,0-0.09-0.02-0.12-0.07C252.69,403.63,252.73,403.65,252.77,403.68z"/>
			<path class="st83" d="M248.37,397.42c0-0.05,0.01-0.09,0.01-0.14c0.01,0.05,0.03,0.1,0.04,0.14
				C248.4,397.42,248.38,397.42,248.37,397.42L248.37,397.42z"/>
			<path class="st84" d="M248.67,398.47c-0.05-0.03-0.05-0.08-0.05-0.14C248.66,398.37,248.67,398.41,248.67,398.47z"/>
			<path class="st84" d="M248.73,398.65c-0.05-0.03-0.05-0.08-0.05-0.13C248.72,398.56,248.74,398.6,248.73,398.65z"/>
			<path class="st85" d="M248.3,396.37l-0.03,0c0,0-0.03,0-0.03,0c0-0.03,0.01-0.05,0.01-0.08
				C248.32,396.3,248.3,396.34,248.3,396.37z"/>
			<path class="st73" d="M249.04,399.46c-0.05-0.03-0.06-0.07-0.06-0.12C249.03,399.37,249.05,399.41,249.04,399.46z"/>
			<path class="st83" d="M248.48,397.72c-0.04-0.04-0.05-0.08-0.04-0.14C248.45,397.63,248.46,397.68,248.48,397.72z"/>
			<path class="st53" d="M259.89,385.72c0.05-0.01,0.1-0.01,0.14,0.04C259.98,385.74,259.94,385.73,259.89,385.72z"/>
			<path class="st46" d="M260.46,385.84c0.04,0.01,0.08,0.03,0.13,0.04C260.55,385.87,260.5,385.85,260.46,385.84z"/>
			<path class="st37" d="M261.64,386.21c0.05,0,0.1,0.01,0.13,0.05C261.72,386.27,261.68,386.25,261.64,386.21z"/>
			<path class="st33" d="M262.5,386.59c0.02,0.02,0.05,0.03,0.07,0.05C262.55,386.62,262.53,386.6,262.5,386.59z"/>
			<path class="st77" d="M265.93,389.55c0.02,0.03,0.04,0.05,0.06,0.08C265.97,389.6,265.95,389.58,265.93,389.55z"/>
			<path class="st63" d="M264.94,402.26c-0.02,0.02-0.04,0.04-0.06,0.05C264.9,402.29,264.92,402.28,264.94,402.26z"/>
			<path class="st77" d="M266.01,389.68c0.01,0.02,0.03,0.04,0.04,0.06C266.04,389.71,266.03,389.69,266.01,389.68z"/>
			<path class="st63" d="M264.88,402.32c-0.02,0.02-0.04,0.04-0.06,0.06C264.84,402.36,264.86,402.34,264.88,402.32z"/>
			<path class="st77" d="M266.5,390.48c0.01,0.02,0.03,0.04,0.04,0.06C266.53,390.52,266.52,390.5,266.5,390.48z"/>
			<path class="st77" d="M266.06,389.73c0.02,0.03,0.04,0.05,0.05,0.08C266.09,389.79,266.07,389.76,266.06,389.73z"/>
			<path class="st62" d="M250.55,401.81c-0.02-0.02-0.05-0.05-0.07-0.07C250.5,401.77,250.53,401.79,250.55,401.81z"/>
			<path class="st55" d="M249.67,389.93c0.02-0.02,0.03-0.05,0.05-0.07C249.71,389.88,249.69,389.91,249.67,389.93z"/>
			<path class="st62" d="M250.49,401.75c-0.02-0.02-0.04-0.05-0.06-0.07C250.44,401.7,250.46,401.73,250.49,401.75z"/>
			<path class="st83" d="M248.36,397.11c-0.02,0-0.03,0-0.05,0c0.02-0.02,0.04-0.04,0.05-0.06
				C248.36,397.07,248.36,397.09,248.36,397.11z"/>
			<path class="st66" d="M251.85,403.05c-0.02-0.02-0.05-0.04-0.07-0.06C251.8,403.01,251.83,403.03,251.85,403.05z"/>
			<path class="st77" d="M266.44,390.36c0.02,0.02,0.03,0.05,0.05,0.07C266.47,390.4,266.45,390.38,266.44,390.36z"/>
			<path class="st68" d="M263.94,403.12c-0.02,0.02-0.04,0.04-0.06,0.05C263.9,403.16,263.92,403.14,263.94,403.12z"/>
			<path class="st77" d="M266.14,389.86c0.01,0.02,0.03,0.04,0.04,0.06C266.16,389.9,266.15,389.88,266.14,389.86z"/>
			<path class="st66" d="M252.1,403.24c-0.02-0.02-0.05-0.04-0.07-0.06C252.05,403.2,252.08,403.22,252.1,403.24z"/>
			<path class="st77" d="M266.18,389.92c0.02,0.03,0.04,0.05,0.05,0.08C266.21,389.97,266.2,389.95,266.18,389.92z"/>
			<path class="st66" d="M252.28,403.36c-0.02-0.02-0.04-0.03-0.06-0.05C252.24,403.33,252.26,403.35,252.28,403.36z"/>
			<path class="st55" d="M249.61,390.04c0.01-0.02,0.03-0.03,0.04-0.05C249.63,390.01,249.62,390.02,249.61,390.04z"/>
			<path class="st66" d="M252.36,403.42c-0.03-0.02-0.05-0.04-0.08-0.06C252.3,403.38,252.33,403.4,252.36,403.42z"/>
			<path class="st66" d="M252.46,403.49c-0.02-0.02-0.04-0.03-0.06-0.05C252.42,403.46,252.44,403.47,252.46,403.49z"/>
			<path class="st55" d="M249.55,390.12c0.02-0.02,0.04-0.05,0.05-0.07C249.59,390.07,249.57,390.09,249.55,390.12z"/>
			<path class="st66" d="M252.54,403.54c-0.03-0.02-0.05-0.04-0.08-0.06C252.49,403.5,252.52,403.52,252.54,403.54z"/>
			<path class="st66" d="M252.65,403.61c-0.02-0.02-0.04-0.03-0.06-0.05C252.61,403.58,252.63,403.59,252.65,403.61z"/>
			<path class="st71" d="M263.32,403.56c-0.02,0.02-0.04,0.04-0.06,0.05C263.28,403.59,263.3,403.57,263.32,403.56z"/>
			<path class="st77" d="M266.25,390.05c0.02,0.02,0.03,0.04,0.05,0.07C266.28,390.09,266.27,390.07,266.25,390.05z"/>
			<path class="st77" d="M266.33,390.17c0.01,0.02,0.03,0.04,0.04,0.05C266.35,390.21,266.34,390.19,266.33,390.17z"/>
			<path class="st66" d="M252.85,403.73c-0.03-0.02-0.05-0.03-0.08-0.05C252.8,403.7,252.82,403.71,252.85,403.73z"/>
			<path class="st71" d="M263.14,403.68c-0.02,0.02-0.05,0.04-0.07,0.06C263.09,403.71,263.11,403.69,263.14,403.68z"/>
			<path class="st66" d="M252.96,403.8c-0.02-0.01-0.04-0.03-0.06-0.04C252.92,403.77,252.94,403.78,252.96,403.8z"/>
			<path class="st71" d="M263.01,403.75c-0.02,0.02-0.04,0.03-0.06,0.05C262.97,403.78,262.99,403.76,263.01,403.75z"/>
			<path class="st66" d="M253.08,403.86c-0.02-0.01-0.04-0.03-0.05-0.04C253.04,403.84,253.06,403.85,253.08,403.86z"/>
			<path class="st71" d="M262.89,403.81c-0.02,0.02-0.04,0.03-0.06,0.05C262.85,403.84,262.87,403.83,262.89,403.81z"/>
			<path class="st66" d="M253.17,403.91c-0.03-0.02-0.06-0.03-0.09-0.05C253.11,403.88,253.14,403.9,253.17,403.91z"/>
			<path class="st71" d="M262.83,403.86c-0.02,0.02-0.05,0.04-0.07,0.06C262.78,403.9,262.8,403.88,262.83,403.86z"/>
			<path class="st66" d="M253.29,403.98c-0.03-0.02-0.05-0.03-0.08-0.05C253.24,403.94,253.26,403.96,253.29,403.98z"/>
			<path class="st76" d="M248.37,397.42c0.02,0,0.03,0,0.05,0c0,0.02,0,0.04,0.01,0.06C248.4,397.46,248.38,397.44,248.37,397.42z"
				/>
			<path class="st77" d="M266.37,390.23c0.02,0.03,0.03,0.06,0.05,0.08C266.4,390.29,266.38,390.26,266.37,390.23z"/>
			<path class="st66" d="M252.03,403.18c-0.02-0.02-0.04-0.03-0.06-0.05C251.99,403.15,252.01,403.16,252.03,403.18z"/>
			<path class="st9" d="M262.78,393.74c1.59,0,2.89,1.31,2.89,2.89c-0.01,1.58-1.3,2.87-2.88,2.88c-1.59,0.01-2.91-1.32-2.91-2.91
				C259.89,394.98,261.15,393.74,262.78,393.74z"/>
			<path class="st9" d="M274.36,395.67c-1.84,0-3.65,0-5.47,0c0.28-1.2,1.41-2,2.78-1.97C273,393.73,274.16,394.57,274.36,395.67z"
				/>
			<path class="st86" d="M264.38,404.04c-0.14,0-0.29,0-0.43,0c0.22-0.23,0.44-0.47,0.63-0.72c0.36-0.48,0.79-0.92,1.16-1.4
				c0.29-0.38,0.62-0.73,0.93-1.1c0,0.17,0,0.33,0,0.5C265.9,402.23,265.14,403.14,264.38,404.04z"/>
			<path class="st87" d="M266.67,400.83c-0.31,0.36-0.64,0.72-0.93,1.1c-0.37,0.48-0.79,0.91-1.16,1.4
				c-0.19,0.25-0.41,0.49-0.63,0.72c-0.08,0-0.17,0-0.25,0c0.24-0.41,0.59-0.73,0.89-1.1c0.59-0.73,1.2-1.45,1.81-2.17
				c0.07-0.08,0.13-0.18,0.25-0.22C266.7,400.65,266.66,400.74,266.67,400.83z"/>
			<path class="st88" d="M264.38,404.04c0.76-0.91,1.53-1.81,2.29-2.72c0,0.14,0,0.29,0,0.43c-0.17,0.08-0.23,0.26-0.34,0.38
				c-0.53,0.63-1.09,1.24-1.57,1.9C264.63,404.04,264.5,404.04,264.38,404.04z"/>
			<path class="st89" d="M265.12,404.04c-0.08,0-0.17,0-0.25,0c0.21-0.25,0.41-0.51,0.63-0.76c0.4-0.44,0.73-0.94,1.16-1.35
				c0,0.08,0,0.17,0,0.25c-0.34,0.31-0.62,0.68-0.91,1.04C265.54,403.49,265.27,403.72,265.12,404.04z"/>
			<path class="st90" d="M265.74,404.04c-0.1,0-0.21,0-0.31,0c0,0,0,0,0,0c0.4-0.48,0.77-0.99,1.23-1.42c0,0.1,0,0.21,0,0.31
				C266.33,403.28,266.02,403.64,265.74,404.04z"/>
			<path class="st91" d="M266.67,401.94c-0.43,0.41-0.77,0.9-1.16,1.35c-0.22,0.24-0.42,0.5-0.63,0.76c-0.04,0-0.08,0-0.12,0
				c0.48-0.67,1.04-1.27,1.57-1.9c0.11-0.13,0.17-0.3,0.34-0.38C266.67,401.82,266.67,401.88,266.67,401.94z"/>
			<path class="st92" d="M265.12,404.04c0.14-0.32,0.42-0.55,0.63-0.82c0.29-0.36,0.57-0.73,0.91-1.04c0,0.08,0,0.16,0,0.25
				c-0.21,0.02-0.26,0.2-0.3,0.33c-0.28,0.22-0.45,0.5-0.68,0.8c-0.03,0.02-0.1,0.07-0.2,0.13c0.03,0.18-0.13,0.24-0.24,0.34
				C265.21,404.04,265.16,404.04,265.12,404.04z"/>
			<path class="st93" d="M265.74,404.04c0.27-0.4,0.59-0.76,0.92-1.11c0,0.12,0,0.25,0,0.37c-0.28,0.2-0.45,0.5-0.67,0.74
				C265.91,404.04,265.83,404.04,265.74,404.04z"/>
			<path class="st94" d="M265.99,404.04c0.23-0.24,0.4-0.54,0.67-0.74c0,0.25,0,0.49,0,0.74
				C266.44,404.04,266.22,404.04,265.99,404.04z"/>
			<path class="st95" d="M265.25,404.04c0.11-0.1,0.27-0.16,0.24-0.34c0.09-0.06,0.17-0.12,0.2-0.13c0.23-0.3,0.4-0.58,0.68-0.8
				c0.05-0.13,0.09-0.31,0.3-0.33c0,0.06,0,0.13,0,0.19c-0.46,0.43-0.83,0.94-1.23,1.42C265.37,404.04,265.31,404.04,265.25,404.04z
				"/>
			<path class="st96" d="M248.31,400.7c0-0.1,0-0.21,0-0.31c1.45,1.21,2.89,2.43,4.34,3.64c-0.1,0-0.21,0-0.31,0
				c-0.12-0.11-0.24-0.22-0.37-0.33c-0.88-0.74-1.75-1.48-2.64-2.21C248.99,401.23,248.69,400.92,248.31,400.7z"/>
			<path class="st97" d="M248.31,401.38c0-0.14,0-0.29,0-0.43c0.3,0.17,0.53,0.41,0.79,0.63c0.97,0.82,1.95,1.63,2.92,2.45
				c-0.17,0-0.33,0-0.5,0c-0.73-0.61-1.45-1.23-2.19-1.83C248.99,401.92,248.7,401.6,248.31,401.38z"/>
			<path class="st98" d="M248.31,401.38c0.39,0.21,0.69,0.54,1.02,0.82c0.74,0.6,1.46,1.22,2.19,1.83c-0.17,0-0.33,0-0.49,0
				c-0.02-0.02-0.03-0.06-0.05-0.07c-0.89-0.73-1.78-1.47-2.67-2.2C248.31,401.63,248.31,401.51,248.31,401.38z"/>
			<path class="st99" d="M252.02,404.03c-0.97-0.82-1.95-1.63-2.92-2.45c-0.26-0.22-0.49-0.47-0.79-0.63c0-0.08,0-0.17,0-0.25
				c0.38,0.21,0.68,0.53,1.01,0.8c0.89,0.73,1.76,1.47,2.64,2.21c0.13,0.11,0.25,0.22,0.37,0.33
				C252.23,404.03,252.13,404.03,252.02,404.03z"/>
			<path class="st100" d="M248.31,401.76c0.89,0.73,1.78,1.47,2.67,2.2c0.02,0.02,0.04,0.05,0.05,0.07c-0.08,0-0.17,0-0.25,0
				c-0.06-0.07-0.11-0.15-0.18-0.2c-0.76-0.63-1.52-1.26-2.29-1.89C248.31,401.88,248.31,401.82,248.31,401.76z"/>
			<path class="st101" d="M248.31,402.56c0-0.08,0-0.16,0-0.25c0.21,0.17,0.42,0.32,0.62,0.5c0.47,0.41,0.99,0.76,1.42,1.22
				c-0.08,0-0.17,0-0.25,0C249.49,403.55,248.94,403.01,248.31,402.56z"/>
			<path class="st102" d="M248.31,403.18c0-0.12,0-0.25,0-0.37c0.47,0.41,0.98,0.78,1.42,1.22c-0.14,0-0.29,0-0.43,0
				C249,403.71,248.63,403.47,248.31,403.18z"/>
			<path class="st103" d="M249.73,404.03c-0.44-0.45-0.95-0.81-1.42-1.22c0-0.08,0-0.17,0-0.25c0.63,0.45,1.18,0.99,1.79,1.47
				C249.97,404.03,249.85,404.03,249.73,404.03z"/>
			<path class="st104" d="M248.31,401.94c0.76,0.63,1.53,1.26,2.29,1.89c0.07,0.06,0.12,0.14,0.18,0.2c-0.06,0-0.12,0-0.19,0
				c-0.76-0.64-1.52-1.27-2.29-1.91C248.31,402.06,248.31,402,248.31,401.94z"/>
			<path class="st105" d="M248.31,402.13c0.76,0.64,1.52,1.27,2.29,1.91c-0.08,0-0.17,0-0.25,0c-0.43-0.46-0.95-0.81-1.42-1.22
				c-0.2-0.18-0.41-0.33-0.62-0.5C248.31,402.25,248.31,402.19,248.31,402.13z"/>
			<path class="st106" d="M248.31,403.18c0.32,0.29,0.69,0.53,0.98,0.85c-0.12,0-0.25,0-0.37,0c-0.16-0.23-0.41-0.36-0.61-0.54
				C248.31,403.38,248.31,403.28,248.31,403.18z"/>
			<path class="st107" d="M248.31,403.49c0.2,0.19,0.45,0.31,0.61,0.54c-0.2,0-0.41,0-0.61,0
				C248.31,403.85,248.31,403.67,248.31,403.49z"/>
		</g>
	</g>
</g>
<text transform="matrix(1 0 0 1 247.0026 383.5854)" class="st10 st7 st108">Powered by:</text>
</svg>
