<?xml version="1.0" encoding="UTF-8"?>
<svg id="Layer_1_copy" data-name="Layer 1 copy" xmlns="http://www.w3.org/2000/svg" xmlns:xlink="http://www.w3.org/1999/xlink" viewBox="0 0 344.33 425.24">
  <defs>
    <style>
      .cls-1 {
        fill: url(#linear-gradient);
      }

      .cls-2 {
        fill: #ffcc04;
      }

      .cls-3, .cls-4 {
        fill: #10294b;
      }

      .cls-4 {
        font-family: Sentinel-Semibold, Sentinel;
        font-size: 20px;
        font-weight: 700;
      }

      .cls-5 {
        letter-spacing: -.03em;
      }

      .cls-6 {
        fill: url(#linear-gradient-2);
      }
    </style>
    <linearGradient id="linear-gradient" x1="148.42" y1="326.9" x2="64.71" y2="96.94" gradientTransform="translate(405.66 53.07) rotate(79.92)" gradientUnits="userSpaceOnUse">
      <stop offset="0" stop-color="#a7dce0"/>
      <stop offset="1" stop-color="#5598b0"/>
    </linearGradient>
    <linearGradient id="linear-gradient-2" x1="169.61" y1="385.5" x2="109.01" y2="219.01" gradientTransform="translate(414.57 90.15) rotate(89.46)" gradientUnits="userSpaceOnUse">
      <stop offset="0" stop-color="#bee5e7"/>
      <stop offset="1" stop-color="#7ab4cd"/>
    </linearGradient>
  </defs>
  <path class="cls-1" d="M104.69,174.93c-1.06-1.1-1.98-2.07-2.91-3.04-1.45-1.5-3.09-2.77-4.92-3.75-1.46-.78-2.94-1.51-4.48-2.12-2.85-1.12-5.69-2.3-8.63-3.15-2.51-.72-5.14-1.05-7.72-1.49-1.76-.3-3.53-.56-5.3-.75-3.08-.32-6.17-.63-9.27-.84-1.85-.13-3.72,.04-5.57-.13-.63-.06-1.18-.11-1.78,.06-.14,.04-.52-.23-.51-.31,.05-.28,.15-.64,.35-.78,2.3-1.64,4.62-3.25,6.96-4.85,2.13-1.45,4.26-2.9,6.42-4.31,2.19-1.43,4.43-2.79,6.64-4.2,2.03-1.3,4.01-2.69,6.08-3.93,2.18-1.31,4.44-2.5,6.68-3.71,1.24-.67,2.48-1.35,3.76-1.94,2.4-1.11,4.83-2.14,7.23-3.26,.96-.45,1.87-1.03,2.79-1.57,2.19-1.29,4.23-2.7,6.11-4.49,2.73-2.61,5.86-4.81,8.86-7.14,1.93-1.5,3.87-3,5.9-4.35,3.05-2.02,6.16-3.94,9.28-5.84,3.26-1.99,6.51-3.99,9.84-5.86,3.18-1.79,6.42-3.5,9.69-5.12,2.83-1.4,5.74-2.67,8.65-3.92,2.19-.93,4.42-1.76,6.65-2.59,2.35-.88,4.71-1.77,7.1-2.55,1.33-.43,2.75-.62,4.11-.97,1.56-.41,3.1-.92,4.66-1.32,3.95-1,7.94-1.7,12.04-1.85,2.05-.08,4.09-.46,6.14-.62,1.61-.13,3.23-.13,4.84-.18,1.48-.05,2.97-.15,4.45-.12,1.82,.04,3.64,.19,5.47,.28,1.38,.07,2.76,.04,4.13,.17,1.94,.18,3.87,.4,5.79,.74,2.77,.49,5.55,1,8.28,1.68,2.67,.67,5.28,1.57,7.92,2.37,1.78,.54,3.58,1.03,5.34,1.65,3.81,1.34,7.62,2.67,11.37,4.16,3.15,1.25,6.22,2.69,9.3,4.1,1.22,.56,2.39,1.23,3.57,1.88,1.6,.88,3.23,1.73,4.77,2.71,2.56,1.62,5.06,3.31,7.58,4.99,1.78,1.19,3.58,2.36,5.3,3.63,1.64,1.21,3.2,2.52,4.77,3.82,1.15,.95,2.28,1.91,3.37,2.92,.58,.54,1.06,1.21,1.72,1.98,.35-.92,.65-1.57,.84-2.25,.84-2.88,1.64-5.76,2.46-8.64,.43-1.52,.79-3.07,1.35-4.54,.21-.55,.86-1.05,1.43-1.29,.22-.09,.83,.56,1.15,.96,2.99,3.75,4.65,8.18,6.21,12.62,1.25,3.56,2.44,7.15,3.43,10.78,.69,2.53,1,5.17,1.49,7.76,.41,2.17,.7,4.37,1.32,6.48,.36,1.22,1.24,2.29,1.92,3.4,.79,1.28,1.67,2.51,2.42,3.81,.97,1.67,1.88,3.37,2.77,5.08,1.5,2.91,3.07,5.8,4.41,8.78,1.75,3.89,3.41,7.83,4.92,11.81,1.34,3.53,2.56,7.12,3.6,10.75,1.12,3.9,2.03,7.86,2.92,11.82,.72,3.22,1.36,6.47,1.87,9.73,.42,2.68,.6,5.4,.91,8.1,.29,2.63,.68,5.26,.89,7.9,.22,2.78,.3,5.58,.37,8.37,.08,3.04,.2,6.09,.08,9.12-.14,3.47-.4,6.95-.84,10.39-.2,1.54-.86,3.05-1.48,4.5-.65,1.51-2.18,2.13-3.57,2.66-3.02,1.15-5.82,.35-8.37-1.47-2.27-1.62-4.56-3.24-6.73-4.99-1.8-1.45-3.44-3.11-5.14-4.68-2.41-2.22-4.94-4.33-7.2-6.7-2.71-2.85-5.23-5.88-7.73-8.91-2.41-2.92-4.67-5.95-7.03-8.91-2.42-3.05-4.92-6.04-7.32-9.1-1.56-2-2.97-4.13-4.51-6.15-1.09-1.42-2.28-2.77-3.47-4.12-1.03-1.16-2.1-2.29-3.21-3.38-1.06-1.04-2.17-2.03-3.27-3.03-.14-.13-.36-.23-.55-.24-2.02-.11-4.04-.23-6.06-.3-1.66-.06-3.31-.09-4.97-.1-2.31,0-4.62,.06-6.93,.03-2.31-.03-4.62-.13-6.93-.23-1.65-.07-3.3-.18-4.95-.25-1.82-.08-3.64-.18-5.47-.21-1.48-.02-2.96,.09-4.44,.05-2.41-.06-4.81-.19-7.21-.3-.17,0-.34-.05-.52-.06-1.68-.1-2.2-1.23-1.36-2.71,1.57-2.78,3.96-4.75,6.36-6.72,2.03-1.66,4.09-3.28,6.2-4.82,.85-.62,1.88-1,2.83-1.48,1.93-.98,3.84-2.01,5.8-2.91,1.31-.6,2.71-1,4.05-1.53,1.66-.66,3.29-1.37,5.25-2.19-.89-1.09-1.55-2.09-2.39-2.9-2.79-2.73-5.61-5.44-8.49-8.07-2.07-1.88-4.18-3.73-6.42-5.41-4.11-3.08-8.33-6.03-12.5-9.03-1.38-.99-2.74-2.01-4.17-2.91-1.31-.83-2.7-1.53-4.06-2.28-1.69-.94-3.35-1.93-5.07-2.79-2.28-1.14-4.6-2.22-6.93-3.26-2.68-1.19-5.33-2.45-8.09-3.42-2.76-.97-5.62-1.71-8.46-2.41-3.15-.78-6.31-1.49-9.5-2.06-2.54-.46-5.12-.7-7.69-.98-1.54-.17-3.09-.33-4.64-.32-2.26,.01-4.53,.16-6.79,.29-1.48,.08-2.97,.09-4.42,.37-3.41,.64-6.91,.79-10.26,1.89-2.44,.81-4.99,1.26-7.48,1.93-1.66,.45-3.31,.98-4.94,1.54-2.63,.9-5.28,1.76-7.85,2.83-1.87,.78-3.6,1.89-5.42,2.79-1.04,.52-2.11,1.02-3.21,1.37-1.11,.35-1.53,1.25-1.97,2.13-.8,1.57-1.55,3.16-2.27,4.76-.39,.87-.72,1.77-1,2.67-.62,1.99-1.19,4-1.78,6.01-.5,1.69-1.03,3.37-1.47,5.07-.54,2.09-.95,4.22-1.5,6.31-.62,2.32-1.35,4.62-2.06,7.05Z"/>
  <path class="cls-6" d="M37.14,193.18c-1.1,.2-2.07,.38-3.03,.55-1.51,.27-3.02,.32-4.54,.11-1.2-.17-2.4-.37-3.57-.67-2.17-.56-4.37-1.09-6.48-1.85-1.8-.65-3.5-1.59-5.22-2.44-1.17-.58-2.34-1.19-3.47-1.84-1.97-1.14-3.93-2.28-5.86-3.49-1.15-.72-2.19-1.63-3.36-2.32-.4-.24-.75-.44-1.03-.8-.06-.08-.41-.09-.44-.03-.09,.18-.19,.44-.13,.62,.66,1.96,1.35,3.92,2.04,5.87,.64,1.78,1.28,3.56,1.96,5.32,.69,1.79,1.43,3.56,2.13,5.35,.65,1.65,1.22,3.33,1.92,4.95,.73,1.72,1.56,3.39,2.37,5.08,.45,.93,.9,1.87,1.4,2.77,.94,1.69,1.95,3.35,2.89,5.05,.38,.68,.66,1.42,.98,2.13,.75,1.71,1.35,3.42,1.69,5.3,.5,2.73,1.41,5.38,2.18,8.05,.5,1.72,1,3.45,1.63,5.13,.94,2.51,1.96,4.99,2.99,7.46,1.08,2.58,2.15,5.17,3.32,7.71,1.12,2.43,2.3,4.84,3.55,7.21,1.08,2.05,2.26,4.06,3.45,6.05,.89,1.5,1.87,2.95,2.83,4.4,1.02,1.54,2.03,3.08,3.12,4.57,.61,.83,1.37,1.55,2.02,2.35,.75,.91,1.44,1.88,2.2,2.79,1.91,2.29,3.98,4.43,6.35,6.28,1.19,.93,2.23,2.03,3.38,3.01,.9,.77,1.86,1.46,2.8,2.19,.86,.67,1.7,1.37,2.59,1.99,1.1,.76,2.25,1.45,3.37,2.19,.85,.55,1.66,1.16,2.52,1.67,1.23,.72,2.47,1.43,3.75,2.05,1.86,.9,3.73,1.8,5.64,2.57,1.87,.75,3.81,1.34,5.72,2,1.29,.45,2.57,.93,3.88,1.32,2.84,.84,5.67,1.7,8.54,2.43,2.4,.61,4.85,1.08,7.28,1.57,.97,.19,1.95,.3,2.93,.42,1.33,.16,2.66,.36,4,.44,2.21,.14,4.43,.21,6.65,.3,1.57,.06,3.14,.14,4.71,.13,1.49-.01,2.98-.12,4.47-.22,1.09-.07,2.18-.15,3.26-.29,.58-.07,1.15-.26,1.88-.44-.19,.7-1.18,2.95-1.36,3.43-.74,2.07-1.51,4.13-2.26,6.19-.4,1.09-.85,2.16-1.15,3.28-.11,.42,.06,.99,.29,1.38,.09,.15,.74,.03,1.1-.07,3.39-.94,6.28-2.85,9.12-4.82,2.28-1.57,4.52-3.19,6.68-4.93,1.5-1.21,2.82-2.64,4.23-3.96,1.18-1.11,3.69-4.08,4.96-5.07,.74-.57,7.75-3.55,9.01-4.19,2.14-1.08,4.32-2.12,6.4-3.31,2.71-1.55,5.39-3.18,8.01-4.89,2.32-1.52,11.35-8.62,13.59-10.59,1.81-1.6,11.99-12.22,13.25-13.69,1.33-1.56,6.12-7.34,7.35-9.19,1.41-2.12,3.2-5.3,4.42-7.53,.55-1,1.74-4.6,.31-6.63-1.3-1.98-4.17-3.06-6.46-3.08-5.65,.05-15.37,1.63-17.73,2.07-2.83,.52-13.76,3.48-16.43,4.22-2.75,.76-19.65,5.36-20.78,5.54-1.08,.17-2.36,.68-3.45,.8-.14,.02-2.7,.73-2.82,.65-1.25-.8-5.77-4.42-9.4-6.89-3.31-2.24-7.73-4.79-9.94-6.1-6.54-3.08-7.63-2.03-7.77-.79-.26,2.32,.51,5.47,1.09,7.68,.49,1.86,1.19,3.57,1.78,5.39,.24,.73,.93,2.51,1.28,3.2,.72,1.41,.63,1.56,1.44,2.89-1,.27-1.84,.58-2.69,.71-2.83,.42-2.64,.47-5.49,.79-2.04,.23-4.09,.41-6.14,.45-3.77,.06-7.54,0-11.31-.02-1.24,0-2.49,.01-3.73-.07-1.13-.07-2.26-.26-3.39-.4-1.4-.17-2.82-.3-4.21-.53-1.85-.3-3.68-.66-5.51-1.05-2.1-.44-4.22-.84-6.27-1.45-2.06-.61-4.07-1.4-6.06-2.21-2.2-.89-4.39-1.83-6.53-2.87-1.71-.82-3.34-1.79-4.99-2.73-.99-.56-1.98-1.14-2.89-1.81-1.34-.98-2.62-2.05-3.91-3.09-.84-.68-1.73-1.34-2.47-2.12-1.75-1.85-3.76-3.44-5.27-5.54-1.1-1.53-2.42-2.9-3.6-4.37-.79-.98-1.54-2.01-2.27-3.04-1.17-1.67-2.38-3.32-3.44-5.05-.78-1.27-1.33-2.67-2.02-3.99-.39-.76-.81-1.51-1.32-2.2-.51-.69-.37-1.4-.25-2.11,.2-1.27,.44-2.54,.71-3.8,.14-.68,.33-1.36,.55-2.02,.49-1.45,1.02-2.89,1.53-4.33,.43-1.22,.84-2.44,1.31-3.65,.58-1.47,1.25-2.91,1.82-4.39,.63-1.65,1.19-3.32,1.81-5.07Z"/>
  <g>
    <polygon class="cls-2" points="43.24 23.29 35.29 12.41 35.29 20.33 38.45 20.33 38.45 28.14 23.81 28.14 23.81 20.33 26.78 20.33 26.78 8.17 23.81 8.17 23.81 .35 35.31 .35 43.24 11.31 51.18 .35 62.67 .35 62.67 8.17 59.7 8.17 59.7 20.33 62.67 20.33 62.67 28.14 48.04 28.14 48.04 20.33 51.2 20.33 51.2 12.41 43.24 23.29"/>
    <path class="cls-3" d="M213.99,28.18v-.28c.35-.02,.62-.05,.62-.34,0-.1-.03-.21-.06-.31l-.15-.52h-1.83l-.16,.44c-.04,.11-.07,.21-.07,.32,0,.37,.39,.39,.71,.4v.28h-2.13v-.28c.54-.02,.72-.13,.92-.68l1.4-3.84-.08-.12c.6-.2,.77-.29,1.03-.48,.1,.35,.12,.4,.23,.76l1.15,3.52c.2,.62,.3,.78,.85,.84v.28h-2.43Zm-.47-4.14l-.76,2.15h1.49l-.73-2.15Zm-18.03,3c-.23,.37-.78,1.29-2.21,1.29-1.56,0-2.57-1.15-2.57-2.66,0-1.4,.86-2.78,2.61-2.78,.92,0,1.41,.39,1.71,.62l.35-.32,.03,1.57-.23,.04c-.09-.3-.22-.54-.56-.91-.16-.17-.54-.51-1.08-.51-.94,0-1.67,.76-1.67,2.11,0,1.14,.61,2.21,1.8,2.21,.91,0,1.25-.5,1.52-.9l.3,.24Zm.88,1.15v-.28c.59-.05,.59-.18,.59-.68,.01-.18,.01-.37,.01-.55v-2.17c0-.34,0-.67-.02-.84-.03-.31-.18-.35-.58-.39v-.28h2.22v.28c-.43,.05-.59,.06-.65,.35-.04,.16-.04,.55-.04,.86v.71c.45,.03,.76,.04,1.19,.04s.79,0,1.23-.04v-.87c-.01-.95-.02-.98-.72-1.05v-.28h2.25v.28q-.6,.08-.6,1.07v2.19c0,.2,.01,.86,.03,1.01,.03,.27,.19,.32,.57,.36v.28h-2.25v-.28c.52-.06,.66-.07,.7-.43,.02-.15,.02-.35,.02-.72v-.95c-.41,0-.75-.04-1.18-.04s-.8,0-1.24,.04v.95c.01,1.08,.02,1.08,.69,1.15v.28h-2.22Zm6.39,0v-.28c.5-.07,.61-.12,.62-.67v-2.76c-.01-1.07-.01-1.11-.62-1.19v-.28h2.15v.28c-.61,.06-.61,.09-.61,1.19v2.09c0,.18,.01,.76,.02,.92,.04,.31,.18,.39,.59,.42v.28h-2.15Zm-14.76,0v-.28c.51-.07,.61-.12,.62-.67v-2.76c-.01-1.07-.01-1.11-.62-1.19v-.28h2.15v.28c-.61,.06-.61,.09-.61,1.19v2.09c0,.18,.01,.76,.02,.92,.03,.31,.18,.39,.58,.42v.28h-2.14Zm-3.26,0v-.28c.65-.05,.65-.07,.66-1.03v-2.6l-1.81,3.98h-.46l-1.66-4.03-.04,3.04c0,.51,.06,.6,.61,.65v.28h-1.8v-.28c.42-.02,.58-.08,.61-.43,.02-.14,.04-.58,.04-.86l.07-2.17c.01-.17,.01-.42,.01-.6,0-.51-.1-.55-.56-.56v-.28h1.63l1.62,3.93,1.78-3.93h1.58v.31c-.62,.04-.62,.1-.62,.91v2.14c0,.36,.01,.79,.03,1.06,.03,.38,.18,.45,.59,.49v.28h-2.28v-.02Zm32,0v-.28c.43-.02,.59-.03,.65-.32,.07-.34,.1-3.42,.1-3.95-.29-.26-.4-.32-.75-.35v-.28h1.56c.43,.62,.53,.75,1.29,1.7l1.45,1.79v-2.32c-.01-.82-.03-.86-.85-.89v-.28h2.04v.28c-.57,0-.62,.13-.62,.97l-.07,4h-.31l-.46-.58c-.23-.29-.47-.59-.7-.87l-2.04-2.52v2.68c0,.84,.05,.87,.85,.95v.28h-2.14Zm-43.2-2.6c0,1.79-1.22,2.73-2.59,2.73-1.51,0-2.68-1.09-2.68-2.74,0-1.42,.95-2.69,2.61-2.68,1.57,0,2.66,1.11,2.66,2.69Zm-2.59,2.25c.3,0,.71-.15,1.03-.64,.36-.56,.44-1.08,.42-1.75-.02-.66-.21-1.24-.59-1.65-.17-.18-.49-.44-.93-.43-.43,0-.75,.27-.91,.46-.37,.41-.54,1-.54,1.66s.09,1.19,.47,1.74c.35,.47,.76,.61,1.05,.61Zm3.11,.06v.28h2.14v-.28c-.54-.05-.6-.1-.62-.67v-1.48h.58c.58,0,.88,.06,.92,.64h.25v-1.71h-.25c-.03,.56-.19,.61-.81,.61h-.68v-1.79c.19-.02,.29-.03,.62-.03,1.02,0,1.34,0,1.48,.81h.26l-.08-1.27h-3.8v.28c.37,.04,.54,.06,.59,.3,.03,.16,.04,.73,.04,.94v1.82c0,.14-.01,.76-.01,.89-.03,.56-.09,.6-.63,.66Zm-44.51,.25v-.28c.5-.07,.61-.12,.62-.67v-2.76c-.01-1.08-.01-1.11-.62-1.2v-.28h2.15v.28c-.61,.06-.61,.08-.61,1.2v2.09c0,.18,.01,.76,.02,.92,.04,.31,.18,.39,.59,.42v.28h-2.15Zm22.81,0v-.28c.5-.07,.61-.12,.61-.67v-2.76c-.01-1.08-.01-1.11-.61-1.2v-.28h2.15v.28c-.61,.06-.61,.08-.61,1.2v2.09c0,.18,.01,.76,.02,.92,.04,.31,.18,.39,.59,.42v.28h-2.15Zm-29.12,0v-.28c.43-.02,.59-.03,.65-.32,.07-.35,.09-3.42,.1-3.95-.29-.26-.4-.32-.75-.34v-.28h1.56c.43,.62,.53,.76,1.29,1.7l1.44,1.79v-2.32c-.01-.82-.03-.87-.85-.89v-.28h2.04v.28c-.56,0-.62,.12-.62,.97l-.08,4h-.3l-.46-.58c-.24-.3-.47-.58-.71-.87l-2.05-2.52v2.69c0,.84,.06,.87,.85,.95v.28h-2.11v-.03Zm24.84-1.62l.27-.03c.28,.84,.76,1.3,1.54,1.3,.55,0,1.04-.23,1.04-.79,0-.59-.56-.82-.82-.92-.21-.08-.42-.15-.63-.23-.42-.15-1.23-.48-1.23-1.49s.76-1.51,1.65-1.51c.35,0,.75,.08,1.19,.36l.32-.23,.17,1.54-.26,.05c-.09-.34-.16-.49-.36-.77-.25-.32-.6-.48-1.01-.48-.55,0-.87,.27-.87,.68,0,.61,.61,.82,1.19,1.01,.29,.1,.54,.18,.75,.3,.41,.24,.75,.7,.75,1.32,0,.9-.74,1.64-1.83,1.64-.71,0-1.14-.28-1.34-.41l-.43-.31-.09-1.03Zm8.52,1.62v-.22c.48,0,.61-.18,.61-.6v-3.82h-.65c-.58,0-.97-.02-1.02,.9h-.27l.04-1.45h4.7l.04,1.45h-.27c-.04-.93-.43-.9-1.02-.9h-.64v3.82c0,.41,.13,.59,.61,.6v.22h-2.13Zm-37.32-5.18v.28c-.69,.05-.69,.07-.69,1.17v1.22c0,.63,0,1.17,.34,1.66,.27,.39,.72,.43,.94,.43,.74,0,1.15-.38,1.33-.99,.15-.48,.15-1.39,.15-1.99,0-.19,0-.81,0-.98-.03-.47-.27-.49-.73-.52v-.28h1.97v.28c-.48,0-.59,.1-.62,.62,0,.12-.07,1.56-.07,1.78,0,.39-.04,.78-.12,1.16-.35,1.4-1.71,1.47-2.07,1.47-.29,0-.87-.05-1.36-.37-.77-.52-.78-1.3-.78-2.13v-1.17c0-.56,0-.81-.02-.94-.04-.33-.21-.39-.59-.41v-.28h2.33Zm18.36,0v.28c-.5,.07-.57,.21-.99,1.24l-1.58,3.76h-.28l-1.42-3.82c-.35-.98-.4-1.1-.92-1.18v-.28h2.46v.28c-.42,.02-.69,.03-.69,.33,0,.15,.04,.27,.18,.7l.9,2.63,1.06-2.72c.06-.18,.15-.42,.15-.55,0-.38-.36-.39-.69-.4v-.28h1.82Zm24.55,5.19v-.28c.41-.04,.56-.06,.66-.16,.12-.11,.12-.25,.12-.81v-.91l-1.38-2.14c-.37-.56-.38-.57-.88-.6v-.29h2.7v.29c-.54,.02-.78,.03-.78,.28,0,.14,.1,.3,.23,.52l.79,1.3,.73-1.29c.13-.26,.21-.41,.21-.53,0-.25-.21-.26-.57-.28v-.29h2.02v.29c-.52,.02-.67,.17-1.27,1.13l-.81,1.35v1.08c0,.94,.01,1.01,.78,1.05v.28h-2.55Zm-20.12,0c0-.37,.06-.99,.11-1.34h-.25c-.18,.93-.7,.88-1.45,.88-.69,0-.83-.18-.83-.52v-1.45h.56c.64,0,.82,.05,.82,.63h.25v-1.71h-.25c-.05,.46-.14,.61-.81,.61h-.56v-1.83h.63c.88,0,1.2,.06,1.32,.77h.23l-.03-1.23h-3.69v.28c.37,.04,.53,.06,.58,.31,.04,.16,.04,.73,.04,.93v1.82c0,.14,0,.76-.01,.89-.01,.57-.08,.62-.62,.67v.29h3.96Zm68.59-2.26v.28c-.47,.03-.47,.16-.48,1.14v.39c-.4,.25-.98,.61-1.99,.61-1.78,0-2.64-1.35-2.64-2.71,0-1.66,1.12-2.74,2.53-2.74,.88,0,1.39,.33,1.81,.59l.27-.31,.04,1.62-.21,.04c-.11-.31-.26-.66-.65-1.06-.17-.17-.5-.38-1.03-.38-.9,0-1.66,.76-1.66,2.25,0,1.19,.59,2.21,1.59,2.21,.58,0,.87-.4,.9-.43,.09-.14,.12-.26,.11-.49-.02-.66-.11-.67-.69-.73v-.28h2.1Zm-66.18-.52c.14,.03,.34,.05,.48,.05,.59,0,1.03-.46,1.06-.87,.03-.6-.27-1.12-1.22-1.12-.13,0-.21,0-.32,.03v1.91Zm0,1.13c.01,1.19,.01,1.35,.63,1.36v.29h-2.16v-.29c.56-.05,.61-.13,.62-.69v-2.55c0-.62,0-.84-.03-1.01-.04-.29-.18-.34-.6-.38v-.28h2.34c1.28,0,1.68,.62,1.68,1.34,0,.5-.31,1.15-1.02,1.37l.92,1.6c.33,.61,.51,.75,.93,.81v.17c-.11,0-.22,0-.34,0-.98,0-1.38-.33-1.79-1.21l-.29-.61c-.31-.65-.41-.61-.9-.62v.69h.01Z"/>
    <rect class="cls-3" x="70.5" y=".36" width=".4" height="27.8"/>
    <g>
      <path class="cls-3" d="M78.82,.36h2.54V26h4.2v2.16h-6.74V.36h0Z"/>
      <path class="cls-3" d="M93.68,4.17c0-1.08-.27-1.89-1.46-1.89s-1.46,.81-1.46,1.89v2.93c0,.89,.15,1.77,.58,2.5l4.04,6.93c.58,.96,.92,2.15,.92,3.39v4.39c0,2.62-1.54,4.08-4.08,4.08-2.81,0-4.16-1.27-4.16-4.08v-3.81h2.54v3.66c0,1.31,.5,2.08,1.62,2.08,1.04,0,1.54-.77,1.54-2.08v-3.89c0-.96-.19-1.69-.73-2.66l-3.74-6.51c-.69-1.19-1.08-2.12-1.08-3.54v-3.35c0-2.73,1.42-4.08,4-4.08,2.85,0,4,1.35,4,3.89v3.54h-2.54v-3.39h.01Z"/>
      <path class="cls-3" d="M106.16,20.46h-4.47l-1.04,7.7h-2.54L102.19,.36h3.46l4.08,27.8h-2.54l-1.03-7.7Zm-2.2-18.17h-.08l-1.92,16.02h3.93l-1.93-16.02Z"/>
    </g>
    <g>
      <path class="cls-3" d="M117.87,17.71V.34h2.62l5.13,15.69h.05L130.72,.34h2.45V17.71h-1.54V1.83h-.05l-5.1,15.88h-1.78l-5.25-15.88h-.05v15.88h-1.53Z"/>
      <path class="cls-3" d="M137.1,11.26c0,2.26,0,5.49,3.54,5.49s3.54-3.22,3.54-5.49V.34h1.54V12.4c0,4.48-2.36,5.65-5.08,5.65s-5.08-1.18-5.08-5.65V.34h1.54V11.26h0Z"/>
      <path class="cls-3" d="M155.48,4.74c-.05-2.14-.58-3.44-2.94-3.44-1.88,0-3.06,.65-3.06,2.7,0,2.57,1.3,2.65,3.27,4.07,2.14,1.54,4.33,2,4.33,5.37,0,3.1-1.59,4.62-4.62,4.62-3.39,0-4.91-1.83-4.76-5.22h1.59c0,1.92,.14,3.92,3.25,3.92,2.02,0,3.01-1.08,3.01-3.08,0-2.36-1.56-3.03-4.07-4.57-3.37-2.07-3.51-3.1-3.54-4.84-.02-3.01,1.88-4.26,4.72-4.26,3.61,0,4.38,2.24,4.38,4.74h-1.56Z"/>
      <path class="cls-3" d="M167.15,.34V1.64h-6.33v6.5h6.04v1.3h-6.04v6.98h6.5v1.3h-8.04V.35h7.87Z"/>
      <path class="cls-3" d="M170.38,11.26c0,2.26,0,5.49,3.54,5.49s3.54-3.22,3.54-5.49V.34h1.54V12.4c0,4.48-2.36,5.65-5.08,5.65s-5.08-1.18-5.08-5.65V.34h1.54V11.26h0Z"/>
      <path class="cls-3" d="M181.37,17.71V.34h2.62l5.13,15.69h.05L194.22,.34h2.45V17.71h-1.54V1.83h-.05l-5.1,15.88h-1.78l-5.25-15.88h-.05v15.88h-1.53Z"/>
      <path class="cls-3" d="M208.54,0c5.2,0,5.25,4.33,5.25,9.02s-.05,9.02-5.25,9.02-5.25-4.33-5.25-9.02,.05-9.02,5.25-9.02Zm0,16.75c3.66,0,3.71-3.1,3.71-7.72s-.05-7.72-3.71-7.72-3.71,3.1-3.71,7.72,.05,7.72,3.71,7.72Z"/>
      <path class="cls-3" d="M215.92,.34h7.34V1.64h-5.8v6.5h5.39v1.3h-5.39v8.28h-1.54V.34Z"/>
      <path class="cls-3" d="M237.14,.34v1.71l-7.87,14.37h7.94v1.3h-9.53v-1.71l7.94-14.37h-7.46V.34h8.98Z"/>
      <path class="cls-3" d="M243.54,0c5.2,0,5.25,4.33,5.25,9.02s-.05,9.02-5.25,9.02-5.25-4.33-5.25-9.02c.01-4.69,.06-9.02,5.25-9.02Zm0,16.75c3.66,0,3.71-3.1,3.71-7.72s-.05-7.72-3.71-7.72-3.71,3.1-3.71,7.72c.01,4.61,.06,7.72,3.71,7.72Z"/>
      <path class="cls-3" d="M255.98,0c5.2,0,5.25,4.33,5.25,9.02s-.05,9.02-5.25,9.02-5.25-4.33-5.25-9.02c.01-4.69,.06-9.02,5.25-9.02Zm0,16.75c3.66,0,3.71-3.1,3.71-7.72s-.05-7.72-3.71-7.72-3.71,3.1-3.71,7.72c0,4.61,.06,7.72,3.71,7.72Z"/>
      <path class="cls-3" d="M263.35,17.71V.34h1.54V16.41h5.75v1.3h-7.29Z"/>
      <path class="cls-3" d="M276.84,0c5.2,0,5.25,4.33,5.25,9.02s-.05,9.02-5.25,9.02-5.25-4.33-5.25-9.02c0-4.69,.06-9.02,5.25-9.02Zm0,16.75c3.66,0,3.71-3.1,3.71-7.72s-.05-7.72-3.71-7.72-3.71,3.1-3.71,7.72c0,4.61,.06,7.72,3.71,7.72Z"/>
      <path class="cls-3" d="M292.53,9.94h-3.51v-1.3h5.05v8.69c-1.54,.48-3.15,.72-4.79,.72-5.65,0-5.25-5.65-5.25-9.02S283.62,0,289.28,0c3.32,0,5.03,1.42,4.96,4.79h-1.54c0-2.29-.99-3.49-3.42-3.49-3.75,0-3.71,3.34-3.71,7.72s-.05,7.72,3.71,7.72c1.32,0,2.43-.19,3.25-.51v-6.3h0Z"/>
      <path class="cls-3" d="M300.25,10.49l-4.91-10.15h1.73l3.97,8.64,4.16-8.64h1.54l-4.96,10.15v7.22h-1.54v-7.22h0Z"/>
    </g>
  </g>
  <text class="cls-4" transform="translate(83.29 57.51)"><tspan x="0" y="0">Division of </tspan><tspan class="cls-5" x="102.48" y="0">F</tspan><tspan x="115.04" y="0">ishes</tspan></text>
</svg>