<?xml version="1.0" encoding="UTF-8"?>
<svg id="Layer_1_copy" data-name="Layer 1 copy" xmlns="http://www.w3.org/2000/svg" xmlns:xlink="http://www.w3.org/1999/xlink" viewBox="0 0 282.93 425.24">
  <defs>
    <style>
      .cls-1 {
        fill: url(#linear-gradient);
      }

      .cls-2 {
        fill: #ffcc04;
      }

      .cls-3, .cls-4 {
        fill: #10294b;
      }

      .cls-4 {
        font-family: Sentinel-Semibold, Sentinel;
        font-size: 20px;
        font-weight: 700;
      }

      .cls-5 {
        letter-spacing: -.03em;
      }

      .cls-6 {
        fill: url(#linear-gradient-2);
      }
    </style>
    <linearGradient id="linear-gradient" x1="181.93" y1="345.47" x2="98.23" y2="115.5" gradientTransform="translate(-38.05 7.16) rotate(-10.08)" gradientUnits="userSpaceOnUse">
      <stop offset="0" stop-color="#a7dce0"/>
      <stop offset="1" stop-color="#5598b0"/>
    </linearGradient>
    <linearGradient id="linear-gradient-2" x1="205.55" y1="395.97" x2="144.95" y2="229.48" gradientTransform="translate(-.75 .55) rotate(-.54)" gradientUnits="userSpaceOnUse">
      <stop offset="0" stop-color="#bee5e7"/>
      <stop offset="1" stop-color="#7ab4cd"/>
    </linearGradient>
  </defs>
  <path class="cls-1" d="M120.06,320.55c-1.1,1.06-2.07,1.98-3.04,2.91-1.5,1.45-2.77,3.09-3.75,4.92-.78,1.46-1.51,2.94-2.12,4.48-1.12,2.85-2.3,5.69-3.15,8.63-.72,2.51-1.05,5.14-1.49,7.72-.3,1.76-.56,3.53-.75,5.3-.32,3.08-.63,6.17-.84,9.27-.13,1.85,.04,3.72-.13,5.57-.06,.63-.11,1.18,.06,1.78,.04,.14-.23,.52-.31,.51-.28-.05-.64-.15-.78-.35-1.64-2.3-3.25-4.62-4.85-6.96-1.45-2.13-2.9-4.26-4.31-6.42-1.43-2.19-2.79-4.43-4.2-6.64-1.3-2.03-2.69-4.01-3.93-6.08-1.31-2.18-2.5-4.44-3.71-6.68-.67-1.24-1.35-2.48-1.94-3.76-1.11-2.4-2.14-4.83-3.26-7.23-.45-.96-1.03-1.87-1.57-2.79-1.29-2.19-2.7-4.23-4.49-6.11-2.61-2.73-4.81-5.86-7.14-8.86-1.5-1.93-3-3.87-4.35-5.9-2.02-3.05-3.94-6.16-5.84-9.28-1.99-3.26-3.99-6.51-5.86-9.84-1.79-3.18-3.5-6.42-5.12-9.69-1.4-2.83-2.67-5.74-3.92-8.65-.93-2.19-1.76-4.42-2.59-6.65-.88-2.35-1.77-4.71-2.55-7.1-.43-1.33-.62-2.75-.97-4.11-.41-1.56-.92-3.1-1.32-4.66-1-3.95-1.7-7.94-1.85-12.04-.08-2.05-.46-4.09-.62-6.14-.13-1.61-.13-3.23-.18-4.84-.05-1.48-.15-2.97-.12-4.45,.04-1.82,.19-3.64,.28-5.47,.07-1.38,.04-2.76,.17-4.13,.18-1.94,.4-3.87,.74-5.79,.49-2.77,1-5.55,1.68-8.28,.67-2.67,1.57-5.28,2.37-7.92,.54-1.78,1.03-3.58,1.65-5.34,1.34-3.81,2.67-7.62,4.16-11.37,1.25-3.15,2.69-6.22,4.1-9.3,.56-1.22,1.23-2.39,1.88-3.57,.88-1.6,1.73-3.23,2.71-4.77,1.62-2.56,3.31-5.06,4.99-7.58,1.19-1.78,2.36-3.58,3.63-5.3,1.21-1.64,2.52-3.2,3.82-4.77,.95-1.15,1.91-2.28,2.92-3.37,.54-.58,1.21-1.06,1.98-1.72-.92-.35-1.57-.65-2.25-.84-2.88-.84-5.76-1.64-8.64-2.46-1.52-.43-3.07-.79-4.54-1.35-.55-.21-1.05-.86-1.29-1.43-.09-.22,.56-.83,.96-1.15,3.75-2.99,8.18-4.65,12.62-6.21,3.56-1.25,7.15-2.44,10.78-3.43,2.53-.69,5.17-1,7.76-1.49,2.17-.41,4.37-.7,6.48-1.32,1.22-.36,2.29-1.24,3.4-1.92,1.28-.79,2.51-1.67,3.81-2.42,1.67-.97,3.37-1.88,5.08-2.77,2.91-1.5,5.8-3.07,8.78-4.41,3.89-1.75,7.83-3.41,11.81-4.92,3.53-1.34,7.12-2.56,10.75-3.6,3.9-1.12,7.86-2.03,11.82-2.92,3.22-.72,6.47-1.36,9.73-1.87,2.68-.42,5.4-.6,8.1-.91,2.63-.29,5.26-.68,7.9-.89,2.78-.22,5.58-.3,8.37-.37,3.04-.08,6.09-.2,9.12-.08,3.47,.14,6.95,.4,10.39,.84,1.54,.2,3.05,.86,4.5,1.48,1.51,.65,2.13,2.18,2.66,3.57,1.15,3.02,.35,5.82-1.47,8.37-1.62,2.27-3.24,4.56-4.99,6.73-1.45,1.8-3.11,3.44-4.68,5.14-2.22,2.41-4.33,4.94-6.7,7.2-2.85,2.71-5.88,5.23-8.91,7.73-2.92,2.41-5.95,4.67-8.91,7.03-3.05,2.42-6.04,4.92-9.1,7.32-2,1.56-4.13,2.97-6.15,4.51-1.42,1.09-2.77,2.28-4.12,3.47-1.16,1.03-2.29,2.1-3.38,3.21-1.04,1.06-2.03,2.17-3.03,3.27-.13,.14-.23,.36-.24,.55-.11,2.02-.23,4.04-.3,6.06-.06,1.66-.09,3.31-.1,4.97,0,2.31,.06,4.62,.03,6.93-.03,2.31-.13,4.62-.23,6.93-.07,1.65-.18,3.3-.25,4.95-.08,1.82-.18,3.64-.21,5.47-.02,1.48,.09,2.96,.05,4.44-.06,2.41-.19,4.81-.3,7.21,0,.17-.05,.34-.06,.52-.1,1.68-1.23,2.2-2.71,1.36-2.78-1.57-4.75-3.96-6.72-6.36-1.66-2.03-3.28-4.09-4.82-6.2-.62-.85-1-1.88-1.48-2.83-.98-1.93-2.01-3.84-2.91-5.8-.6-1.31-1-2.71-1.53-4.05-.66-1.66-1.37-3.29-2.19-5.25-1.09,.89-2.09,1.55-2.9,2.39-2.73,2.79-5.44,5.61-8.07,8.49-1.88,2.07-3.73,4.18-5.41,6.42-3.08,4.11-6.03,8.33-9.03,12.5-.99,1.38-2.01,2.74-2.91,4.17-.83,1.31-1.53,2.7-2.28,4.06-.94,1.69-1.93,3.35-2.79,5.07-1.14,2.28-2.22,4.6-3.26,6.93-1.19,2.68-2.45,5.33-3.42,8.09-.97,2.76-1.71,5.62-2.41,8.46-.78,3.15-1.49,6.31-2.06,9.5-.46,2.54-.7,5.12-.98,7.69-.17,1.54-.33,3.09-.32,4.64,.01,2.26,.16,4.53,.29,6.79,.08,1.48,.09,2.97,.37,4.42,.64,3.41,.79,6.91,1.89,10.26,.81,2.44,1.26,4.99,1.93,7.48,.45,1.66,.98,3.31,1.54,4.94,.9,2.63,1.76,5.28,2.83,7.85,.78,1.87,1.89,3.6,2.79,5.42,.52,1.04,1.02,2.11,1.37,3.21,.35,1.11,1.25,1.53,2.13,1.97,1.57,.8,3.16,1.55,4.76,2.27,.87,.39,1.77,.72,2.67,1,1.99,.62,4,1.19,6.01,1.78,1.69,.5,3.37,1.03,5.07,1.47,2.09,.54,4.22,.95,6.31,1.5,2.32,.62,4.62,1.35,7.05,2.06Z"/>
  <path class="cls-6" d="M138.32,388.1c.2,1.1,.38,2.07,.55,3.03,.27,1.51,.32,3.02,.11,4.54-.17,1.2-.37,2.4-.67,3.57-.56,2.17-1.09,4.37-1.85,6.48-.65,1.8-1.59,3.5-2.44,5.22-.58,1.17-1.19,2.34-1.84,3.47-1.14,1.97-2.28,3.93-3.49,5.86-.72,1.15-1.63,2.19-2.32,3.36-.24,.4-.44,.75-.8,1.03-.08,.06-.09,.41-.03,.44,.18,.09,.44,.19,.62,.13,1.96-.66,3.92-1.35,5.87-2.04,1.78-.64,3.56-1.28,5.32-1.96,1.79-.69,3.56-1.43,5.35-2.13,1.65-.65,3.33-1.22,4.95-1.92,1.72-.73,3.39-1.56,5.08-2.37,.93-.45,1.87-.9,2.77-1.4,1.69-.94,3.35-1.95,5.05-2.89,.68-.38,1.42-.66,2.13-.98,1.71-.75,3.42-1.35,5.3-1.69,2.73-.5,5.38-1.41,8.05-2.18,1.72-.5,3.45-1,5.13-1.63,2.51-.94,4.99-1.96,7.46-2.99,2.58-1.08,5.17-2.15,7.71-3.32,2.43-1.12,4.84-2.3,7.21-3.55,2.05-1.08,4.06-2.26,6.05-3.45,1.5-.89,2.95-1.87,4.4-2.83,1.54-1.02,3.08-2.03,4.57-3.12,.83-.61,1.55-1.37,2.35-2.02,.91-.75,1.88-1.44,2.79-2.2,2.29-1.91,4.43-3.98,6.28-6.35,.93-1.19,2.03-2.23,3.01-3.38,.77-.9,1.46-1.86,2.19-2.8,.67-.86,1.37-1.7,1.99-2.59,.76-1.1,1.45-2.25,2.19-3.37,.55-.85,1.16-1.66,1.67-2.52,.72-1.23,1.43-2.47,2.05-3.75,.9-1.86,1.8-3.73,2.57-5.64,.75-1.87,1.34-3.81,2-5.72,.45-1.29,.93-2.57,1.32-3.88,.84-2.84,1.7-5.67,2.43-8.54,.61-2.4,1.08-4.85,1.57-7.28,.19-.97,.3-1.95,.42-2.93,.16-1.33,.36-2.66,.44-4,.14-2.21,.21-4.43,.3-6.65,.06-1.57,.14-3.14,.13-4.71-.01-1.49-.12-2.98-.22-4.47-.07-1.09-.15-2.18-.29-3.26-.07-.58-.26-1.15-.44-1.88,.7,.19,2.95,1.18,3.43,1.36,2.07,.74,4.13,1.51,6.19,2.26,1.09,.4,2.16,.85,3.28,1.15,.42,.11,.99-.06,1.38-.29,.15-.09,.03-.74-.07-1.1-.94-3.39-2.85-6.28-4.82-9.12-1.57-2.28-3.19-4.52-4.93-6.68-1.21-1.5-2.64-2.82-3.96-4.23-1.11-1.18-4.08-3.69-5.07-4.96-.57-.74-3.55-7.75-4.19-9.01-1.08-2.14-2.12-4.32-3.31-6.4-1.55-2.71-3.18-5.39-4.89-8.01-1.52-2.32-8.62-11.35-10.59-13.59-1.6-1.81-12.22-11.99-13.69-13.25-1.56-1.33-7.34-6.12-9.19-7.35-2.12-1.41-5.3-3.2-7.53-4.42-1-.55-4.6-1.74-6.63-.31-1.98,1.3-3.06,4.17-3.08,6.46,.05,5.65,1.63,15.37,2.07,17.73,.52,2.83,3.48,13.76,4.22,16.43,.76,2.75,5.36,19.65,5.54,20.78,.17,1.08,.68,2.36,.8,3.45,.02,.14,.73,2.7,.65,2.82-.8,1.25-4.42,5.77-6.89,9.4-2.24,3.31-4.79,7.73-6.1,9.94-3.08,6.54-2.03,7.63-.79,7.77,2.32,.26,5.47-.51,7.68-1.09,1.86-.49,3.57-1.19,5.39-1.78,.73-.24,2.51-.93,3.2-1.28,1.41-.72,1.56-.63,2.89-1.44,.27,1,.58,1.84,.71,2.69,.42,2.83,.47,2.64,.79,5.49,.23,2.04,.41,4.09,.45,6.14,.06,3.77,0,7.54-.02,11.31,0,1.24,.01,2.49-.07,3.73-.07,1.13-.26,2.26-.4,3.39-.17,1.4-.3,2.82-.53,4.21-.3,1.85-.66,3.68-1.05,5.51-.44,2.1-.84,4.22-1.45,6.27-.61,2.06-1.4,4.07-2.21,6.06-.89,2.2-1.83,4.39-2.87,6.53-.82,1.71-1.79,3.34-2.73,4.99-.56,.99-1.14,1.98-1.81,2.89-.98,1.34-2.05,2.62-3.09,3.91-.68,.84-1.34,1.73-2.12,2.47-1.85,1.75-3.44,3.76-5.54,5.27-1.53,1.1-2.9,2.42-4.37,3.6-.98,.79-2.01,1.54-3.04,2.27-1.67,1.17-3.32,2.38-5.05,3.44-1.27,.78-2.67,1.33-3.99,2.02-.76,.39-1.51,.81-2.2,1.32-.69,.51-1.4,.37-2.11,.25-1.27-.2-2.54-.44-3.8-.71-.68-.14-1.36-.33-2.02-.55-1.45-.49-2.89-1.02-4.33-1.53-1.22-.43-2.44-.84-3.65-1.31-1.47-.58-2.91-1.25-4.39-1.82-1.65-.63-3.32-1.19-5.07-1.81Z"/>
  <g>
    <polygon class="cls-2" points="19.43 23.29 11.48 12.41 11.48 20.33 14.64 20.33 14.64 28.14 0 28.14 0 20.33 2.97 20.33 2.97 8.17 0 8.17 0 .35 11.5 .35 19.43 11.31 27.37 .35 38.86 .35 38.86 8.17 35.89 8.17 35.89 20.33 38.86 20.33 38.86 28.14 24.23 28.14 24.23 20.33 27.39 20.33 27.39 12.41 19.43 23.29"/>
    <path class="cls-3" d="M190.18,28.18v-.28c.35-.02,.62-.05,.62-.34,0-.1-.03-.21-.06-.31l-.15-.52h-1.83l-.16,.44c-.04,.11-.07,.21-.07,.32,0,.37,.39,.39,.71,.4v.28h-2.13v-.28c.54-.02,.72-.13,.92-.68l1.4-3.84-.08-.12c.6-.2,.77-.29,1.03-.48,.1,.35,.12,.4,.23,.76l1.15,3.52c.2,.62,.3,.78,.85,.84v.28h-2.43Zm-.47-4.14l-.76,2.15h1.49l-.73-2.15Zm-18.03,3c-.23,.37-.78,1.29-2.21,1.29-1.56,0-2.57-1.15-2.57-2.66,0-1.4,.86-2.78,2.61-2.78,.92,0,1.41,.39,1.71,.62l.35-.32,.03,1.57-.23,.04c-.09-.3-.22-.54-.56-.91-.16-.17-.54-.51-1.08-.51-.94,0-1.67,.76-1.67,2.11,0,1.14,.61,2.21,1.8,2.21,.91,0,1.25-.5,1.52-.9l.3,.24Zm.88,1.15v-.28c.59-.05,.59-.18,.59-.68,.01-.18,.01-.37,.01-.55v-2.17c0-.34,0-.67-.02-.84-.03-.31-.18-.35-.58-.39v-.28h2.22v.28c-.43,.05-.59,.06-.65,.35-.04,.16-.04,.55-.04,.86v.71c.45,.03,.76,.04,1.19,.04s.79,0,1.23-.04v-.87c-.01-.95-.02-.98-.72-1.05v-.28h2.25v.28q-.6,.08-.6,1.07v2.19c0,.2,.01,.86,.03,1.01,.03,.27,.19,.32,.57,.36v.28h-2.25v-.28c.52-.06,.66-.07,.7-.43,.02-.15,.02-.35,.02-.72v-.95c-.41,0-.75-.04-1.18-.04s-.8,0-1.24,.04v.95c.01,1.08,.02,1.08,.69,1.15v.28h-2.22Zm6.39,0v-.28c.5-.07,.61-.12,.62-.67v-2.76c-.01-1.07-.01-1.11-.62-1.19v-.28h2.15v.28c-.61,.06-.61,.09-.61,1.19v2.09c0,.18,.01,.76,.02,.92,.04,.31,.18,.39,.59,.42v.28h-2.15Zm-14.76,0v-.28c.51-.07,.61-.12,.62-.67v-2.76c-.01-1.07-.01-1.11-.62-1.19v-.28h2.15v.28c-.61,.06-.61,.09-.61,1.19v2.09c0,.18,.01,.76,.02,.92,.03,.31,.18,.39,.58,.42v.28h-2.14Zm-3.26,0v-.28c.65-.05,.65-.07,.66-1.03v-2.6l-1.81,3.98h-.46l-1.66-4.03-.04,3.04c0,.51,.06,.6,.61,.65v.28h-1.8v-.28c.42-.02,.58-.08,.61-.43,.02-.14,.04-.58,.04-.86l.07-2.17c.01-.17,.01-.42,.01-.6,0-.51-.1-.55-.56-.56v-.28h1.63l1.62,3.93,1.78-3.93h1.58v.31c-.62,.04-.62,.1-.62,.91v2.14c0,.36,.01,.79,.03,1.06,.03,.38,.18,.45,.59,.49v.28h-2.28v-.02Zm32,0v-.28c.43-.02,.59-.03,.65-.32,.07-.34,.1-3.42,.1-3.95-.29-.26-.4-.32-.75-.35v-.28h1.56c.43,.62,.53,.75,1.29,1.7l1.45,1.79v-2.32c-.01-.82-.03-.86-.85-.89v-.28h2.04v.28c-.57,0-.62,.13-.62,.97l-.07,4h-.31l-.46-.58c-.23-.29-.47-.59-.7-.87l-2.04-2.52v2.68c0,.84,.05,.87,.85,.95v.28h-2.14Zm-43.2-2.6c0,1.79-1.22,2.73-2.59,2.73-1.51,0-2.68-1.09-2.68-2.74,0-1.42,.95-2.69,2.61-2.68,1.57,0,2.66,1.11,2.66,2.69Zm-2.59,2.25c.3,0,.71-.15,1.03-.64,.36-.56,.44-1.08,.42-1.75-.02-.66-.21-1.24-.59-1.65-.17-.18-.49-.44-.93-.43-.43,0-.75,.27-.91,.46-.37,.41-.54,1-.54,1.66s.09,1.19,.47,1.74c.35,.47,.76,.61,1.05,.61Zm3.11,.06v.28h2.14v-.28c-.54-.05-.6-.1-.62-.67v-1.48h.58c.58,0,.88,.06,.92,.64h.25v-1.71h-.25c-.03,.56-.19,.61-.81,.61h-.68v-1.79c.19-.02,.29-.03,.62-.03,1.02,0,1.34,0,1.48,.81h.26l-.08-1.27h-3.8v.28c.37,.04,.54,.06,.59,.3,.03,.16,.04,.73,.04,.94v1.82c0,.14-.01,.76-.01,.89-.03,.56-.09,.6-.63,.66Zm-44.51,.25v-.28c.5-.07,.61-.12,.62-.67v-2.76c-.01-1.08-.01-1.11-.62-1.2v-.28h2.15v.28c-.61,.06-.61,.08-.61,1.2v2.09c0,.18,.01,.76,.02,.92,.04,.31,.18,.39,.59,.42v.28h-2.15Zm22.81,0v-.28c.5-.07,.61-.12,.61-.67v-2.76c-.01-1.08-.01-1.11-.61-1.2v-.28h2.15v.28c-.61,.06-.61,.08-.61,1.2v2.09c0,.18,.01,.76,.02,.92,.04,.31,.18,.39,.59,.42v.28h-2.15Zm-29.12,0v-.28c.43-.02,.59-.03,.65-.32,.07-.35,.09-3.42,.1-3.95-.29-.26-.4-.32-.75-.34v-.28h1.56c.43,.62,.53,.76,1.29,1.7l1.44,1.79v-2.32c-.01-.82-.03-.87-.85-.89v-.28h2.04v.28c-.56,0-.62,.12-.62,.97l-.08,4h-.3l-.46-.58c-.24-.3-.47-.58-.71-.87l-2.05-2.52v2.69c0,.84,.06,.87,.85,.95v.28h-2.11v-.03Zm24.84-1.62l.27-.03c.28,.84,.76,1.3,1.54,1.3,.55,0,1.04-.23,1.04-.79,0-.59-.56-.82-.82-.92-.21-.08-.42-.15-.63-.23-.42-.15-1.23-.48-1.23-1.49s.76-1.51,1.65-1.51c.35,0,.75,.08,1.19,.36l.32-.23,.17,1.54-.26,.05c-.09-.34-.16-.49-.36-.77-.25-.32-.6-.48-1.01-.48-.55,0-.87,.27-.87,.68,0,.61,.61,.82,1.19,1.01,.29,.1,.54,.18,.75,.3,.41,.24,.75,.7,.75,1.32,0,.9-.74,1.64-1.83,1.64-.71,0-1.14-.28-1.34-.41l-.43-.31-.09-1.03Zm8.52,1.62v-.22c.48,0,.61-.18,.61-.6v-3.82h-.65c-.58,0-.97-.02-1.02,.9h-.27l.04-1.45h4.7l.04,1.45h-.27c-.04-.93-.43-.9-1.02-.9h-.64v3.82c0,.41,.13,.59,.61,.6v.22h-2.13Zm-37.32-5.18v.28c-.69,.05-.69,.07-.69,1.17v1.22c0,.63,0,1.17,.34,1.66,.27,.39,.72,.43,.94,.43,.74,0,1.15-.38,1.33-.99,.15-.48,.15-1.39,.15-1.99,0-.19,0-.81,0-.98-.03-.47-.27-.49-.73-.52v-.28h1.97v.28c-.48,0-.59,.1-.62,.62,0,.12-.07,1.56-.07,1.78,0,.39-.04,.78-.12,1.16-.35,1.4-1.71,1.47-2.07,1.47-.29,0-.87-.05-1.36-.37-.77-.52-.78-1.3-.78-2.13v-1.17c0-.56,0-.81-.02-.94-.04-.33-.21-.39-.59-.41v-.28h2.33Zm18.36,0v.28c-.5,.07-.57,.21-.99,1.24l-1.58,3.76h-.28l-1.42-3.82c-.35-.98-.4-1.1-.92-1.18v-.28h2.46v.28c-.42,.02-.69,.03-.69,.33,0,.15,.04,.27,.18,.7l.9,2.63,1.06-2.72c.06-.18,.15-.42,.15-.55,0-.38-.36-.39-.69-.4v-.28h1.82Zm24.55,5.19v-.28c.41-.04,.56-.06,.66-.16,.12-.11,.12-.25,.12-.81v-.91l-1.38-2.14c-.37-.56-.38-.57-.88-.6v-.29h2.7v.29c-.54,.02-.78,.03-.78,.28,0,.14,.1,.3,.23,.52l.79,1.3,.73-1.29c.13-.26,.21-.41,.21-.53,0-.25-.21-.26-.57-.28v-.29h2.02v.29c-.52,.02-.67,.17-1.27,1.13l-.81,1.35v1.08c0,.94,.01,1.01,.78,1.05v.28h-2.55Zm-20.12,0c0-.37,.06-.99,.11-1.34h-.25c-.18,.93-.7,.88-1.45,.88-.69,0-.83-.18-.83-.52v-1.45h.56c.64,0,.82,.05,.82,.63h.25v-1.71h-.25c-.05,.46-.14,.61-.81,.61h-.56v-1.83h.63c.88,0,1.2,.06,1.32,.77h.23l-.03-1.23h-3.69v.28c.37,.04,.53,.06,.58,.31,.04,.16,.04,.73,.04,.93v1.82c0,.14,0,.76-.01,.89-.01,.57-.08,.62-.62,.67v.29h3.96Zm68.59-2.26v.28c-.47,.03-.47,.16-.48,1.14v.39c-.4,.25-.98,.61-1.99,.61-1.78,0-2.64-1.35-2.64-2.71,0-1.66,1.12-2.74,2.53-2.74,.88,0,1.39,.33,1.81,.59l.27-.31,.04,1.62-.21,.04c-.11-.31-.26-.66-.65-1.06-.17-.17-.5-.38-1.03-.38-.9,0-1.66,.76-1.66,2.25,0,1.19,.59,2.21,1.59,2.21,.58,0,.87-.4,.9-.43,.09-.14,.12-.26,.11-.49-.02-.66-.11-.67-.69-.73v-.28h2.1Zm-66.18-.52c.14,.03,.34,.05,.48,.05,.59,0,1.03-.46,1.06-.87,.03-.6-.27-1.12-1.22-1.12-.13,0-.21,0-.32,.03v1.91Zm0,1.13c.01,1.19,.01,1.35,.63,1.36v.29h-2.16v-.29c.56-.05,.61-.13,.62-.69v-2.55c0-.62,0-.84-.03-1.01-.04-.29-.18-.34-.6-.38v-.28h2.34c1.28,0,1.68,.62,1.68,1.34,0,.5-.31,1.15-1.02,1.37l.92,1.6c.33,.61,.51,.75,.93,.81v.17c-.11,0-.22,0-.34,0-.98,0-1.38-.33-1.79-1.21l-.29-.61c-.31-.65-.41-.61-.9-.62v.69h.01Z"/>
    <rect class="cls-3" x="46.69" y=".36" width=".4" height="27.8"/>
    <g>
      <path class="cls-3" d="M55.01,.36h2.54V26h4.2v2.16h-6.74V.36h0Z"/>
      <path class="cls-3" d="M69.87,4.17c0-1.08-.27-1.89-1.46-1.89s-1.46,.81-1.46,1.89v2.93c0,.89,.15,1.77,.58,2.5l4.04,6.93c.58,.96,.92,2.15,.92,3.39v4.39c0,2.62-1.54,4.08-4.08,4.08-2.81,0-4.16-1.27-4.16-4.08v-3.81h2.54v3.66c0,1.31,.5,2.08,1.62,2.08,1.04,0,1.54-.77,1.54-2.08v-3.89c0-.96-.19-1.69-.73-2.66l-3.74-6.51c-.69-1.19-1.08-2.12-1.08-3.54v-3.35c0-2.73,1.42-4.08,4-4.08,2.85,0,4,1.35,4,3.89v3.54h-2.54v-3.39h.01Z"/>
      <path class="cls-3" d="M82.35,20.46h-4.47l-1.04,7.7h-2.54L78.38,.36h3.46l4.08,27.8h-2.54l-1.03-7.7Zm-2.2-18.17h-.08l-1.92,16.02h3.93l-1.93-16.02Z"/>
    </g>
    <g>
      <path class="cls-3" d="M94.06,17.71V.34h2.62l5.13,15.69h.05L106.91,.34h2.45V17.71h-1.54V1.83h-.05l-5.1,15.88h-1.78l-5.25-15.88h-.05v15.88h-1.53Z"/>
      <path class="cls-3" d="M113.29,11.26c0,2.26,0,5.49,3.54,5.49s3.54-3.22,3.54-5.49V.34h1.54V12.4c0,4.48-2.36,5.65-5.08,5.65s-5.08-1.18-5.08-5.65V.34h1.54V11.26h0Z"/>
      <path class="cls-3" d="M131.67,4.74c-.05-2.14-.58-3.44-2.94-3.44-1.88,0-3.06,.65-3.06,2.7,0,2.57,1.3,2.65,3.27,4.07,2.14,1.54,4.33,2,4.33,5.37,0,3.1-1.59,4.62-4.62,4.62-3.39,0-4.91-1.83-4.76-5.22h1.59c0,1.92,.14,3.92,3.25,3.92,2.02,0,3.01-1.08,3.01-3.08,0-2.36-1.56-3.03-4.07-4.57-3.37-2.07-3.51-3.1-3.54-4.84-.02-3.01,1.88-4.26,4.72-4.26,3.61,0,4.38,2.24,4.38,4.74h-1.56Z"/>
      <path class="cls-3" d="M143.34,.34V1.64h-6.33v6.5h6.04v1.3h-6.04v6.98h6.5v1.3h-8.04V.35h7.87Z"/>
      <path class="cls-3" d="M146.57,11.26c0,2.26,0,5.49,3.54,5.49s3.54-3.22,3.54-5.49V.34h1.54V12.4c0,4.48-2.36,5.65-5.08,5.65s-5.08-1.18-5.08-5.65V.34h1.54V11.26h0Z"/>
      <path class="cls-3" d="M157.56,17.71V.34h2.62l5.13,15.69h.05L170.41,.34h2.45V17.71h-1.54V1.83h-.05l-5.1,15.88h-1.78l-5.25-15.88h-.05v15.88h-1.53Z"/>
      <path class="cls-3" d="M184.73,0c5.2,0,5.25,4.33,5.25,9.02s-.05,9.02-5.25,9.02-5.25-4.33-5.25-9.02,.05-9.02,5.25-9.02Zm0,16.75c3.66,0,3.71-3.1,3.71-7.72s-.05-7.72-3.71-7.72-3.71,3.1-3.71,7.72,.05,7.72,3.71,7.72Z"/>
      <path class="cls-3" d="M192.11,.34h7.34V1.64h-5.8v6.5h5.39v1.3h-5.39v8.28h-1.54V.34Z"/>
      <path class="cls-3" d="M213.33,.34v1.71l-7.87,14.37h7.94v1.3h-9.53v-1.71l7.94-14.37h-7.46V.34h8.98Z"/>
      <path class="cls-3" d="M219.73,0c5.2,0,5.25,4.33,5.25,9.02s-.05,9.02-5.25,9.02-5.25-4.33-5.25-9.02c.01-4.69,.06-9.02,5.25-9.02Zm0,16.75c3.66,0,3.71-3.1,3.71-7.72s-.05-7.72-3.71-7.72-3.71,3.1-3.71,7.72c.01,4.61,.06,7.72,3.71,7.72Z"/>
      <path class="cls-3" d="M232.17,0c5.2,0,5.25,4.33,5.25,9.02s-.05,9.02-5.25,9.02-5.25-4.33-5.25-9.02c.01-4.69,.06-9.02,5.25-9.02Zm0,16.75c3.66,0,3.71-3.1,3.71-7.72s-.05-7.72-3.71-7.72-3.71,3.1-3.71,7.72c0,4.61,.06,7.72,3.71,7.72Z"/>
      <path class="cls-3" d="M239.54,17.71V.34h1.54V16.41h5.75v1.3h-7.29Z"/>
      <path class="cls-3" d="M253.03,0c5.2,0,5.25,4.33,5.25,9.02s-.05,9.02-5.25,9.02-5.25-4.33-5.25-9.02c0-4.69,.06-9.02,5.25-9.02Zm0,16.75c3.66,0,3.71-3.1,3.71-7.72s-.05-7.72-3.71-7.72-3.71,3.1-3.71,7.72c0,4.61,.06,7.72,3.71,7.72Z"/>
      <path class="cls-3" d="M268.72,9.94h-3.51v-1.3h5.05v8.69c-1.54,.48-3.15,.72-4.79,.72-5.65,0-5.25-5.65-5.25-9.02S259.81,0,265.47,0c3.32,0,5.03,1.42,4.96,4.79h-1.54c0-2.29-.99-3.49-3.42-3.49-3.75,0-3.71,3.34-3.71,7.72s-.05,7.72,3.71,7.72c1.32,0,2.43-.19,3.25-.51v-6.3h0Z"/>
      <path class="cls-3" d="M276.44,10.49l-4.91-10.15h1.73l3.97,8.64,4.16-8.64h1.54l-4.96,10.15v7.22h-1.54v-7.22h0Z"/>
    </g>
  </g>
  <text class="cls-4" transform="translate(59.48 57.51)"><tspan x="0" y="0">Division of </tspan><tspan class="cls-5" x="102.48" y="0">F</tspan><tspan x="115.04" y="0">ishes</tspan></text>
</svg>